{
	"asset":{
		"generator":"Khronos glTF Blender I/O v4.2.57",
		"version":"2.0"
	},
	"extensionsUsed":[
		"KHR_materials_specular"
	],
	"scene":0,
	"scenes":[
		{
			"name":"Scene",
			"nodes":[
				0,
				1,
				2,
				3,
				4,
				5,
				6,
				7,
				8,
				9
			]
		}
	],
	"nodes":[
		{
			"mesh":0,
			"name":"Plane.001"
		},
		{
			"mesh":1,
			"name":"floor 1"
		},
		{
			"mesh":2,
			"name":"big plaster bot.001",
			"rotation":[
				0,
				0.7071066498756409,
				0,
				0.70710688829422
			]
		},
		{
			"mesh":3,
			"name":"Plane.002"
		},
		{
			"mesh":4,
			"name":"floor 2"
		},
		{
			"mesh":5,
			"name":"big plaster bot.002",
			"rotation":[
				0,
				-1,
				0,
				1.9470718370939721e-07
			]
		},
		{
			"mesh":6,
			"name":"smal plaster bot.001"
		},
		{
			"mesh":7,
			"name":"smal plaster bot.002",
			"rotation":[
				0,
				0.7071066498756409,
				0,
				0.70710688829422
			]
		},
		{
			"mesh":8,
			"name":"big building ",
			"rotation":[
				0,
				-0.7071066498756409,
				0,
				0.70710688829422
			]
		},
		{
			"mesh":9,
			"name":"small building .001"
		}
	],
	"materials":[
		{
			"doubleSided":true,
			"extensions":{
				"KHR_materials_specular":{
					"specularColorFactor":[
						1.7999999523162842,
						1.7999999523162842,
						1.7999999523162842
					]
				}
			},
			"name":"Marble",
			"normalTexture":{
				"index":0,
				"scale":0.5
			},
			"pbrMetallicRoughness":{
				"baseColorTexture":{
					"index":1
				},
				"metallicFactor":0,
				"metallicRoughnessTexture":{
					"index":2
				}
			}
		},
		{
			"doubleSided":true,
			"name":"black",
			"pbrMetallicRoughness":{
				"baseColorFactor":[
					0,
					0,
					0,
					1
				],
				"metallicFactor":0
			}
		},
		{
			"doubleSided":true,
			"extensions":{
				"KHR_materials_specular":{
					"specularTexture":{
						"index":3
					}
				}
			},
			"name":"floor tiles",
			"pbrMetallicRoughness":{
				"baseColorTexture":{
					"index":4
				},
				"metallicFactor":0,
				"roughnessFactor":0.5
			}
		},
		{
			"doubleSided":true,
			"extensions":{
				"KHR_materials_specular":{
					"specularColorFactor":[
						1.7999999523162842,
						1.7999999523162842,
						1.7999999523162842
					]
				}
			},
			"name":"big plaster and floor",
			"normalTexture":{
				"index":5,
				"scale":0.5
			},
			"pbrMetallicRoughness":{
				"baseColorTexture":{
					"index":6
				},
				"metallicFactor":0,
				"metallicRoughnessTexture":{
					"index":7
				}
			}
		},
		{
			"doubleSided":true,
			"name":"big plaster and floor dark",
			"pbrMetallicRoughness":{
				"baseColorFactor":[
					0.11927590519189835,
					0.05702243372797966,
					0.04655835032463074,
					1
				],
				"metallicFactor":0,
				"roughnessFactor":0.5
			}
		},
		{
			"doubleSided":true,
			"extensions":{
				"KHR_materials_specular":{
					"specularColorFactor":[
						1.7999999523162842,
						1.7999999523162842,
						1.7999999523162842
					]
				}
			},
			"name":"smal plaster bot Tiles",
			"normalTexture":{
				"index":8,
				"scale":0.5
			},
			"pbrMetallicRoughness":{
				"baseColorTexture":{
					"index":9
				},
				"metallicFactor":0,
				"metallicRoughnessTexture":{
					"index":10
				}
			}
		},
		{
			"doubleSided":true,
			"extensions":{
				"KHR_materials_specular":{
					"specularColorFactor":[
						1.7999999523162842,
						1.7999999523162842,
						1.7999999523162842
					]
				}
			},
			"name":"big building ",
			"normalTexture":{
				"index":11,
				"scale":0.5
			},
			"pbrMetallicRoughness":{
				"baseColorTexture":{
					"index":12
				},
				"metallicFactor":0,
				"metallicRoughnessTexture":{
					"index":13
				}
			}
		},
		{
			"doubleSided":true,
			"extensions":{
				"KHR_materials_specular":{
					"specularColorFactor":[
						1.7999999523162842,
						1.7999999523162842,
						1.7999999523162842
					]
				}
			},
			"name":"small building ",
			"normalTexture":{
				"index":14,
				"scale":0.5
			},
			"pbrMetallicRoughness":{
				"baseColorTexture":{
					"index":15
				},
				"metallicFactor":0,
				"metallicRoughnessTexture":{
					"index":16
				}
			}
		}
	],
	"meshes":[
		{
			"name":"Plane.001",
			"primitives":[
				{
					"attributes":{
						"POSITION":0,
						"NORMAL":1,
						"TEXCOORD_0":2
					},
					"indices":3,
					"material":0
				},
				{
					"attributes":{
						"POSITION":4,
						"NORMAL":5,
						"TEXCOORD_0":6
					},
					"indices":7,
					"material":1
				}
			]
		},
		{
			"name":"Circle.005",
			"primitives":[
				{
					"attributes":{
						"POSITION":8,
						"NORMAL":9,
						"TEXCOORD_0":10
					},
					"indices":11,
					"material":2
				},
				{
					"attributes":{
						"POSITION":12,
						"NORMAL":13,
						"TEXCOORD_0":14
					},
					"indices":15,
					"material":3
				},
				{
					"attributes":{
						"POSITION":16,
						"NORMAL":17,
						"TEXCOORD_0":18
					},
					"indices":19,
					"material":4
				}
			]
		},
		{
			"name":"Cube.004",
			"primitives":[
				{
					"attributes":{
						"POSITION":20,
						"NORMAL":21,
						"TEXCOORD_0":22
					},
					"indices":23,
					"material":0
				},
				{
					"attributes":{
						"POSITION":24,
						"NORMAL":25,
						"TEXCOORD_0":26
					},
					"indices":27,
					"material":3
				},
				{
					"attributes":{
						"POSITION":28,
						"NORMAL":29,
						"TEXCOORD_0":30
					},
					"indices":31,
					"material":4
				}
			]
		},
		{
			"name":"Plane.002",
			"primitives":[
				{
					"attributes":{
						"POSITION":32,
						"NORMAL":33,
						"TEXCOORD_0":34
					},
					"indices":35,
					"material":0
				}
			]
		},
		{
			"name":"Circle.007",
			"primitives":[
				{
					"attributes":{
						"POSITION":36,
						"NORMAL":37,
						"TEXCOORD_0":38
					},
					"indices":39,
					"material":3
				},
				{
					"attributes":{
						"POSITION":40,
						"NORMAL":41,
						"TEXCOORD_0":42
					},
					"indices":43,
					"material":4
				}
			]
		},
		{
			"name":"Cube.009",
			"primitives":[
				{
					"attributes":{
						"POSITION":44,
						"NORMAL":45,
						"TEXCOORD_0":46
					},
					"indices":23,
					"material":0
				},
				{
					"attributes":{
						"POSITION":47,
						"NORMAL":48,
						"TEXCOORD_0":49
					},
					"indices":27,
					"material":3
				},
				{
					"attributes":{
						"POSITION":50,
						"NORMAL":51,
						"TEXCOORD_0":52
					},
					"indices":31,
					"material":4
				}
			]
		},
		{
			"name":"Cube.014",
			"primitives":[
				{
					"attributes":{
						"POSITION":53,
						"NORMAL":54,
						"TEXCOORD_0":55
					},
					"indices":56,
					"material":0
				},
				{
					"attributes":{
						"POSITION":57,
						"NORMAL":58,
						"TEXCOORD_0":59
					},
					"indices":60,
					"material":1
				},
				{
					"attributes":{
						"POSITION":61,
						"NORMAL":62,
						"TEXCOORD_0":63
					},
					"indices":64,
					"material":5
				}
			]
		},
		{
			"name":"Cube.015",
			"primitives":[
				{
					"attributes":{
						"POSITION":65,
						"NORMAL":66,
						"TEXCOORD_0":67
					},
					"indices":56,
					"material":0
				},
				{
					"attributes":{
						"POSITION":68,
						"NORMAL":69,
						"TEXCOORD_0":70
					},
					"indices":60,
					"material":1
				},
				{
					"attributes":{
						"POSITION":71,
						"NORMAL":72,
						"TEXCOORD_0":73
					},
					"indices":64,
					"material":5
				}
			]
		},
		{
			"name":"Cube.020",
			"primitives":[
				{
					"attributes":{
						"POSITION":74,
						"NORMAL":75,
						"TEXCOORD_0":76
					},
					"indices":77,
					"material":6
				}
			]
		},
		{
			"name":"Cube.023",
			"primitives":[
				{
					"attributes":{
						"POSITION":78,
						"NORMAL":79,
						"TEXCOORD_0":80
					},
					"indices":81,
					"material":7
				}
			]
		}
	],
	"textures":[
		{
			"sampler":0,
			"source":0
		},
		{
			"sampler":0,
			"source":1
		},
		{
			"sampler":0,
			"source":2
		},
		{
			"sampler":0,
			"source":3
		},
		{
			"sampler":0,
			"source":4
		},
		{
			"sampler":0,
			"source":5
		},
		{
			"sampler":0,
			"source":6
		},
		{
			"sampler":0,
			"source":7
		},
		{
			"sampler":0,
			"source":8
		},
		{
			"sampler":0,
			"source":9
		},
		{
			"sampler":0,
			"source":10
		},
		{
			"sampler":0,
			"source":11
		},
		{
			"sampler":0,
			"source":12
		},
		{
			"sampler":0,
			"source":13
		},
		{
			"sampler":0,
			"source":14
		},
		{
			"sampler":0,
			"source":15
		},
		{
			"sampler":0,
			"source":16
		}
	],
	"images":[
		{
			"mimeType":"image/jpeg",
			"name":"Marble_normal_xtm",
			"uri":"Marble_normal_xtm.jpg"
		},
		{
			"mimeType":"image/jpeg",
			"name":"Marble_diffuse_xtm",
			"uri":"Marble_diffuse_xtm.jpg"
		},
		{
			"mimeType":"image/png",
			"name":"Marble_roughness_xtm",
			"uri":"Marble_roughness_xtm.png"
		},
		{
			"mimeType":"image/png",
			"name":"floor tiles_roughness_xtm",
			"uri":"floor%20tiles_roughness_xtm.png"
		},
		{
			"mimeType":"image/jpeg",
			"name":"floor tiles_diffuse_xtm",
			"uri":"floor%20tiles_diffuse_xtm.jpg"
		},
		{
			"mimeType":"image/jpeg",
			"name":"big plaster and floor_normal_xtm",
			"uri":"big%20plaster%20and%20floor_normal_xtm.jpg"
		},
		{
			"mimeType":"image/png",
			"name":"big plaster and floor_diffuse_xtm",
			"uri":"big%20plaster%20and%20floor_diffuse_xtm.png"
		},
		{
			"mimeType":"image/png",
			"name":"big plaster and floor_roughness_xtm",
			"uri":"big%20plaster%20and%20floor_roughness_xtm.png"
		},
		{
			"mimeType":"image/jpeg",
			"name":"smal plaster bot Tiles_normal_xtm",
			"uri":"smal%20plaster%20bot%20Tiles_normal_xtm.jpg"
		},
		{
			"mimeType":"image/jpeg",
			"name":"smal plaster bot Tiles_diffuse_xtm",
			"uri":"smal%20plaster%20bot%20Tiles_diffuse_xtm.jpg"
		},
		{
			"mimeType":"image/png",
			"name":"smal plaster bot Tiles_roughness_xtm",
			"uri":"smal%20plaster%20bot%20Tiles_roughness_xtm.png"
		},
		{
			"mimeType":"image/png",
			"name":"big building_normal",
			"uri":"big%20building_normal.png"
		},
		{
			"mimeType":"image/png",
			"name":"big building_diffuse",
			"uri":"big%20building_diffuse.png"
		},
		{
			"mimeType":"image/png",
			"name":"big building_roughness",
			"uri":"big%20building_roughness.png"
		},
		{
			"mimeType":"image/png",
			"name":"small building _normal_xtm",
			"uri":"small%20building%20_normal_xtm.png"
		},
		{
			"mimeType":"image/png",
			"name":"small building _diffuse_xtm",
			"uri":"small%20building%20_diffuse_xtm.png"
		},
		{
			"mimeType":"image/png",
			"name":"small building _roughness",
			"uri":"small%20building%20_roughness.png"
		}
	],
	"accessors":[
		{
			"bufferView":0,
			"componentType":5126,
			"count":967,
			"max":[
				3.035470962524414,
				0.1927083432674408,
				3.035470962524414
			],
			"min":[
				-3.035470962524414,
				0,
				-3.035470962524414
			],
			"type":"VEC3"
		},
		{
			"bufferView":1,
			"componentType":5126,
			"count":967,
			"type":"VEC3"
		},
		{
			"bufferView":2,
			"componentType":5126,
			"count":967,
			"type":"VEC2"
		},
		{
			"bufferView":3,
			"componentType":5123,
			"count":2493,
			"type":"SCALAR"
		},
		{
			"bufferView":4,
			"componentType":5126,
			"count":308,
			"max":[
				3.03250789642334,
				0.18734242022037506,
				3
			],
			"min":[
				-3.03250789642334,
				0,
				-3.03250789642334
			],
			"type":"VEC3"
		},
		{
			"bufferView":5,
			"componentType":5126,
			"count":308,
			"type":"VEC3"
		},
		{
			"bufferView":6,
			"componentType":5126,
			"count":308,
			"type":"VEC2"
		},
		{
			"bufferView":7,
			"componentType":5123,
			"count":462,
			"type":"SCALAR"
		},
		{
			"bufferView":8,
			"componentType":5126,
			"count":810,
			"max":[
				11.449997901916504,
				2.2130127064201588e-08,
				11.449997901916504
			],
			"min":[
				-11.449997901916504,
				-0.5,
				-11.449997901916504
			],
			"type":"VEC3"
		},
		{
			"bufferView":9,
			"componentType":5126,
			"count":810,
			"type":"VEC3"
		},
		{
			"bufferView":10,
			"componentType":5126,
			"count":810,
			"type":"VEC2"
		},
		{
			"bufferView":11,
			"componentType":5123,
			"count":1980,
			"type":"SCALAR"
		},
		{
			"bufferView":12,
			"componentType":5126,
			"count":2056,
			"max":[
				11.449997901916504,
				3.8944417468655956e-08,
				11.449997901916504
			],
			"min":[
				-11.449997901916504,
				-0.5,
				-11.449997901916504
			],
			"type":"VEC3"
		},
		{
			"bufferView":13,
			"componentType":5126,
			"count":2056,
			"type":"VEC3"
		},
		{
			"bufferView":14,
			"componentType":5126,
			"count":2056,
			"type":"VEC2"
		},
		{
			"bufferView":15,
			"componentType":5123,
			"count":3312,
			"type":"SCALAR"
		},
		{
			"bufferView":16,
			"componentType":5126,
			"count":684,
			"max":[
				11.448819160461426,
				-0.0011514629004523158,
				11.448819160461426
			],
			"min":[
				-11.448819160461426,
				-0.5,
				-11.448819160461426
			],
			"type":"VEC3"
		},
		{
			"bufferView":17,
			"componentType":5126,
			"count":684,
			"type":"VEC3"
		},
		{
			"bufferView":18,
			"componentType":5126,
			"count":684,
			"type":"VEC2"
		},
		{
			"bufferView":19,
			"componentType":5123,
			"count":972,
			"type":"SCALAR"
		},
		{
			"bufferView":20,
			"componentType":5126,
			"count":432,
			"max":[
				1.5244426727294922,
				3.1287615299224854,
				9.533782958984375
			],
			"min":[
				-1.5308952331542969,
				2.9999992847442627,
				-9.533782958984375
			],
			"type":"VEC3"
		},
		{
			"bufferView":21,
			"componentType":5126,
			"count":432,
			"type":"VEC3"
		},
		{
			"bufferView":22,
			"componentType":5126,
			"count":432,
			"type":"VEC2"
		},
		{
			"bufferView":23,
			"componentType":5123,
			"count":720,
			"type":"SCALAR"
		},
		{
			"bufferView":24,
			"componentType":5126,
			"count":8032,
			"max":[
				1.4999998807907104,
				2.999999761581421,
				9.506453514099121
			],
			"min":[
				-1.5000007152557373,
				-3.497202527569243e-14,
				-9.506453514099121
			],
			"type":"VEC3"
		},
		{
			"bufferView":25,
			"componentType":5126,
			"count":8032,
			"type":"VEC3"
		},
		{
			"bufferView":26,
			"componentType":5126,
			"count":8032,
			"type":"VEC2"
		},
		{
			"bufferView":27,
			"componentType":5123,
			"count":12144,
			"type":"SCALAR"
		},
		{
			"bufferView":28,
			"componentType":5126,
			"count":5656,
			"max":[
				1.4999998807907104,
				2.999999761581421,
				9.506453514099121
			],
			"min":[
				-1.5000007152557373,
				-3.497202527569243e-14,
				-9.506453514099121
			],
			"type":"VEC3"
		},
		{
			"bufferView":29,
			"componentType":5126,
			"count":5656,
			"type":"VEC3"
		},
		{
			"bufferView":30,
			"componentType":5126,
			"count":5656,
			"type":"VEC2"
		},
		{
			"bufferView":31,
			"componentType":5123,
			"count":8448,
			"type":"SCALAR"
		},
		{
			"bufferView":32,
			"componentType":5126,
			"count":24,
			"max":[
				3.035470962524414,
				0.25,
				3.035470962524414
			],
			"min":[
				-3.035470962524414,
				0.1927083432674408,
				-3.035470962524414
			],
			"type":"VEC3"
		},
		{
			"bufferView":33,
			"componentType":5126,
			"count":24,
			"type":"VEC3"
		},
		{
			"bufferView":34,
			"componentType":5126,
			"count":24,
			"type":"VEC2"
		},
		{
			"bufferView":35,
			"componentType":5123,
			"count":54,
			"type":"SCALAR"
		},
		{
			"bufferView":36,
			"componentType":5126,
			"count":6928,
			"max":[
				11.54403305053711,
				1.6599592527200002e-06,
				11.528815269470215
			],
			"min":[
				-11.54403305053711,
				-0.3014700710773468,
				-11.528815269470215
			],
			"type":"VEC3"
		},
		{
			"bufferView":37,
			"componentType":5126,
			"count":6928,
			"type":"VEC3"
		},
		{
			"bufferView":38,
			"componentType":5126,
			"count":6928,
			"type":"VEC2"
		},
		{
			"bufferView":39,
			"componentType":5123,
			"count":10656,
			"type":"SCALAR"
		},
		{
			"bufferView":40,
			"componentType":5126,
			"count":2016,
			"max":[
				11.542702674865723,
				-0.0011498184176161885,
				11.527484893798828
			],
			"min":[
				-11.542702674865723,
				-0.3014700710773468,
				-11.527484893798828
			],
			"type":"VEC3"
		},
		{
			"bufferView":41,
			"componentType":5126,
			"count":2016,
			"type":"VEC3"
		},
		{
			"bufferView":42,
			"componentType":5126,
			"count":2016,
			"type":"VEC2"
		},
		{
			"bufferView":43,
			"componentType":5123,
			"count":3024,
			"type":"SCALAR"
		},
		{
			"bufferView":44,
			"componentType":5126,
			"count":432,
			"max":[
				1.5244426727294922,
				3.1287615299224854,
				9.533782958984375
			],
			"min":[
				-1.5308952331542969,
				2.9999992847442627,
				-9.533782958984375
			],
			"type":"VEC3"
		},
		{
			"bufferView":45,
			"componentType":5126,
			"count":432,
			"type":"VEC3"
		},
		{
			"bufferView":46,
			"componentType":5126,
			"count":432,
			"type":"VEC2"
		},
		{
			"bufferView":47,
			"componentType":5126,
			"count":8032,
			"max":[
				1.4999998807907104,
				2.999999761581421,
				9.506453514099121
			],
			"min":[
				-1.5000007152557373,
				-3.497202527569243e-14,
				-9.506453514099121
			],
			"type":"VEC3"
		},
		{
			"bufferView":48,
			"componentType":5126,
			"count":8032,
			"type":"VEC3"
		},
		{
			"bufferView":49,
			"componentType":5126,
			"count":8032,
			"type":"VEC2"
		},
		{
			"bufferView":50,
			"componentType":5126,
			"count":5656,
			"max":[
				1.4999998807907104,
				2.999999761581421,
				9.506453514099121
			],
			"min":[
				-1.5000007152557373,
				-3.497202527569243e-14,
				-9.506453514099121
			],
			"type":"VEC3"
		},
		{
			"bufferView":51,
			"componentType":5126,
			"count":5656,
			"type":"VEC3"
		},
		{
			"bufferView":52,
			"componentType":5126,
			"count":5656,
			"type":"VEC2"
		},
		{
			"bufferView":53,
			"componentType":5126,
			"count":4258,
			"max":[
				2.0999999046325684,
				1.8000000715255737,
				5.099999904632568
			],
			"min":[
				-2.0999999046325684,
				0,
				-5.099999904632568
			],
			"type":"VEC3"
		},
		{
			"bufferView":54,
			"componentType":5126,
			"count":4258,
			"type":"VEC3"
		},
		{
			"bufferView":55,
			"componentType":5126,
			"count":4258,
			"type":"VEC2"
		},
		{
			"bufferView":56,
			"componentType":5123,
			"count":6576,
			"type":"SCALAR"
		},
		{
			"bufferView":57,
			"componentType":5126,
			"count":480,
			"max":[
				2.096611499786377,
				1.2330832481384277,
				5.096611499786377
			],
			"min":[
				-2.0966105461120605,
				0.5669166445732117,
				-5.096611499786377
			],
			"type":"VEC3"
		},
		{
			"bufferView":58,
			"componentType":5126,
			"count":480,
			"type":"VEC3"
		},
		{
			"bufferView":59,
			"componentType":5126,
			"count":480,
			"type":"VEC2"
		},
		{
			"bufferView":60,
			"componentType":5123,
			"count":720,
			"type":"SCALAR"
		},
		{
			"bufferView":61,
			"componentType":5126,
			"count":448,
			"max":[
				2.082322120666504,
				1.6986894607543945,
				5.082322120666504
			],
			"min":[
				-2.082322120666504,
				0.10131045430898666,
				-5.082322120666504
			],
			"type":"VEC3"
		},
		{
			"bufferView":62,
			"componentType":5126,
			"count":448,
			"type":"VEC3"
		},
		{
			"bufferView":63,
			"componentType":5126,
			"count":448,
			"type":"VEC2"
		},
		{
			"bufferView":64,
			"componentType":5123,
			"count":1008,
			"type":"SCALAR"
		},
		{
			"bufferView":65,
			"componentType":5126,
			"count":4258,
			"max":[
				2.0999999046325684,
				1.8000000715255737,
				5.099999904632568
			],
			"min":[
				-2.0999999046325684,
				0,
				-5.099999904632568
			],
			"type":"VEC3"
		},
		{
			"bufferView":66,
			"componentType":5126,
			"count":4258,
			"type":"VEC3"
		},
		{
			"bufferView":67,
			"componentType":5126,
			"count":4258,
			"type":"VEC2"
		},
		{
			"bufferView":68,
			"componentType":5126,
			"count":480,
			"max":[
				2.096611499786377,
				1.2330832481384277,
				5.096611499786377
			],
			"min":[
				-2.0966105461120605,
				0.5669166445732117,
				-5.096611499786377
			],
			"type":"VEC3"
		},
		{
			"bufferView":69,
			"componentType":5126,
			"count":480,
			"type":"VEC3"
		},
		{
			"bufferView":70,
			"componentType":5126,
			"count":480,
			"type":"VEC2"
		},
		{
			"bufferView":71,
			"componentType":5126,
			"count":448,
			"max":[
				2.082322120666504,
				1.6986894607543945,
				5.082322120666504
			],
			"min":[
				-2.082322120666504,
				0.10131045430898666,
				-5.082322120666504
			],
			"type":"VEC3"
		},
		{
			"bufferView":72,
			"componentType":5126,
			"count":448,
			"type":"VEC3"
		},
		{
			"bufferView":73,
			"componentType":5126,
			"count":448,
			"type":"VEC2"
		},
		{
			"bufferView":74,
			"componentType":5126,
			"count":1376,
			"max":[
				9.442127227783203,
				35.60000228881836,
				9.442133903503418
			],
			"min":[
				-9.442123413085938,
				-3.814697265625e-06,
				-9.442119598388672
			],
			"type":"VEC3"
		},
		{
			"bufferView":75,
			"componentType":5126,
			"count":1376,
			"type":"VEC3"
		},
		{
			"bufferView":76,
			"componentType":5126,
			"count":1376,
			"type":"VEC2"
		},
		{
			"bufferView":77,
			"componentType":5123,
			"count":3816,
			"type":"SCALAR"
		},
		{
			"bufferView":78,
			"componentType":5126,
			"count":1712,
			"max":[
				5,
				13.99998664855957,
				5.000000476837158
			],
			"min":[
				-5,
				0,
				-5.000000476837158
			],
			"type":"VEC3"
		},
		{
			"bufferView":79,
			"componentType":5126,
			"count":1712,
			"type":"VEC3"
		},
		{
			"bufferView":80,
			"componentType":5126,
			"count":1712,
			"type":"VEC2"
		},
		{
			"bufferView":81,
			"componentType":5123,
			"count":7248,
			"type":"SCALAR"
		}
	],
	"bufferViews":[
		{
			"buffer":0,
			"byteLength":11604,
			"byteOffset":0,
			"target":34962
		},
		{
			"buffer":0,
			"byteLength":11604,
			"byteOffset":11604,
			"target":34962
		},
		{
			"buffer":0,
			"byteLength":7736,
			"byteOffset":23208,
			"target":34962
		},
		{
			"buffer":0,
			"byteLength":4986,
			"byteOffset":30944,
			"target":34963
		},
		{
			"buffer":0,
			"byteLength":3696,
			"byteOffset":35932,
			"target":34962
		},
		{
			"buffer":0,
			"byteLength":3696,
			"byteOffset":39628,
			"target":34962
		},
		{
			"buffer":0,
			"byteLength":2464,
			"byteOffset":43324,
			"target":34962
		},
		{
			"buffer":0,
			"byteLength":924,
			"byteOffset":45788,
			"target":34963
		},
		{
			"buffer":0,
			"byteLength":9720,
			"byteOffset":46712,
			"target":34962
		},
		{
			"buffer":0,
			"byteLength":9720,
			"byteOffset":56432,
			"target":34962
		},
		{
			"buffer":0,
			"byteLength":6480,
			"byteOffset":66152,
			"target":34962
		},
		{
			"buffer":0,
			"byteLength":3960,
			"byteOffset":72632,
			"target":34963
		},
		{
			"buffer":0,
			"byteLength":24672,
			"byteOffset":76592,
			"target":34962
		},
		{
			"buffer":0,
			"byteLength":24672,
			"byteOffset":101264,
			"target":34962
		},
		{
			"buffer":0,
			"byteLength":16448,
			"byteOffset":125936,
			"target":34962
		},
		{
			"buffer":0,
			"byteLength":6624,
			"byteOffset":142384,
			"target":34963
		},
		{
			"buffer":0,
			"byteLength":8208,
			"byteOffset":149008,
			"target":34962
		},
		{
			"buffer":0,
			"byteLength":8208,
			"byteOffset":157216,
			"target":34962
		},
		{
			"buffer":0,
			"byteLength":5472,
			"byteOffset":165424,
			"target":34962
		},
		{
			"buffer":0,
			"byteLength":1944,
			"byteOffset":170896,
			"target":34963
		},
		{
			"buffer":0,
			"byteLength":5184,
			"byteOffset":172840,
			"target":34962
		},
		{
			"buffer":0,
			"byteLength":5184,
			"byteOffset":178024,
			"target":34962
		},
		{
			"buffer":0,
			"byteLength":3456,
			"byteOffset":183208,
			"target":34962
		},
		{
			"buffer":0,
			"byteLength":1440,
			"byteOffset":186664,
			"target":34963
		},
		{
			"buffer":0,
			"byteLength":96384,
			"byteOffset":188104,
			"target":34962
		},
		{
			"buffer":0,
			"byteLength":96384,
			"byteOffset":284488,
			"target":34962
		},
		{
			"buffer":0,
			"byteLength":64256,
			"byteOffset":380872,
			"target":34962
		},
		{
			"buffer":0,
			"byteLength":24288,
			"byteOffset":445128,
			"target":34963
		},
		{
			"buffer":0,
			"byteLength":67872,
			"byteOffset":469416,
			"target":34962
		},
		{
			"buffer":0,
			"byteLength":67872,
			"byteOffset":537288,
			"target":34962
		},
		{
			"buffer":0,
			"byteLength":45248,
			"byteOffset":605160,
			"target":34962
		},
		{
			"buffer":0,
			"byteLength":16896,
			"byteOffset":650408,
			"target":34963
		},
		{
			"buffer":0,
			"byteLength":288,
			"byteOffset":667304,
			"target":34962
		},
		{
			"buffer":0,
			"byteLength":288,
			"byteOffset":667592,
			"target":34962
		},
		{
			"buffer":0,
			"byteLength":192,
			"byteOffset":667880,
			"target":34962
		},
		{
			"buffer":0,
			"byteLength":108,
			"byteOffset":668072,
			"target":34963
		},
		{
			"buffer":0,
			"byteLength":83136,
			"byteOffset":668180,
			"target":34962
		},
		{
			"buffer":0,
			"byteLength":83136,
			"byteOffset":751316,
			"target":34962
		},
		{
			"buffer":0,
			"byteLength":55424,
			"byteOffset":834452,
			"target":34962
		},
		{
			"buffer":0,
			"byteLength":21312,
			"byteOffset":889876,
			"target":34963
		},
		{
			"buffer":0,
			"byteLength":24192,
			"byteOffset":911188,
			"target":34962
		},
		{
			"buffer":0,
			"byteLength":24192,
			"byteOffset":935380,
			"target":34962
		},
		{
			"buffer":0,
			"byteLength":16128,
			"byteOffset":959572,
			"target":34962
		},
		{
			"buffer":0,
			"byteLength":6048,
			"byteOffset":975700,
			"target":34963
		},
		{
			"buffer":0,
			"byteLength":5184,
			"byteOffset":981748,
			"target":34962
		},
		{
			"buffer":0,
			"byteLength":5184,
			"byteOffset":986932,
			"target":34962
		},
		{
			"buffer":0,
			"byteLength":3456,
			"byteOffset":992116,
			"target":34962
		},
		{
			"buffer":0,
			"byteLength":96384,
			"byteOffset":995572,
			"target":34962
		},
		{
			"buffer":0,
			"byteLength":96384,
			"byteOffset":1091956,
			"target":34962
		},
		{
			"buffer":0,
			"byteLength":64256,
			"byteOffset":1188340,
			"target":34962
		},
		{
			"buffer":0,
			"byteLength":67872,
			"byteOffset":1252596,
			"target":34962
		},
		{
			"buffer":0,
			"byteLength":67872,
			"byteOffset":1320468,
			"target":34962
		},
		{
			"buffer":0,
			"byteLength":45248,
			"byteOffset":1388340,
			"target":34962
		},
		{
			"buffer":0,
			"byteLength":51096,
			"byteOffset":1433588,
			"target":34962
		},
		{
			"buffer":0,
			"byteLength":51096,
			"byteOffset":1484684,
			"target":34962
		},
		{
			"buffer":0,
			"byteLength":34064,
			"byteOffset":1535780,
			"target":34962
		},
		{
			"buffer":0,
			"byteLength":13152,
			"byteOffset":1569844,
			"target":34963
		},
		{
			"buffer":0,
			"byteLength":5760,
			"byteOffset":1582996,
			"target":34962
		},
		{
			"buffer":0,
			"byteLength":5760,
			"byteOffset":1588756,
			"target":34962
		},
		{
			"buffer":0,
			"byteLength":3840,
			"byteOffset":1594516,
			"target":34962
		},
		{
			"buffer":0,
			"byteLength":1440,
			"byteOffset":1598356,
			"target":34963
		},
		{
			"buffer":0,
			"byteLength":5376,
			"byteOffset":1599796,
			"target":34962
		},
		{
			"buffer":0,
			"byteLength":5376,
			"byteOffset":1605172,
			"target":34962
		},
		{
			"buffer":0,
			"byteLength":3584,
			"byteOffset":1610548,
			"target":34962
		},
		{
			"buffer":0,
			"byteLength":2016,
			"byteOffset":1614132,
			"target":34963
		},
		{
			"buffer":0,
			"byteLength":51096,
			"byteOffset":1616148,
			"target":34962
		},
		{
			"buffer":0,
			"byteLength":51096,
			"byteOffset":1667244,
			"target":34962
		},
		{
			"buffer":0,
			"byteLength":34064,
			"byteOffset":1718340,
			"target":34962
		},
		{
			"buffer":0,
			"byteLength":5760,
			"byteOffset":1752404,
			"target":34962
		},
		{
			"buffer":0,
			"byteLength":5760,
			"byteOffset":1758164,
			"target":34962
		},
		{
			"buffer":0,
			"byteLength":3840,
			"byteOffset":1763924,
			"target":34962
		},
		{
			"buffer":0,
			"byteLength":5376,
			"byteOffset":1767764,
			"target":34962
		},
		{
			"buffer":0,
			"byteLength":5376,
			"byteOffset":1773140,
			"target":34962
		},
		{
			"buffer":0,
			"byteLength":3584,
			"byteOffset":1778516,
			"target":34962
		},
		{
			"buffer":0,
			"byteLength":16512,
			"byteOffset":1782100,
			"target":34962
		},
		{
			"buffer":0,
			"byteLength":16512,
			"byteOffset":1798612,
			"target":34962
		},
		{
			"buffer":0,
			"byteLength":11008,
			"byteOffset":1815124,
			"target":34962
		},
		{
			"buffer":0,
			"byteLength":7632,
			"byteOffset":1826132,
			"target":34963
		},
		{
			"buffer":0,
			"byteLength":20544,
			"byteOffset":1833764,
			"target":34962
		},
		{
			"buffer":0,
			"byteLength":20544,
			"byteOffset":1854308,
			"target":34962
		},
		{
			"buffer":0,
			"byteLength":13696,
			"byteOffset":1874852,
			"target":34962
		},
		{
			"buffer":0,
			"byteLength":14496,
			"byteOffset":1888548,
			"target":34963
		}
	],
	"samplers":[
		{
			"magFilter":9729,
			"minFilter":9987
		}
	],
	"buffers":[
		{
			"byteLength":1903044,
			"uri":"Mazar.bin"
		}
	]
}
