{
	"asset":{
		"generator":"Khronos glTF Blender I/O v4.5.48",
		"version":"2.0"
	},
	"scene":0,
	"scenes":[
		{
			"name":"Scene",
			"nodes":[
				0
			]
		}
	],
	"nodes":[
		{
			"mesh":0,
			"name":"Stand"
		}
	],
	"materials":[
		{
			"doubleSided":true,
			"name":"Stand",
			"pbrMetallicRoughness":{
				"baseColorFactor":[
					0.02748844027519226,
					0.02748844027519226,
					0.02748844027519226,
					1
				],
				"metallicFactor":0,
				"roughnessFactor":0.8999999761581421
			}
		},
		{
			"alphaMode":"BLEND",
			"doubleSided":true,
			"emissiveFactor":[
				0.15092770153714952,
				0.1551214125680076,
				0.19999998807907104
			],
			"name":"Digital_Screen",
			"pbrMetallicRoughness":{
				"baseColorFactor":[
					0.3345591425895691,
					0.37725216150283813,
					0.8000074625015259,
					0.20000000298023224
				],
				"metallicFactor":0,
				"roughnessFactor":0.5
			}
		}
	],
	"meshes":[
		{
			"name":"Stand",
			"primitives":[
				{
					"attributes":{
						"POSITION":0,
						"NORMAL":1,
						"TEXCOORD_0":2
					},
					"indices":3,
					"material":0
				},
				{
					"attributes":{
						"POSITION":4,
						"NORMAL":5,
						"TEXCOORD_0":6
					},
					"indices":7,
					"material":1
				}
			]
		}
	],
	"accessors":[
		{
			"bufferView":0,
			"componentType":5126,
			"count":153,
			"max":[
				1.5170996189117432,
				0.3242528438568115,
				0.15159735083580017
			],
			"min":[
				-1.5170996189117432,
				0,
				-0.15159735083580017
			],
			"type":"VEC3"
		},
		{
			"bufferView":1,
			"componentType":5126,
			"count":153,
			"type":"VEC3"
		},
		{
			"bufferView":2,
			"componentType":5126,
			"count":153,
			"type":"VEC2"
		},
		{
			"bufferView":3,
			"componentType":5123,
			"count":654,
			"type":"SCALAR"
		},
		{
			"bufferView":4,
			"componentType":5126,
			"count":116,
			"max":[
				1.4431592226028442,
				5.323519229888916,
				0.07765686511993408
			],
			"min":[
				-1.4431592226028442,
				0.30907171964645386,
				-0.07765686511993408
			],
			"type":"VEC3"
		},
		{
			"bufferView":5,
			"componentType":5126,
			"count":116,
			"type":"VEC3"
		},
		{
			"bufferView":6,
			"componentType":5126,
			"count":116,
			"type":"VEC2"
		},
		{
			"bufferView":7,
			"componentType":5123,
			"count":630,
			"type":"SCALAR"
		}
	],
	"bufferViews":[
		{
			"buffer":0,
			"byteLength":1836,
			"byteOffset":0,
			"target":34962
		},
		{
			"buffer":0,
			"byteLength":1836,
			"byteOffset":1836,
			"target":34962
		},
		{
			"buffer":0,
			"byteLength":1224,
			"byteOffset":3672,
			"target":34962
		},
		{
			"buffer":0,
			"byteLength":1308,
			"byteOffset":4896,
			"target":34963
		},
		{
			"buffer":0,
			"byteLength":1392,
			"byteOffset":6204,
			"target":34962
		},
		{
			"buffer":0,
			"byteLength":1392,
			"byteOffset":7596,
			"target":34962
		},
		{
			"buffer":0,
			"byteLength":928,
			"byteOffset":8988,
			"target":34962
		},
		{
			"buffer":0,
			"byteLength":1260,
			"byteOffset":9916,
			"target":34963
		}
	],
	"buffers":[
		{
			"byteLength":11176,
			"uri":"Stand.bin"
		}
	]
}
