{
	"asset":{
		"generator":"Khronos glTF Blender I/O v4.5.48",
		"version":"2.0"
	},
	"scene":0,
	"scenes":[
		{
			"name":"Scene",
			"nodes":[
				0,
				1,
				2
			]
		}
	],
	"nodes":[
		{
			"mesh":0,
			"name":"Bubble_Sphere"
		},
		{
			"mesh":1,
			"name":"Bubble_Platform"
		},
		{
			"mesh":2,
			"name":"Bubble_Sphere_Collision"
		}
	],
	"materials":[
		{
			"alphaMode":"BLEND",
			"doubleSided":true,
			"name":"Bubble_Glass",
			"pbrMetallicRoughness":{
				"baseColorFactor":[
					0.3211960196495056,
					0.4483147859573364,
					0.8000156879425049,
					0.25090909004211426
				],
				"metallicFactor":0,
				"roughnessFactor":0
			}
		},
		{
			"doubleSided":true,
			"name":"Bubble_Frame"
		},
		{
			"doubleSided":true,
			"name":"Platform"
		},
		{
			"doubleSided":true,
			"name":"Grid",
			"pbrMetallicRoughness":{
				"baseColorTexture":{
					"index":0
				},
				"metallicFactor":0,
				"roughnessFactor":0.800000011920929
			}
		}
	],
	"meshes":[
		{
			"name":"Bubble_Sphere",
			"primitives":[
				{
					"attributes":{
						"POSITION":0,
						"NORMAL":1,
						"TEXCOORD_0":2
					},
					"indices":3,
					"material":0
				},
				{
					"attributes":{
						"POSITION":4,
						"NORMAL":5,
						"TEXCOORD_0":6
					},
					"indices":7,
					"material":1
				}
			]
		},
		{
			"name":"Bubble_Platform",
			"primitives":[
				{
					"attributes":{
						"POSITION":8,
						"NORMAL":9,
						"TEXCOORD_0":10
					},
					"indices":11,
					"material":2
				},
				{
					"attributes":{
						"POSITION":12,
						"NORMAL":13,
						"TEXCOORD_0":14
					},
					"indices":15,
					"material":3
				}
			]
		},
		{
			"name":"Bubble_Sphere_Collision",
			"primitives":[
				{
					"attributes":{
						"POSITION":16,
						"NORMAL":17,
						"TEXCOORD_0":18
					},
					"indices":19
				}
			]
		}
	],
	"textures":[
		{
			"sampler":0,
			"source":0
		}
	],
	"images":[
		{
			"mimeType":"image/png",
			"name":"Ground_Texture",
			"uri":"Ground_Texture.png"
		}
	],
	"accessors":[
		{
			"bufferView":0,
			"componentType":5126,
			"count":480,
			"max":[
				100,
				100.0643310546875,
				100
			],
			"min":[
				-100,
				0.06414365768432617,
				-100
			],
			"type":"VEC3"
		},
		{
			"bufferView":1,
			"componentType":5126,
			"count":480,
			"type":"VEC3"
		},
		{
			"bufferView":2,
			"componentType":5126,
			"count":480,
			"type":"VEC2"
		},
		{
			"bufferView":3,
			"componentType":5123,
			"count":480,
			"type":"SCALAR"
		},
		{
			"bufferView":4,
			"componentType":5126,
			"count":3840,
			"max":[
				100.49694061279297,
				100.5643310546875,
				100.49656677246094
			],
			"min":[
				-100.4958724975586,
				3.337860107421875e-06,
				-100.49656677246094
			],
			"type":"VEC3"
		},
		{
			"bufferView":5,
			"componentType":5126,
			"count":3840,
			"type":"VEC3"
		},
		{
			"bufferView":6,
			"componentType":5126,
			"count":3840,
			"type":"VEC2"
		},
		{
			"bufferView":7,
			"componentType":5123,
			"count":5760,
			"type":"SCALAR"
		},
		{
			"bufferView":8,
			"componentType":5126,
			"count":260,
			"max":[
				103.16156005859375,
				6.297233630903065e-05,
				103.16156005859375
			],
			"min":[
				-103.16156005859375,
				-19.385286331176758,
				-103.16156005859375
			],
			"type":"VEC3"
		},
		{
			"bufferView":9,
			"componentType":5126,
			"count":260,
			"type":"VEC3"
		},
		{
			"bufferView":10,
			"componentType":5126,
			"count":260,
			"type":"VEC2"
		},
		{
			"bufferView":11,
			"componentType":5123,
			"count":414,
			"type":"SCALAR"
		},
		{
			"bufferView":12,
			"componentType":5126,
			"count":60,
			"max":[
				100,
				6.297233630903065e-05,
				100
			],
			"min":[
				-100,
				-0.00019101621001027524,
				-100
			],
			"type":"VEC3"
		},
		{
			"bufferView":13,
			"componentType":5126,
			"count":60,
			"type":"VEC3"
		},
		{
			"bufferView":14,
			"componentType":5126,
			"count":60,
			"type":"VEC2"
		},
		{
			"bufferView":15,
			"componentType":5123,
			"count":294,
			"type":"SCALAR"
		},
		{
			"bufferView":16,
			"componentType":5126,
			"count":1040,
			"max":[
				109.93881225585938,
				110,
				109.93136596679688
			],
			"min":[
				-109.91737365722656,
				-0.00019101621001027524,
				-109.93136596679688
			],
			"type":"VEC3"
		},
		{
			"bufferView":17,
			"componentType":5126,
			"count":1040,
			"type":"VEC3"
		},
		{
			"bufferView":18,
			"componentType":5126,
			"count":1040,
			"type":"VEC2"
		},
		{
			"bufferView":19,
			"componentType":5123,
			"count":1080,
			"type":"SCALAR"
		}
	],
	"bufferViews":[
		{
			"buffer":0,
			"byteLength":5760,
			"byteOffset":0,
			"target":34962
		},
		{
			"buffer":0,
			"byteLength":5760,
			"byteOffset":5760,
			"target":34962
		},
		{
			"buffer":0,
			"byteLength":3840,
			"byteOffset":11520,
			"target":34962
		},
		{
			"buffer":0,
			"byteLength":960,
			"byteOffset":15360,
			"target":34963
		},
		{
			"buffer":0,
			"byteLength":46080,
			"byteOffset":16320,
			"target":34962
		},
		{
			"buffer":0,
			"byteLength":46080,
			"byteOffset":62400,
			"target":34962
		},
		{
			"buffer":0,
			"byteLength":30720,
			"byteOffset":108480,
			"target":34962
		},
		{
			"buffer":0,
			"byteLength":11520,
			"byteOffset":139200,
			"target":34963
		},
		{
			"buffer":0,
			"byteLength":3120,
			"byteOffset":150720,
			"target":34962
		},
		{
			"buffer":0,
			"byteLength":3120,
			"byteOffset":153840,
			"target":34962
		},
		{
			"buffer":0,
			"byteLength":2080,
			"byteOffset":156960,
			"target":34962
		},
		{
			"buffer":0,
			"byteLength":828,
			"byteOffset":159040,
			"target":34963
		},
		{
			"buffer":0,
			"byteLength":720,
			"byteOffset":159868,
			"target":34962
		},
		{
			"buffer":0,
			"byteLength":720,
			"byteOffset":160588,
			"target":34962
		},
		{
			"buffer":0,
			"byteLength":480,
			"byteOffset":161308,
			"target":34962
		},
		{
			"buffer":0,
			"byteLength":588,
			"byteOffset":161788,
			"target":34963
		},
		{
			"buffer":0,
			"byteLength":12480,
			"byteOffset":162376,
			"target":34962
		},
		{
			"buffer":0,
			"byteLength":12480,
			"byteOffset":174856,
			"target":34962
		},
		{
			"buffer":0,
			"byteLength":8320,
			"byteOffset":187336,
			"target":34962
		},
		{
			"buffer":0,
			"byteLength":2160,
			"byteOffset":195656,
			"target":34963
		}
	],
	"samplers":[
		{
			"magFilter":9729,
			"minFilter":9987
		}
	],
	"buffers":[
		{
			"byteLength":197816,
			"uri":"Bubble%20Model.bin"
		}
	]
}
