{
	"asset":{
		"generator":"Khronos glTF Blender I/O v4.5.48",
		"version":"2.0"
	},
	"extensionsUsed":[
		"KHR_materials_transmission",
		"KHR_materials_specular",
		"KHR_materials_ior",
		"KHR_texture_transform"
	],
	"extensionsRequired":[
		"KHR_texture_transform"
	],
	"scene":0,
	"scenes":[
		{
			"name":"Scene",
			"nodes":[
				0,
				1,
				2,
				3,
				4,
				5,
				6,
				7,
				8,
				9,
				10,
				11,
				12,
				13,
				14,
				15,
				16,
				17,
				18,
				19,
				20,
				21,
				22,
				23,
				24
			]
		}
	],
	"nodes":[
		{
			"mesh":0,
			"name":"Lamp",
			"scale":[
				0.013343393802642822,
				0.014072426594793797,
				0.013317202217876911
			],
			"translation":[
				-0.00743865966796875,
				-0.09415912628173828,
				0.0036869049072265625
			]
		},
		{
			"mesh":1,
			"name":"Big_Banner_Frame",
			"rotation":[
				0,
				0.36940300464630127,
				0,
				0.9292693138122559
			],
			"scale":[
				0.4999999701976776,
				5.499999523162842,
				10.5
			],
			"translation":[
				-52.816070556640625,
				15.730010986328125,
				52.07638931274414
			]
		},
		{
			"mesh":2,
			"name":"Big_Banner_Pile",
			"rotation":[
				0,
				0.36940306425094604,
				0,
				0.9292692542076111
			],
			"scale":[
				0.4569419324398041,
				5,
				0.4639910161495209
			],
			"translation":[
				-53.37812042236328,
				-0.09415866434574127,
				52.607112884521484
			]
		},
		{
			"mesh":3,
			"name":"Big_Banner_Screen",
			"rotation":[
				0,
				0.36940306425094604,
				0,
				0.9292692542076111
			],
			"scale":[
				0.004999999888241291,
				4.999999523162842,
				9.999999046325684
			],
			"translation":[
				-52.816070556640625,
				15.77233600616455,
				52.07638931274414
			]
		},
		{
			"mesh":4,
			"name":"West Roof",
			"translation":[
				-41.58283233642578,
				8.458757400512695,
				0
			]
		},
		{
			"mesh":5,
			"name":"East Roof",
			"rotation":[
				0,
				0.7071068286895752,
				0,
				0.7071068286895752
			],
			"translation":[
				19.589996337890625,
				8.458757400512695,
				21.51927947998047
			]
		},
		{
			"mesh":6,
			"name":"Roof Wall",
			"translation":[
				0,
				8.916666984558105,
				0
			]
		},
		{
			"mesh":7,
			"name":"Flat Roof",
			"translation":[
				0,
				11.021001815795898,
				0
			]
		},
		{
			"mesh":8,
			"name":"Roof Border",
			"translation":[
				-2.0388870239257812,
				5.75,
				11.577778816223145
			]
		},
		{
			"mesh":9,
			"name":"Door Frame_03_Right",
			"translation":[
				20.962528228759766,
				0,
				43.61530303955078
			]
		},
		{
			"mesh":10,
			"name":"Door Glass_03_Right",
			"translation":[
				6.294696807861328,
				0,
				30.509618759155273
			]
		},
		{
			"mesh":11,
			"name":"Ground",
			"translation":[
				-29.8699951171875,
				0,
				29.479999542236328
			]
		},
		{
			"mesh":12,
			"name":"Glass Door",
			"translation":[
				0,
				3.375,
				14.164320945739746
			]
		},
		{
			"mesh":13,
			"name":"Glass Door Top",
			"translation":[
				0,
				7.875,
				14.164319038391113
			]
		},
		{
			"mesh":14,
			"name":"Door Frame_05_Left",
			"translation":[
				0,
				0,
				14.1881685256958
			]
		},
		{
			"mesh":15,
			"name":"Main Wall",
			"translation":[
				-29.8699951171875,
				0,
				29.479999542236328
			]
		},
		{
			"mesh":16,
			"name":"Door Frame_08_Left",
			"translation":[
				-63.984310150146484,
				0,
				1.3824089765548706
			]
		},
		{
			"mesh":17,
			"name":"Door Frame_10_Left",
			"rotation":[
				0,
				0.7071067094802856,
				0,
				0.7071068286895752
			],
			"translation":[
				-57.04072952270508,
				0,
				13.295501708984375
			]
		},
		{
			"mesh":18,
			"name":"Door Frame_12_Left",
			"rotation":[
				0,
				0.7071067094802856,
				0,
				0.7071068286895752
			],
			"translation":[
				-15.392632484436035,
				0,
				13.286979675292969
			]
		},
		{
			"mesh":19,
			"name":"Door Frame_03_Left",
			"translation":[
				19.105674743652344,
				0,
				43.61530303955078
			]
		},
		{
			"mesh":20,
			"name":"Door Glass_03_Left",
			"translation":[
				6.294696807861328,
				0,
				28.538860321044922
			]
		},
		{
			"mesh":21,
			"name":"Door Frame_05_Right",
			"translation":[
				0,
				0,
				14.1881685256958
			]
		},
		{
			"mesh":22,
			"name":"Door Frame_12_Right",
			"rotation":[
				0,
				0.7071067094802856,
				0,
				0.7071068286895752
			],
			"translation":[
				-13.14703369140625,
				0,
				13.286979675292969
			]
		},
		{
			"mesh":23,
			"name":"Door Frame_10_Right",
			"rotation":[
				0,
				0.7071067094802856,
				0,
				0.7071068286895752
			],
			"translation":[
				-55.06044006347656,
				0,
				13.295501708984375
			]
		},
		{
			"mesh":24,
			"name":"Door Frame_08_Right",
			"translation":[
				-63.984310150146484,
				0,
				-0.9062407612800598
			]
		}
	],
	"materials":[
		{
			"doubleSided":true,
			"extensions":{
				"KHR_materials_specular":{
					"specularFactor":0
				}
			},
			"name":"Lamp",
			"pbrMetallicRoughness":{
				"baseColorFactor":[
					0.5879999995231628,
					0.5879999995231628,
					0.5879999995231628,
					1
				],
				"roughnessFactor":0.858578622341156
			}
		},
		{
			"doubleSided":true,
			"name":"Banner_Frame",
			"pbrMetallicRoughness":{
				"baseColorFactor":[
					0,
					0,
					0,
					1
				],
				"metallicFactor":0,
				"roughnessFactor":0.4000000059604645
			}
		},
		{
			"doubleSided":true,
			"name":"Big_Banner",
			"pbrMetallicRoughness":{
				"baseColorTexture":{
					"index":0
				},
				"metallicFactor":0,
				"roughnessFactor":0.5
			}
		},
		{
			"doubleSided":true,
			"name":"Roof",
			"normalTexture":{
				"extensions":{
					"KHR_texture_transform":{
						"offset":[
							-9.99999999999999,
							1.0000004371139
						],
						"rotation":1.5707963705062866,
						"scale":[
							10,
							10
						]
					}
				},
				"index":1
			},
			"pbrMetallicRoughness":{
				"baseColorTexture":{
					"extensions":{
						"KHR_texture_transform":{
							"offset":[
								-9.99999999999999,
								1.0000004371139
							],
							"rotation":1.5707963705062866,
							"scale":[
								10,
								10
							]
						}
					},
					"index":2
				},
				"metallicFactor":0,
				"metallicRoughnessTexture":{
					"extensions":{
						"KHR_texture_transform":{
							"offset":[
								-9.99999999999999,
								1.0000004371139
							],
							"rotation":1.5707963705062866,
							"scale":[
								10,
								10
							]
						}
					},
					"index":3
				}
			}
		},
		{
			"doubleSided":true,
			"name":"Roof Wall",
			"normalTexture":{
				"extensions":{
					"KHR_texture_transform":{
						"offset":[
							0,
							-2
						],
						"scale":[
							5,
							3
						]
					}
				},
				"index":4
			},
			"pbrMetallicRoughness":{
				"baseColorTexture":{
					"extensions":{
						"KHR_texture_transform":{
							"offset":[
								0,
								-2
							],
							"scale":[
								5,
								3
							]
						}
					},
					"index":5
				},
				"metallicFactor":0,
				"metallicRoughnessTexture":{
					"extensions":{
						"KHR_texture_transform":{
							"offset":[
								0,
								-2
							],
							"scale":[
								5,
								3
							]
						}
					},
					"index":6
				}
			}
		},
		{
			"doubleSided":true,
			"name":"Door Frame",
			"pbrMetallicRoughness":{
				"baseColorFactor":[
					0.01631178893148899,
					0.01631178893148899,
					0.01631178893148899,
					1
				],
				"metallicFactor":0,
				"roughnessFactor":0.05678302049636841
			}
		},
		{
			"doubleSided":true,
			"name":"Roof Border",
			"pbrMetallicRoughness":{
				"roughnessFactor":0.5
			}
		},
		{
			"doubleSided":true,
			"extensions":{
				"KHR_materials_transmission":{
					"transmissionFactor":1
				},
				"KHR_materials_ior":{
					"ior":1.100000023841858
				}
			},
			"name":"Glass Door",
			"pbrMetallicRoughness":{
				"metallicFactor":0,
				"roughnessFactor":0
			}
		},
		{
			"doubleSided":true,
			"name":"Floor",
			"normalTexture":{
				"extensions":{
					"KHR_texture_transform":{
						"offset":[
							0,
							-6
						],
						"scale":[
							7,
							7
						]
					}
				},
				"index":7,
				"scale":0.5
			},
			"pbrMetallicRoughness":{
				"baseColorTexture":{
					"extensions":{
						"KHR_texture_transform":{
							"offset":[
								0,
								-6
							],
							"scale":[
								7,
								7
							]
						}
					},
					"index":8
				},
				"metallicFactor":0,
				"metallicRoughnessTexture":{
					"extensions":{
						"KHR_texture_transform":{
							"offset":[
								0,
								-6
							],
							"scale":[
								7,
								7
							]
						}
					},
					"index":9
				}
			}
		},
		{
			"doubleSided":true,
			"extensions":{
				"KHR_materials_transmission":{
					"transmissionFactor":1
				},
				"KHR_materials_ior":{
					"ior":1.100000023841858
				}
			},
			"name":"Glass Wall",
			"pbrMetallicRoughness":{
				"baseColorFactor":[
					0.34742823243141174,
					0.34742823243141174,
					0.34742823243141174,
					1
				],
				"metallicFactor":0,
				"roughnessFactor":0
			}
		},
		{
			"doubleSided":true,
			"name":"Wall",
			"normalTexture":{
				"extensions":{
					"KHR_texture_transform":{
						"offset":[
							0,
							-2
						],
						"scale":[
							5,
							3
						]
					}
				},
				"index":10
			},
			"pbrMetallicRoughness":{
				"baseColorTexture":{
					"extensions":{
						"KHR_texture_transform":{
							"offset":[
								0,
								-2
							],
							"scale":[
								5,
								3
							]
						}
					},
					"index":11
				},
				"metallicFactor":0,
				"metallicRoughnessTexture":{
					"extensions":{
						"KHR_texture_transform":{
							"offset":[
								0,
								-2
							],
							"scale":[
								5,
								3
							]
						}
					},
					"index":12
				}
			}
		}
	],
	"meshes":[
		{
			"name":"Lamp",
			"primitives":[
				{
					"attributes":{
						"POSITION":0,
						"NORMAL":1,
						"TEXCOORD_0":2
					},
					"indices":3,
					"material":0
				}
			]
		},
		{
			"name":"Big_Banner_Frame",
			"primitives":[
				{
					"attributes":{
						"POSITION":4,
						"NORMAL":5,
						"TEXCOORD_0":6
					},
					"indices":7,
					"material":1
				}
			]
		},
		{
			"name":"Big_Banner_Pile",
			"primitives":[
				{
					"attributes":{
						"POSITION":8,
						"NORMAL":9,
						"TEXCOORD_0":10
					},
					"indices":11,
					"material":1
				}
			]
		},
		{
			"name":"Big_Banner_Screen",
			"primitives":[
				{
					"attributes":{
						"POSITION":12,
						"NORMAL":13,
						"TEXCOORD_0":14
					},
					"indices":15,
					"material":2
				}
			]
		},
		{
			"name":"West Roof",
			"primitives":[
				{
					"attributes":{
						"POSITION":16,
						"NORMAL":17,
						"TEXCOORD_0":18
					},
					"indices":19,
					"material":3
				}
			]
		},
		{
			"name":"East Roof",
			"primitives":[
				{
					"attributes":{
						"POSITION":20,
						"NORMAL":21,
						"TEXCOORD_0":22
					},
					"indices":23,
					"material":3
				}
			]
		},
		{
			"name":"Roof Wall",
			"primitives":[
				{
					"attributes":{
						"POSITION":24,
						"NORMAL":25,
						"TEXCOORD_0":26
					},
					"indices":27,
					"material":4
				}
			]
		},
		{
			"name":"Flat Roof",
			"primitives":[
				{
					"attributes":{
						"POSITION":28,
						"NORMAL":29,
						"TEXCOORD_0":30
					},
					"indices":31,
					"material":5
				}
			]
		},
		{
			"name":"Roof Border",
			"primitives":[
				{
					"attributes":{
						"POSITION":32,
						"NORMAL":33,
						"TEXCOORD_0":34
					},
					"indices":35,
					"material":6
				}
			]
		},
		{
			"name":"Door Frame_03_Right",
			"primitives":[
				{
					"attributes":{
						"POSITION":36,
						"NORMAL":37,
						"TEXCOORD_0":38
					},
					"indices":39,
					"material":5
				},
				{
					"attributes":{
						"POSITION":40,
						"NORMAL":41,
						"TEXCOORD_0":42
					},
					"indices":43,
					"material":7
				}
			]
		},
		{
			"name":"Door Glass_03_Right",
			"primitives":[
				{
					"attributes":{
						"POSITION":44,
						"NORMAL":45,
						"TEXCOORD_0":46
					},
					"indices":47,
					"material":7
				},
				{
					"attributes":{
						"POSITION":48,
						"NORMAL":49,
						"TEXCOORD_0":50
					},
					"indices":51,
					"material":5
				}
			]
		},
		{
			"name":"Ground",
			"primitives":[
				{
					"attributes":{
						"POSITION":52,
						"NORMAL":53,
						"TEXCOORD_0":54
					},
					"indices":55,
					"material":8
				}
			]
		},
		{
			"name":"Glass Door",
			"primitives":[
				{
					"attributes":{
						"POSITION":56,
						"NORMAL":57,
						"TEXCOORD_0":58
					},
					"indices":59,
					"material":9
				}
			]
		},
		{
			"name":"Glass Door Top",
			"primitives":[
				{
					"attributes":{
						"POSITION":60,
						"NORMAL":61,
						"TEXCOORD_0":62
					},
					"indices":43,
					"material":9
				}
			]
		},
		{
			"name":"Door Frame_05_Left",
			"primitives":[
				{
					"attributes":{
						"POSITION":63,
						"NORMAL":64,
						"TEXCOORD_0":65
					},
					"indices":66,
					"material":5
				},
				{
					"attributes":{
						"POSITION":67,
						"NORMAL":68,
						"TEXCOORD_0":69
					},
					"indices":70,
					"material":7
				}
			]
		},
		{
			"name":"Main Wall",
			"primitives":[
				{
					"attributes":{
						"POSITION":71,
						"NORMAL":72,
						"TEXCOORD_0":73
					},
					"indices":74,
					"material":10
				}
			]
		},
		{
			"name":"Door Frame_08",
			"primitives":[
				{
					"attributes":{
						"POSITION":75,
						"NORMAL":76,
						"TEXCOORD_0":77
					},
					"indices":51,
					"material":5
				},
				{
					"attributes":{
						"POSITION":78,
						"NORMAL":79,
						"TEXCOORD_0":80
					},
					"indices":47,
					"material":7
				}
			]
		},
		{
			"name":"Door Frame_10",
			"primitives":[
				{
					"attributes":{
						"POSITION":81,
						"NORMAL":82,
						"TEXCOORD_0":83
					},
					"indices":84,
					"material":5
				},
				{
					"attributes":{
						"POSITION":85,
						"NORMAL":86,
						"TEXCOORD_0":87
					},
					"indices":88,
					"material":7
				}
			]
		},
		{
			"name":"Door Frame_12_Left",
			"primitives":[
				{
					"attributes":{
						"POSITION":89,
						"NORMAL":90,
						"TEXCOORD_0":91
					},
					"indices":84,
					"material":5
				},
				{
					"attributes":{
						"POSITION":92,
						"NORMAL":93,
						"TEXCOORD_0":94
					},
					"indices":88,
					"material":7
				}
			]
		},
		{
			"name":"Door Frame_03_Left",
			"primitives":[
				{
					"attributes":{
						"POSITION":95,
						"NORMAL":96,
						"TEXCOORD_0":97
					},
					"indices":98,
					"material":5
				},
				{
					"attributes":{
						"POSITION":99,
						"NORMAL":100,
						"TEXCOORD_0":101
					},
					"indices":102,
					"material":7
				}
			]
		},
		{
			"name":"Door Glass_03_Left",
			"primitives":[
				{
					"attributes":{
						"POSITION":103,
						"NORMAL":104,
						"TEXCOORD_0":105
					},
					"indices":88,
					"material":7
				},
				{
					"attributes":{
						"POSITION":106,
						"NORMAL":107,
						"TEXCOORD_0":108
					},
					"indices":84,
					"material":5
				}
			]
		},
		{
			"name":"Door Frame_05_Right",
			"primitives":[
				{
					"attributes":{
						"POSITION":109,
						"NORMAL":110,
						"TEXCOORD_0":111
					},
					"indices":112,
					"material":5
				},
				{
					"attributes":{
						"POSITION":113,
						"NORMAL":114,
						"TEXCOORD_0":115
					},
					"indices":70,
					"material":7
				}
			]
		},
		{
			"name":"Door Frame_12_Right",
			"primitives":[
				{
					"attributes":{
						"POSITION":116,
						"NORMAL":117,
						"TEXCOORD_0":118
					},
					"indices":51,
					"material":5
				},
				{
					"attributes":{
						"POSITION":119,
						"NORMAL":120,
						"TEXCOORD_0":121
					},
					"indices":47,
					"material":7
				}
			]
		},
		{
			"name":"Door Frame_10.001",
			"primitives":[
				{
					"attributes":{
						"POSITION":122,
						"NORMAL":123,
						"TEXCOORD_0":124
					},
					"indices":51,
					"material":5
				},
				{
					"attributes":{
						"POSITION":125,
						"NORMAL":126,
						"TEXCOORD_0":127
					},
					"indices":47,
					"material":7
				}
			]
		},
		{
			"name":"Door Frame_08.001",
			"primitives":[
				{
					"attributes":{
						"POSITION":128,
						"NORMAL":129,
						"TEXCOORD_0":130
					},
					"indices":84,
					"material":5
				},
				{
					"attributes":{
						"POSITION":131,
						"NORMAL":132,
						"TEXCOORD_0":133
					},
					"indices":88,
					"material":7
				}
			]
		}
	],
	"textures":[
		{
			"sampler":0,
			"source":0
		},
		{
			"sampler":0,
			"source":1
		},
		{
			"sampler":0,
			"source":2
		},
		{
			"sampler":0,
			"source":3
		},
		{
			"sampler":0,
			"source":4
		},
		{
			"sampler":0,
			"source":5
		},
		{
			"sampler":0,
			"source":6
		},
		{
			"sampler":0,
			"source":7
		},
		{
			"sampler":0,
			"source":8
		},
		{
			"sampler":0,
			"source":9
		},
		{
			"sampler":0,
			"source":10
		},
		{
			"sampler":0,
			"source":11
		},
		{
			"sampler":0,
			"source":12
		}
	],
	"images":[
		{
			"mimeType":"image/jpeg",
			"name":"baelm",
			"uri":"baelm.jpg"
		},
		{
			"mimeType":"image/jpeg",
			"name":"CorrugatedSteel008A_2K_NormalGL",
			"uri":"CorrugatedSteel008A_2K_NormalGL.jpg"
		},
		{
			"mimeType":"image/jpeg",
			"name":"CorrugatedSteel008A_2K_Color",
			"uri":"CorrugatedSteel008A_2K_Color.jpg"
		},
		{
			"mimeType":"image/png",
			"name":"CorrugatedSteel008A_2K_Roughness",
			"uri":"CorrugatedSteel008A_2K_Roughness.png"
		},
		{
			"mimeType":"image/jpeg",
			"name":"Plaster001_2K_NormalGL",
			"uri":"Plaster001_2K_NormalGL.jpg"
		},
		{
			"mimeType":"image/jpeg",
			"name":"Plaster001_2K_Color",
			"uri":"Plaster001_2K_Color.jpg"
		},
		{
			"mimeType":"image/png",
			"name":"Plaster001_2K_Roughness",
			"uri":"Plaster001_2K_Roughness.png"
		},
		{
			"mimeType":"image/jpeg",
			"name":"Tiles107_4K_NormalGL",
			"uri":"Tiles107_4K_NormalGL.jpg"
		},
		{
			"mimeType":"image/jpeg",
			"name":"Tiles107_4K_AmbientOcclusion",
			"uri":"Tiles107_4K_AmbientOcclusion.jpg"
		},
		{
			"mimeType":"image/png",
			"name":"Tiles107_4K_Roughness",
			"uri":"Tiles107_4K_Roughness.png"
		},
		{
			"mimeType":"image/jpeg",
			"name":"Plaster001_2K_NormalGL",
			"uri":"Plaster001_2K_NormalGL-1.jpg"
		},
		{
			"mimeType":"image/jpeg",
			"name":"Plaster001_2K_Color",
			"uri":"Plaster001_2K_Color-1.jpg"
		},
		{
			"mimeType":"image/png",
			"name":"Plaster001_2K_Roughness",
			"uri":"Plaster001_2K_Roughness-1.png"
		}
	],
	"accessors":[
		{
			"bufferView":0,
			"componentType":5126,
			"count":2205,
			"max":[
				5625.1630859375,
				670.7509155273438,
				5633.75634765625
			],
			"min":[
				-5620.78466796875,
				3.0517578125e-05,
				-5637.17138671875
			],
			"type":"VEC3"
		},
		{
			"bufferView":1,
			"componentType":5126,
			"count":2205,
			"type":"VEC3"
		},
		{
			"bufferView":2,
			"componentType":5126,
			"count":2205,
			"type":"VEC2"
		},
		{
			"bufferView":3,
			"componentType":5123,
			"count":7920,
			"type":"SCALAR"
		},
		{
			"bufferView":4,
			"componentType":5126,
			"count":162,
			"max":[
				1,
				1.0712882280349731,
				1.0292636156082153
			],
			"min":[
				-3.261047124862671,
				-1.0641355514526367,
				-1.0297307968139648
			],
			"type":"VEC3"
		},
		{
			"bufferView":5,
			"componentType":5126,
			"count":162,
			"type":"VEC3"
		},
		{
			"bufferView":6,
			"componentType":5126,
			"count":162,
			"type":"VEC2"
		},
		{
			"bufferView":7,
			"componentType":5123,
			"count":318,
			"type":"SCALAR"
		},
		{
			"bufferView":8,
			"componentType":5126,
			"count":54,
			"max":[
				0.9848077297210693,
				2,
				0.9396926164627075
			],
			"min":[
				-0.9848077297210693,
				-5.960464477539063e-08,
				-1
			],
			"type":"VEC3"
		},
		{
			"bufferView":9,
			"componentType":5126,
			"count":54,
			"type":"VEC3"
		},
		{
			"bufferView":10,
			"componentType":5126,
			"count":54,
			"type":"VEC2"
		},
		{
			"bufferView":11,
			"componentType":5123,
			"count":96,
			"type":"SCALAR"
		},
		{
			"bufferView":12,
			"componentType":5126,
			"count":24,
			"max":[
				1,
				1,
				1
			],
			"min":[
				-1,
				-1,
				-1
			],
			"type":"VEC3"
		},
		{
			"bufferView":13,
			"componentType":5126,
			"count":24,
			"type":"VEC3"
		},
		{
			"bufferView":14,
			"componentType":5126,
			"count":24,
			"type":"VEC2"
		},
		{
			"bufferView":15,
			"componentType":5123,
			"count":36,
			"type":"SCALAR"
		},
		{
			"bufferView":16,
			"componentType":5126,
			"count":274,
			"max":[
				36.312835693359375,
				1.5412425994873047,
				14.319998741149902
			],
			"min":[
				-23.722108840942383,
				-1.9587574005126953,
				-14.320000648498535
			],
			"type":"VEC3"
		},
		{
			"bufferView":17,
			"componentType":5126,
			"count":274,
			"type":"VEC3"
		},
		{
			"bufferView":18,
			"componentType":5126,
			"count":274,
			"type":"VEC2"
		},
		{
			"bufferView":19,
			"componentType":5123,
			"count":1149,
			"type":"SCALAR"
		},
		{
			"bufferView":20,
			"componentType":5126,
			"count":289,
			"max":[
				35.83927917480469,
				1.5412425994873047,
				14.320005416870117
			],
			"min":[
				-23.415660858154297,
				-1.9587574005126953,
				-14.31999397277832
			],
			"type":"VEC3"
		},
		{
			"bufferView":21,
			"componentType":5126,
			"count":289,
			"type":"VEC3"
		},
		{
			"bufferView":22,
			"componentType":5126,
			"count":289,
			"type":"VEC2"
		},
		{
			"bufferView":23,
			"componentType":5123,
			"count":1188,
			"type":"SCALAR"
		},
		{
			"bufferView":24,
			"componentType":5126,
			"count":36,
			"max":[
				5.269999980926514,
				2.0833330154418945,
				14.319999694824219
			],
			"min":[
				-5.269999980926514,
				-2.4166669845581055,
				-14.319999694824219
			],
			"type":"VEC3"
		},
		{
			"bufferView":25,
			"componentType":5126,
			"count":36,
			"type":"VEC3"
		},
		{
			"bufferView":26,
			"componentType":5126,
			"count":36,
			"type":"VEC2"
		},
		{
			"bufferView":27,
			"componentType":5123,
			"count":90,
			"type":"SCALAR"
		},
		{
			"bufferView":28,
			"componentType":5126,
			"count":8,
			"max":[
				5.270000457763672,
				-9.5367431640625e-07,
				14.319999694824219
			],
			"min":[
				-5.270000457763672,
				-9.5367431640625e-07,
				-14.319999694824219
			],
			"type":"VEC3"
		},
		{
			"bufferView":29,
			"componentType":5126,
			"count":8,
			"type":"VEC3"
		},
		{
			"bufferView":30,
			"componentType":5126,
			"count":8,
			"type":"VEC2"
		},
		{
			"bufferView":31,
			"componentType":5123,
			"count":18,
			"type":"SCALAR"
		},
		{
			"bufferView":32,
			"componentType":5126,
			"count":96,
			"max":[
				37.148887634277344,
				0.75,
				34.26222229003906
			],
			"min":[
				-64.17111206054688,
				-0.75,
				-27.0977783203125
			],
			"type":"VEC3"
		},
		{
			"bufferView":33,
			"componentType":5126,
			"count":96,
			"type":"VEC3"
		},
		{
			"bufferView":34,
			"componentType":5126,
			"count":96,
			"type":"VEC2"
		},
		{
			"bufferView":35,
			"componentType":5123,
			"count":198,
			"type":"SCALAR"
		},
		{
			"bufferView":36,
			"componentType":5126,
			"count":48,
			"max":[
				1.5,
				2.5,
				0.02469635009765625
			],
			"min":[
				0.0010395050048828125,
				0,
				-0.024688720703125
			],
			"type":"VEC3"
		},
		{
			"bufferView":37,
			"componentType":5126,
			"count":48,
			"type":"VEC3"
		},
		{
			"bufferView":38,
			"componentType":5126,
			"count":48,
			"type":"VEC2"
		},
		{
			"bufferView":39,
			"componentType":5123,
			"count":96,
			"type":"SCALAR"
		},
		{
			"bufferView":40,
			"componentType":5126,
			"count":4,
			"max":[
				1.3878440856933594,
				2.387843370437622,
				-0.024688720703125
			],
			"min":[
				0.11319541931152344,
				0.11215658485889435,
				-0.024688720703125
			],
			"type":"VEC3"
		},
		{
			"bufferView":41,
			"componentType":5126,
			"count":4,
			"type":"VEC3"
		},
		{
			"bufferView":42,
			"componentType":5126,
			"count":4,
			"type":"VEC2"
		},
		{
			"bufferView":43,
			"componentType":5123,
			"count":6,
			"type":"SCALAR"
		},
		{
			"bufferView":44,
			"componentType":5126,
			"count":4,
			"max":[
				0.024692535400390625,
				2.387843370437622,
				1.3878440856933594
			],
			"min":[
				0.024692535400390625,
				0.11215658485889435,
				0.11311149597167969
			],
			"type":"VEC3"
		},
		{
			"bufferView":45,
			"componentType":5126,
			"count":4,
			"type":"VEC3"
		},
		{
			"bufferView":46,
			"componentType":5126,
			"count":4,
			"type":"VEC2"
		},
		{
			"bufferView":47,
			"componentType":5123,
			"count":6,
			"type":"SCALAR"
		},
		{
			"bufferView":48,
			"componentType":5126,
			"count":52,
			"max":[
				0.024692535400390625,
				2.5,
				1.5
			],
			"min":[
				-0.024692535400390625,
				0,
				0.0009555816650390625
			],
			"type":"VEC3"
		},
		{
			"bufferView":49,
			"componentType":5126,
			"count":52,
			"type":"VEC3"
		},
		{
			"bufferView":50,
			"componentType":5126,
			"count":52,
			"type":"VEC2"
		},
		{
			"bufferView":51,
			"componentType":5123,
			"count":102,
			"type":"SCALAR"
		},
		{
			"bufferView":52,
			"componentType":5126,
			"count":40,
			"max":[
				63.779998779296875,
				0.013458007015287876,
				15.15999984741211
			],
			"min":[
				-35.14000701904297,
				0,
				-43.79999923706055
			],
			"type":"VEC3"
		},
		{
			"bufferView":53,
			"componentType":5126,
			"count":40,
			"type":"VEC3"
		},
		{
			"bufferView":54,
			"componentType":5126,
			"count":40,
			"type":"VEC2"
		},
		{
			"bufferView":55,
			"componentType":5123,
			"count":84,
			"type":"SCALAR"
		},
		{
			"bufferView":56,
			"componentType":5126,
			"count":18,
			"max":[
				4.069999694824219,
				3.125,
				-1.9073486328125e-06
			],
			"min":[
				-4.069999694824219,
				-3.375,
				-1.9073486328125e-06
			],
			"type":"VEC3"
		},
		{
			"bufferView":57,
			"componentType":5126,
			"count":18,
			"type":"VEC3"
		},
		{
			"bufferView":58,
			"componentType":5126,
			"count":18,
			"type":"VEC2"
		},
		{
			"bufferView":59,
			"componentType":5123,
			"count":42,
			"type":"SCALAR"
		},
		{
			"bufferView":60,
			"componentType":5126,
			"count":4,
			"max":[
				4.069999694824219,
				1.375,
				0
			],
			"min":[
				-4.069999694824219,
				-1.375,
				0
			],
			"type":"VEC3"
		},
		{
			"bufferView":61,
			"componentType":5126,
			"count":4,
			"type":"VEC3"
		},
		{
			"bufferView":62,
			"componentType":5126,
			"count":4,
			"type":"VEC2"
		},
		{
			"bufferView":63,
			"componentType":5126,
			"count":48,
			"max":[
				-0.0006716214120388031,
				2.5,
				0.0238494873046875
			],
			"min":[
				-1.5,
				0,
				-0.0238494873046875
			],
			"type":"VEC3"
		},
		{
			"bufferView":64,
			"componentType":5126,
			"count":48,
			"type":"VEC3"
		},
		{
			"bufferView":65,
			"componentType":5126,
			"count":48,
			"type":"VEC2"
		},
		{
			"bufferView":66,
			"componentType":5123,
			"count":96,
			"type":"SCALAR"
		},
		{
			"bufferView":67,
			"componentType":5126,
			"count":4,
			"max":[
				-0.0820467472076416,
				2.418623208999634,
				-0.0238494873046875
			],
			"min":[
				-1.4186248779296875,
				0.081376813352108,
				-0.0238494873046875
			],
			"type":"VEC3"
		},
		{
			"bufferView":68,
			"componentType":5126,
			"count":4,
			"type":"VEC3"
		},
		{
			"bufferView":69,
			"componentType":5126,
			"count":4,
			"type":"VEC2"
		},
		{
			"bufferView":70,
			"componentType":5123,
			"count":6,
			"type":"SCALAR"
		},
		{
			"bufferView":71,
			"componentType":5126,
			"count":718,
			"max":[
				63.779998779296875,
				6.5,
				15.15999984741211
			],
			"min":[
				-35.1400032043457,
				0,
				-43.79999923706055
			],
			"type":"VEC3"
		},
		{
			"bufferView":72,
			"componentType":5126,
			"count":718,
			"type":"VEC3"
		},
		{
			"bufferView":73,
			"componentType":5126,
			"count":718,
			"type":"VEC2"
		},
		{
			"bufferView":74,
			"componentType":5123,
			"count":2106,
			"type":"SCALAR"
		},
		{
			"bufferView":75,
			"componentType":5126,
			"count":52,
			"max":[
				0.02469635009765625,
				2.5,
				1.5
			],
			"min":[
				-0.024688720703125,
				0,
				0.0015927627682685852
			],
			"type":"VEC3"
		},
		{
			"bufferView":76,
			"componentType":5126,
			"count":52,
			"type":"VEC3"
		},
		{
			"bufferView":77,
			"componentType":5126,
			"count":52,
			"type":"VEC2"
		},
		{
			"bufferView":78,
			"componentType":5126,
			"count":4,
			"max":[
				0.02469635009765625,
				2.387843370437622,
				1.3878440856933594
			],
			"min":[
				0.02469635009765625,
				0.11215662956237793,
				0.11374867707490921
			],
			"type":"VEC3"
		},
		{
			"bufferView":79,
			"componentType":5126,
			"count":4,
			"type":"VEC3"
		},
		{
			"bufferView":80,
			"componentType":5126,
			"count":4,
			"type":"VEC2"
		},
		{
			"bufferView":81,
			"componentType":5126,
			"count":48,
			"max":[
				0.024688757956027985,
				2.5,
				-0.00090789794921875
			],
			"min":[
				-0.02469635009765625,
				0,
				-1.4999885559082031
			],
			"type":"VEC3"
		},
		{
			"bufferView":82,
			"componentType":5126,
			"count":48,
			"type":"VEC3"
		},
		{
			"bufferView":83,
			"componentType":5126,
			"count":48,
			"type":"VEC2"
		},
		{
			"bufferView":84,
			"componentType":5123,
			"count":96,
			"type":"SCALAR"
		},
		{
			"bufferView":85,
			"componentType":5126,
			"count":4,
			"max":[
				0.024685071781277657,
				2.387843370437622,
				-0.11305999755859375
			],
			"min":[
				0.02468501590192318,
				0.11215658485889435,
				-1.3878288269042969
			],
			"type":"VEC3"
		},
		{
			"bufferView":86,
			"componentType":5126,
			"count":4,
			"type":"VEC3"
		},
		{
			"bufferView":87,
			"componentType":5126,
			"count":4,
			"type":"VEC2"
		},
		{
			"bufferView":88,
			"componentType":5123,
			"count":6,
			"type":"SCALAR"
		},
		{
			"bufferView":89,
			"componentType":5126,
			"count":48,
			"max":[
				0.024688757956027985,
				2.5,
				-0.0007486343383789062
			],
			"min":[
				-0.02469635009765625,
				0,
				-1.4999961853027344
			],
			"type":"VEC3"
		},
		{
			"bufferView":90,
			"componentType":5126,
			"count":48,
			"type":"VEC3"
		},
		{
			"bufferView":91,
			"componentType":5126,
			"count":48,
			"type":"VEC2"
		},
		{
			"bufferView":92,
			"componentType":5126,
			"count":4,
			"max":[
				0.024688757956027985,
				2.387843370437622,
				-0.11290454864501953
			],
			"min":[
				0.024688720703125,
				0.11215658485889435,
				-1.3878402709960938
			],
			"type":"VEC3"
		},
		{
			"bufferView":93,
			"componentType":5126,
			"count":4,
			"type":"VEC3"
		},
		{
			"bufferView":94,
			"componentType":5126,
			"count":4,
			"type":"VEC2"
		},
		{
			"bufferView":95,
			"componentType":5126,
			"count":48,
			"max":[
				-0.0005664825439453125,
				2.5,
				0.02469635009765625
			],
			"min":[
				-1.5,
				0,
				-0.024688720703125
			],
			"type":"VEC3"
		},
		{
			"bufferView":96,
			"componentType":5126,
			"count":48,
			"type":"VEC3"
		},
		{
			"bufferView":97,
			"componentType":5126,
			"count":48,
			"type":"VEC2"
		},
		{
			"bufferView":98,
			"componentType":5123,
			"count":96,
			"type":"SCALAR"
		},
		{
			"bufferView":99,
			"componentType":5126,
			"count":4,
			"max":[
				-0.11272239685058594,
				2.387843370437622,
				-0.024688720703125
			],
			"min":[
				-1.3878440856933594,
				0.11215658485889435,
				-0.024688720703125
			],
			"type":"VEC3"
		},
		{
			"bufferView":100,
			"componentType":5126,
			"count":4,
			"type":"VEC3"
		},
		{
			"bufferView":101,
			"componentType":5126,
			"count":4,
			"type":"VEC2"
		},
		{
			"bufferView":102,
			"componentType":5123,
			"count":6,
			"type":"SCALAR"
		},
		{
			"bufferView":103,
			"componentType":5126,
			"count":4,
			"max":[
				0.024692535400390625,
				2.387843370437622,
				-0.1130218505859375
			],
			"min":[
				0.024692535400390625,
				0.11215658485889435,
				-1.3878440856933594
			],
			"type":"VEC3"
		},
		{
			"bufferView":104,
			"componentType":5126,
			"count":4,
			"type":"VEC3"
		},
		{
			"bufferView":105,
			"componentType":5126,
			"count":4,
			"type":"VEC2"
		},
		{
			"bufferView":106,
			"componentType":5126,
			"count":48,
			"max":[
				0.024692535400390625,
				2.5,
				-0.000865936279296875
			],
			"min":[
				-0.024692535400390625,
				0,
				-1.5
			],
			"type":"VEC3"
		},
		{
			"bufferView":107,
			"componentType":5126,
			"count":48,
			"type":"VEC3"
		},
		{
			"bufferView":108,
			"componentType":5126,
			"count":48,
			"type":"VEC2"
		},
		{
			"bufferView":109,
			"componentType":5126,
			"count":48,
			"max":[
				1.5,
				2.5,
				0.0238494873046875
			],
			"min":[
				0.0006014890968799591,
				0,
				-0.0238494873046875
			],
			"type":"VEC3"
		},
		{
			"bufferView":110,
			"componentType":5126,
			"count":48,
			"type":"VEC3"
		},
		{
			"bufferView":111,
			"componentType":5126,
			"count":48,
			"type":"VEC2"
		},
		{
			"bufferView":112,
			"componentType":5123,
			"count":96,
			"type":"SCALAR"
		},
		{
			"bufferView":113,
			"componentType":5126,
			"count":4,
			"max":[
				1.4186248779296875,
				2.418623208999634,
				-0.0238494873046875
			],
			"min":[
				0.08197660744190216,
				0.081376813352108,
				-0.0238494873046875
			],
			"type":"VEC3"
		},
		{
			"bufferView":114,
			"componentType":5126,
			"count":4,
			"type":"VEC3"
		},
		{
			"bufferView":115,
			"componentType":5126,
			"count":4,
			"type":"VEC2"
		},
		{
			"bufferView":116,
			"componentType":5126,
			"count":52,
			"max":[
				0.024688720703125,
				2.5,
				1.5000038146972656
			],
			"min":[
				-0.024696387350559235,
				0,
				0.0006961822509765625
			],
			"type":"VEC3"
		},
		{
			"bufferView":117,
			"componentType":5126,
			"count":52,
			"type":"VEC3"
		},
		{
			"bufferView":118,
			"componentType":5126,
			"count":52,
			"type":"VEC2"
		},
		{
			"bufferView":119,
			"componentType":5126,
			"count":4,
			"max":[
				0.024688720703125,
				2.387843370437622,
				1.387847900390625
			],
			"min":[
				0.024688683450222015,
				0.11215658485889435,
				0.11285209655761719
			],
			"type":"VEC3"
		},
		{
			"bufferView":120,
			"componentType":5126,
			"count":4,
			"type":"VEC3"
		},
		{
			"bufferView":121,
			"componentType":5126,
			"count":4,
			"type":"VEC2"
		},
		{
			"bufferView":122,
			"componentType":5126,
			"count":52,
			"max":[
				0.024688720703125,
				2.5,
				1.5000114440917969
			],
			"min":[
				-0.024696389213204384,
				0,
				0.00104522705078125
			],
			"type":"VEC3"
		},
		{
			"bufferView":123,
			"componentType":5126,
			"count":52,
			"type":"VEC3"
		},
		{
			"bufferView":124,
			"componentType":5126,
			"count":52,
			"type":"VEC2"
		},
		{
			"bufferView":125,
			"componentType":5126,
			"count":4,
			"max":[
				0.02468479424715042,
				2.387843370437622,
				1.3878593444824219
			],
			"min":[
				0.024684740230441093,
				0.11215658485889435,
				0.1132049560546875
			],
			"type":"VEC3"
		},
		{
			"bufferView":126,
			"componentType":5126,
			"count":4,
			"type":"VEC3"
		},
		{
			"bufferView":127,
			"componentType":5126,
			"count":4,
			"type":"VEC2"
		},
		{
			"bufferView":128,
			"componentType":5126,
			"count":48,
			"max":[
				0.02469635009765625,
				2.5,
				-0.0015988871455192566
			],
			"min":[
				-0.024688720703125,
				0,
				-1.5
			],
			"type":"VEC3"
		},
		{
			"bufferView":129,
			"componentType":5126,
			"count":48,
			"type":"VEC3"
		},
		{
			"bufferView":130,
			"componentType":5126,
			"count":48,
			"type":"VEC2"
		},
		{
			"bufferView":131,
			"componentType":5126,
			"count":4,
			"max":[
				0.02469635009765625,
				2.387843370437622,
				-0.11375480145215988
			],
			"min":[
				0.02469635009765625,
				0.11215662956237793,
				-1.3878440856933594
			],
			"type":"VEC3"
		},
		{
			"bufferView":132,
			"componentType":5126,
			"count":4,
			"type":"VEC3"
		},
		{
			"bufferView":133,
			"componentType":5126,
			"count":4,
			"type":"VEC2"
		}
	],
	"bufferViews":[
		{
			"buffer":0,
			"byteLength":26460,
			"byteOffset":0,
			"target":34962
		},
		{
			"buffer":0,
			"byteLength":26460,
			"byteOffset":26460,
			"target":34962
		},
		{
			"buffer":0,
			"byteLength":17640,
			"byteOffset":52920,
			"target":34962
		},
		{
			"buffer":0,
			"byteLength":15840,
			"byteOffset":70560,
			"target":34963
		},
		{
			"buffer":0,
			"byteLength":1944,
			"byteOffset":86400,
			"target":34962
		},
		{
			"buffer":0,
			"byteLength":1944,
			"byteOffset":88344,
			"target":34962
		},
		{
			"buffer":0,
			"byteLength":1296,
			"byteOffset":90288,
			"target":34962
		},
		{
			"buffer":0,
			"byteLength":636,
			"byteOffset":91584,
			"target":34963
		},
		{
			"buffer":0,
			"byteLength":648,
			"byteOffset":92220,
			"target":34962
		},
		{
			"buffer":0,
			"byteLength":648,
			"byteOffset":92868,
			"target":34962
		},
		{
			"buffer":0,
			"byteLength":432,
			"byteOffset":93516,
			"target":34962
		},
		{
			"buffer":0,
			"byteLength":192,
			"byteOffset":93948,
			"target":34963
		},
		{
			"buffer":0,
			"byteLength":288,
			"byteOffset":94140,
			"target":34962
		},
		{
			"buffer":0,
			"byteLength":288,
			"byteOffset":94428,
			"target":34962
		},
		{
			"buffer":0,
			"byteLength":192,
			"byteOffset":94716,
			"target":34962
		},
		{
			"buffer":0,
			"byteLength":72,
			"byteOffset":94908,
			"target":34963
		},
		{
			"buffer":0,
			"byteLength":3288,
			"byteOffset":94980,
			"target":34962
		},
		{
			"buffer":0,
			"byteLength":3288,
			"byteOffset":98268,
			"target":34962
		},
		{
			"buffer":0,
			"byteLength":2192,
			"byteOffset":101556,
			"target":34962
		},
		{
			"buffer":0,
			"byteLength":2298,
			"byteOffset":103748,
			"target":34963
		},
		{
			"buffer":0,
			"byteLength":3468,
			"byteOffset":106048,
			"target":34962
		},
		{
			"buffer":0,
			"byteLength":3468,
			"byteOffset":109516,
			"target":34962
		},
		{
			"buffer":0,
			"byteLength":2312,
			"byteOffset":112984,
			"target":34962
		},
		{
			"buffer":0,
			"byteLength":2376,
			"byteOffset":115296,
			"target":34963
		},
		{
			"buffer":0,
			"byteLength":432,
			"byteOffset":117672,
			"target":34962
		},
		{
			"buffer":0,
			"byteLength":432,
			"byteOffset":118104,
			"target":34962
		},
		{
			"buffer":0,
			"byteLength":288,
			"byteOffset":118536,
			"target":34962
		},
		{
			"buffer":0,
			"byteLength":180,
			"byteOffset":118824,
			"target":34963
		},
		{
			"buffer":0,
			"byteLength":96,
			"byteOffset":119004,
			"target":34962
		},
		{
			"buffer":0,
			"byteLength":96,
			"byteOffset":119100,
			"target":34962
		},
		{
			"buffer":0,
			"byteLength":64,
			"byteOffset":119196,
			"target":34962
		},
		{
			"buffer":0,
			"byteLength":36,
			"byteOffset":119260,
			"target":34963
		},
		{
			"buffer":0,
			"byteLength":1152,
			"byteOffset":119296,
			"target":34962
		},
		{
			"buffer":0,
			"byteLength":1152,
			"byteOffset":120448,
			"target":34962
		},
		{
			"buffer":0,
			"byteLength":768,
			"byteOffset":121600,
			"target":34962
		},
		{
			"buffer":0,
			"byteLength":396,
			"byteOffset":122368,
			"target":34963
		},
		{
			"buffer":0,
			"byteLength":576,
			"byteOffset":122764,
			"target":34962
		},
		{
			"buffer":0,
			"byteLength":576,
			"byteOffset":123340,
			"target":34962
		},
		{
			"buffer":0,
			"byteLength":384,
			"byteOffset":123916,
			"target":34962
		},
		{
			"buffer":0,
			"byteLength":192,
			"byteOffset":124300,
			"target":34963
		},
		{
			"buffer":0,
			"byteLength":48,
			"byteOffset":124492,
			"target":34962
		},
		{
			"buffer":0,
			"byteLength":48,
			"byteOffset":124540,
			"target":34962
		},
		{
			"buffer":0,
			"byteLength":32,
			"byteOffset":124588,
			"target":34962
		},
		{
			"buffer":0,
			"byteLength":12,
			"byteOffset":124620,
			"target":34963
		},
		{
			"buffer":0,
			"byteLength":48,
			"byteOffset":124632,
			"target":34962
		},
		{
			"buffer":0,
			"byteLength":48,
			"byteOffset":124680,
			"target":34962
		},
		{
			"buffer":0,
			"byteLength":32,
			"byteOffset":124728,
			"target":34962
		},
		{
			"buffer":0,
			"byteLength":12,
			"byteOffset":124760,
			"target":34963
		},
		{
			"buffer":0,
			"byteLength":624,
			"byteOffset":124772,
			"target":34962
		},
		{
			"buffer":0,
			"byteLength":624,
			"byteOffset":125396,
			"target":34962
		},
		{
			"buffer":0,
			"byteLength":416,
			"byteOffset":126020,
			"target":34962
		},
		{
			"buffer":0,
			"byteLength":204,
			"byteOffset":126436,
			"target":34963
		},
		{
			"buffer":0,
			"byteLength":480,
			"byteOffset":126640,
			"target":34962
		},
		{
			"buffer":0,
			"byteLength":480,
			"byteOffset":127120,
			"target":34962
		},
		{
			"buffer":0,
			"byteLength":320,
			"byteOffset":127600,
			"target":34962
		},
		{
			"buffer":0,
			"byteLength":168,
			"byteOffset":127920,
			"target":34963
		},
		{
			"buffer":0,
			"byteLength":216,
			"byteOffset":128088,
			"target":34962
		},
		{
			"buffer":0,
			"byteLength":216,
			"byteOffset":128304,
			"target":34962
		},
		{
			"buffer":0,
			"byteLength":144,
			"byteOffset":128520,
			"target":34962
		},
		{
			"buffer":0,
			"byteLength":84,
			"byteOffset":128664,
			"target":34963
		},
		{
			"buffer":0,
			"byteLength":48,
			"byteOffset":128748,
			"target":34962
		},
		{
			"buffer":0,
			"byteLength":48,
			"byteOffset":128796,
			"target":34962
		},
		{
			"buffer":0,
			"byteLength":32,
			"byteOffset":128844,
			"target":34962
		},
		{
			"buffer":0,
			"byteLength":576,
			"byteOffset":128876,
			"target":34962
		},
		{
			"buffer":0,
			"byteLength":576,
			"byteOffset":129452,
			"target":34962
		},
		{
			"buffer":0,
			"byteLength":384,
			"byteOffset":130028,
			"target":34962
		},
		{
			"buffer":0,
			"byteLength":192,
			"byteOffset":130412,
			"target":34963
		},
		{
			"buffer":0,
			"byteLength":48,
			"byteOffset":130604,
			"target":34962
		},
		{
			"buffer":0,
			"byteLength":48,
			"byteOffset":130652,
			"target":34962
		},
		{
			"buffer":0,
			"byteLength":32,
			"byteOffset":130700,
			"target":34962
		},
		{
			"buffer":0,
			"byteLength":12,
			"byteOffset":130732,
			"target":34963
		},
		{
			"buffer":0,
			"byteLength":8616,
			"byteOffset":130744,
			"target":34962
		},
		{
			"buffer":0,
			"byteLength":8616,
			"byteOffset":139360,
			"target":34962
		},
		{
			"buffer":0,
			"byteLength":5744,
			"byteOffset":147976,
			"target":34962
		},
		{
			"buffer":0,
			"byteLength":4212,
			"byteOffset":153720,
			"target":34963
		},
		{
			"buffer":0,
			"byteLength":624,
			"byteOffset":157932,
			"target":34962
		},
		{
			"buffer":0,
			"byteLength":624,
			"byteOffset":158556,
			"target":34962
		},
		{
			"buffer":0,
			"byteLength":416,
			"byteOffset":159180,
			"target":34962
		},
		{
			"buffer":0,
			"byteLength":48,
			"byteOffset":159596,
			"target":34962
		},
		{
			"buffer":0,
			"byteLength":48,
			"byteOffset":159644,
			"target":34962
		},
		{
			"buffer":0,
			"byteLength":32,
			"byteOffset":159692,
			"target":34962
		},
		{
			"buffer":0,
			"byteLength":576,
			"byteOffset":159724,
			"target":34962
		},
		{
			"buffer":0,
			"byteLength":576,
			"byteOffset":160300,
			"target":34962
		},
		{
			"buffer":0,
			"byteLength":384,
			"byteOffset":160876,
			"target":34962
		},
		{
			"buffer":0,
			"byteLength":192,
			"byteOffset":161260,
			"target":34963
		},
		{
			"buffer":0,
			"byteLength":48,
			"byteOffset":161452,
			"target":34962
		},
		{
			"buffer":0,
			"byteLength":48,
			"byteOffset":161500,
			"target":34962
		},
		{
			"buffer":0,
			"byteLength":32,
			"byteOffset":161548,
			"target":34962
		},
		{
			"buffer":0,
			"byteLength":12,
			"byteOffset":161580,
			"target":34963
		},
		{
			"buffer":0,
			"byteLength":576,
			"byteOffset":161592,
			"target":34962
		},
		{
			"buffer":0,
			"byteLength":576,
			"byteOffset":162168,
			"target":34962
		},
		{
			"buffer":0,
			"byteLength":384,
			"byteOffset":162744,
			"target":34962
		},
		{
			"buffer":0,
			"byteLength":48,
			"byteOffset":163128,
			"target":34962
		},
		{
			"buffer":0,
			"byteLength":48,
			"byteOffset":163176,
			"target":34962
		},
		{
			"buffer":0,
			"byteLength":32,
			"byteOffset":163224,
			"target":34962
		},
		{
			"buffer":0,
			"byteLength":576,
			"byteOffset":163256,
			"target":34962
		},
		{
			"buffer":0,
			"byteLength":576,
			"byteOffset":163832,
			"target":34962
		},
		{
			"buffer":0,
			"byteLength":384,
			"byteOffset":164408,
			"target":34962
		},
		{
			"buffer":0,
			"byteLength":192,
			"byteOffset":164792,
			"target":34963
		},
		{
			"buffer":0,
			"byteLength":48,
			"byteOffset":164984,
			"target":34962
		},
		{
			"buffer":0,
			"byteLength":48,
			"byteOffset":165032,
			"target":34962
		},
		{
			"buffer":0,
			"byteLength":32,
			"byteOffset":165080,
			"target":34962
		},
		{
			"buffer":0,
			"byteLength":12,
			"byteOffset":165112,
			"target":34963
		},
		{
			"buffer":0,
			"byteLength":48,
			"byteOffset":165124,
			"target":34962
		},
		{
			"buffer":0,
			"byteLength":48,
			"byteOffset":165172,
			"target":34962
		},
		{
			"buffer":0,
			"byteLength":32,
			"byteOffset":165220,
			"target":34962
		},
		{
			"buffer":0,
			"byteLength":576,
			"byteOffset":165252,
			"target":34962
		},
		{
			"buffer":0,
			"byteLength":576,
			"byteOffset":165828,
			"target":34962
		},
		{
			"buffer":0,
			"byteLength":384,
			"byteOffset":166404,
			"target":34962
		},
		{
			"buffer":0,
			"byteLength":576,
			"byteOffset":166788,
			"target":34962
		},
		{
			"buffer":0,
			"byteLength":576,
			"byteOffset":167364,
			"target":34962
		},
		{
			"buffer":0,
			"byteLength":384,
			"byteOffset":167940,
			"target":34962
		},
		{
			"buffer":0,
			"byteLength":192,
			"byteOffset":168324,
			"target":34963
		},
		{
			"buffer":0,
			"byteLength":48,
			"byteOffset":168516,
			"target":34962
		},
		{
			"buffer":0,
			"byteLength":48,
			"byteOffset":168564,
			"target":34962
		},
		{
			"buffer":0,
			"byteLength":32,
			"byteOffset":168612,
			"target":34962
		},
		{
			"buffer":0,
			"byteLength":624,
			"byteOffset":168644,
			"target":34962
		},
		{
			"buffer":0,
			"byteLength":624,
			"byteOffset":169268,
			"target":34962
		},
		{
			"buffer":0,
			"byteLength":416,
			"byteOffset":169892,
			"target":34962
		},
		{
			"buffer":0,
			"byteLength":48,
			"byteOffset":170308,
			"target":34962
		},
		{
			"buffer":0,
			"byteLength":48,
			"byteOffset":170356,
			"target":34962
		},
		{
			"buffer":0,
			"byteLength":32,
			"byteOffset":170404,
			"target":34962
		},
		{
			"buffer":0,
			"byteLength":624,
			"byteOffset":170436,
			"target":34962
		},
		{
			"buffer":0,
			"byteLength":624,
			"byteOffset":171060,
			"target":34962
		},
		{
			"buffer":0,
			"byteLength":416,
			"byteOffset":171684,
			"target":34962
		},
		{
			"buffer":0,
			"byteLength":48,
			"byteOffset":172100,
			"target":34962
		},
		{
			"buffer":0,
			"byteLength":48,
			"byteOffset":172148,
			"target":34962
		},
		{
			"buffer":0,
			"byteLength":32,
			"byteOffset":172196,
			"target":34962
		},
		{
			"buffer":0,
			"byteLength":576,
			"byteOffset":172228,
			"target":34962
		},
		{
			"buffer":0,
			"byteLength":576,
			"byteOffset":172804,
			"target":34962
		},
		{
			"buffer":0,
			"byteLength":384,
			"byteOffset":173380,
			"target":34962
		},
		{
			"buffer":0,
			"byteLength":48,
			"byteOffset":173764,
			"target":34962
		},
		{
			"buffer":0,
			"byteLength":48,
			"byteOffset":173812,
			"target":34962
		},
		{
			"buffer":0,
			"byteLength":32,
			"byteOffset":173860,
			"target":34962
		}
	],
	"samplers":[
		{
			"magFilter":9729,
			"minFilter":9987
		}
	],
	"buffers":[
		{
			"byteLength":173892,
			"uri":"Namayeshgah.bin"
		}
	]
}
