{
	"asset":{
		"generator":"Khronos glTF Blender I/O v4.5.48",
		"version":"2.0"
	},
	"scene":0,
	"scenes":[
		{
			"name":"Scene",
			"nodes":[
				0
			]
		}
	],
	"nodes":[
		{
			"mesh":0,
			"name":"Plane"
		}
	],
	"materials":[
		{
			"doubleSided":true,
			"name":"Portal_Platform"
		}
	],
	"meshes":[
		{
			"name":"Plane",
			"primitives":[
				{
					"attributes":{
						"POSITION":0,
						"NORMAL":1,
						"TEXCOORD_0":2
					},
					"indices":3,
					"material":0
				}
			]
		}
	],
	"accessors":[
		{
			"bufferView":0,
			"componentType":5126,
			"count":217,
			"max":[
				7,
				2.000000476837158,
				7
			],
			"min":[
				-7,
				-5.284852591103117e-07,
				-7
			],
			"type":"VEC3"
		},
		{
			"bufferView":1,
			"componentType":5126,
			"count":217,
			"type":"VEC3"
		},
		{
			"bufferView":2,
			"componentType":5126,
			"count":217,
			"type":"VEC2"
		},
		{
			"bufferView":3,
			"componentType":5123,
			"count":648,
			"type":"SCALAR"
		}
	],
	"bufferViews":[
		{
			"buffer":0,
			"byteLength":2604,
			"byteOffset":0,
			"target":34962
		},
		{
			"buffer":0,
			"byteLength":2604,
			"byteOffset":2604,
			"target":34962
		},
		{
			"buffer":0,
			"byteLength":1736,
			"byteOffset":5208,
			"target":34962
		},
		{
			"buffer":0,
			"byteLength":1296,
			"byteOffset":6944,
			"target":34963
		}
	],
	"buffers":[
		{
			"byteLength":8240,
			"uri":"Portal_Platform.bin"
		}
	]
}
