{
	"asset":{
		"generator":"Khronos glTF Blender I/O v4.5.48",
		"version":"2.0"
	},
	"extensionsUsed":[
		"KHR_materials_specular"
	],
	"scene":0,
	"scenes":[
		{
			"name":"Scene",
			"nodes":[
				0,
				1,
				2,
				3,
				4,
				5,
				6,
				7,
				8,
				9,
				10,
				11,
				12,
				13,
				14,
				15,
				16,
				17,
				18,
				19,
				20,
				21,
				22
			]
		}
	],
	"nodes":[
		{
			"mesh":0,
			"name":"Platform_Bottom"
		},
		{
			"mesh":1,
			"name":"Floor_1"
		},
		{
			"mesh":2,
			"name":"Big_Plaster_Bottom_1",
			"rotation":[
				0,
				0.7071066498756409,
				0,
				0.70710688829422
			]
		},
		{
			"mesh":3,
			"name":"Platform_Top"
		},
		{
			"mesh":4,
			"name":"Floor_2"
		},
		{
			"mesh":5,
			"name":"Big_Plaster_Bottom_2",
			"rotation":[
				0,
				-1,
				0,
				1.9470718370939721e-07
			]
		},
		{
			"mesh":6,
			"name":"Smal_Plaster_Bottom_1"
		},
		{
			"mesh":7,
			"name":"Smal_Plaster_Bottom_2",
			"rotation":[
				0,
				0.7071066498756409,
				0,
				0.70710688829422
			]
		},
		{
			"mesh":8,
			"name":"Big_Building",
			"rotation":[
				0,
				-0.7071066498756409,
				0,
				0.70710688829422
			]
		},
		{
			"mesh":9,
			"name":"Small_Building"
		},
		{
			"mesh":10,
			"name":"Grave_1",
			"rotation":[
				-1.2389078619889915e-05,
				-0.7060245275497437,
				-1.2289314327063039e-05,
				0.7081873416900635
			],
			"scale":[
				0.7249998450279236,
				0.03156533092260361,
				0.7249998450279236
			]
		},
		{
			"mesh":11,
			"name":"Grave_2",
			"rotation":[
				-1.2389078619889915e-05,
				-0.7060245275497437,
				-1.2289314327063039e-05,
				0.7081873416900635
			],
			"scale":[
				0.7249998450279236,
				0.03156533092260361,
				0.7249998450279236
			]
		},
		{
			"mesh":12,
			"name":"Grave_3",
			"rotation":[
				-1.2389078619889915e-05,
				-0.7060245275497437,
				-1.2289314327063039e-05,
				0.7081873416900635
			],
			"scale":[
				0.7249998450279236,
				0.03156533092260361,
				0.7249998450279236
			]
		},
		{
			"mesh":13,
			"name":"Grave_4",
			"rotation":[
				-1.2389078619889915e-05,
				-0.7060245275497437,
				-1.2289314327063039e-05,
				0.7081873416900635
			],
			"scale":[
				0.7249998450279236,
				0.03156533092260361,
				0.7249998450279236
			]
		},
		{
			"mesh":14,
			"name":"Grave_5",
			"rotation":[
				-1.2389078619889915e-05,
				-0.7060245275497437,
				-1.2289314327063039e-05,
				0.7081873416900635
			],
			"scale":[
				0.7249998450279236,
				0.03156533092260361,
				0.7249998450279236
			]
		},
		{
			"mesh":15,
			"name":"Grave_6",
			"rotation":[
				-1.2389078619889915e-05,
				-0.7060245275497437,
				-1.2289314327063039e-05,
				0.7081873416900635
			],
			"scale":[
				0.7249998450279236,
				0.03156533092260361,
				0.7249998450279236
			]
		},
		{
			"mesh":16,
			"name":"Grave_7",
			"rotation":[
				0,
				0.0067872218787670135,
				0,
				0.9999770522117615
			],
			"scale":[
				0.7249998450279236,
				0.03156533092260361,
				0.7249998450279236
			]
		},
		{
			"mesh":17,
			"name":"Grave_8",
			"rotation":[
				-1.2389078619889915e-05,
				-0.7060245275497437,
				-1.2289314327063039e-05,
				0.7081873416900635
			],
			"scale":[
				0.7249998450279236,
				0.03156533092260361,
				0.7249998450279236
			]
		},
		{
			"mesh":18,
			"name":"Grave_9",
			"rotation":[
				-1.2389078619889915e-05,
				-0.7060245275497437,
				-1.2289314327063039e-05,
				0.7081873416900635
			],
			"scale":[
				0.7249998450279236,
				0.03156533092260361,
				0.7249998450279236
			]
		},
		{
			"mesh":19,
			"name":"Banner",
			"rotation":[
				0,
				0.2164396345615387,
				0,
				0.9762960076332092
			],
			"scale":[
				1.6021599769592285,
				0.009829789400100708,
				0.7796179056167603
			]
		},
		{
			"mesh":20,
			"name":"Banner_Frame",
			"rotation":[
				0,
				0.2164396494626999,
				0,
				0.976296067237854
			]
		},
		{
			"mesh":21,
			"name":"Lamp",
			"scale":[
				0.013343393802642822,
				0.014072426594793797,
				0.013317202217876911
			]
		},
		{
			"mesh":22,
			"name":"Signboard",
			"rotation":[
				0.7070935964584351,
				0.0010813691187649965,
				0.0010814068373292685,
				0.7071182727813721
			],
			"scale":[
				0.7249998450279236,
				0.03156533092260361,
				0.7249998450279236
			]
		}
	],
	"materials":[
		{
			"doubleSided":true,
			"extensions":{
				"KHR_materials_specular":{
					"specularColorFactor":[
						1.7999999523162842,
						1.7999999523162842,
						1.7999999523162842
					]
				}
			},
			"name":"Marble",
			"normalTexture":{
				"index":0,
				"scale":0.5
			},
			"pbrMetallicRoughness":{
				"baseColorTexture":{
					"index":1
				},
				"metallicFactor":0,
				"metallicRoughnessTexture":{
					"index":2
				}
			}
		},
		{
			"doubleSided":true,
			"name":"Black_Line",
			"pbrMetallicRoughness":{
				"baseColorFactor":[
					0,
					0,
					0,
					1
				],
				"metallicFactor":0
			}
		},
		{
			"doubleSided":true,
			"extensions":{
				"KHR_materials_specular":{
					"specularTexture":{
						"index":3
					}
				}
			},
			"name":"Floor_Tile",
			"pbrMetallicRoughness":{
				"baseColorTexture":{
					"index":4
				},
				"metallicFactor":0,
				"roughnessFactor":0.5
			}
		},
		{
			"doubleSided":true,
			"extensions":{
				"KHR_materials_specular":{
					"specularColorFactor":[
						1.7999999523162842,
						1.7999999523162842,
						1.7999999523162842
					]
				}
			},
			"name":"Big_Plaster_And_Floor",
			"normalTexture":{
				"index":5,
				"scale":0.5
			},
			"pbrMetallicRoughness":{
				"baseColorTexture":{
					"index":6
				},
				"metallicFactor":0,
				"metallicRoughnessTexture":{
					"index":7
				}
			}
		},
		{
			"doubleSided":true,
			"name":"Big_Plaster_And_Floor_Dark",
			"pbrMetallicRoughness":{
				"baseColorFactor":[
					0.11927590519189835,
					0.05702243372797966,
					0.04655835032463074,
					1
				],
				"metallicFactor":0,
				"roughnessFactor":0.5
			}
		},
		{
			"doubleSided":true,
			"extensions":{
				"KHR_materials_specular":{
					"specularColorFactor":[
						1.7999999523162842,
						1.7999999523162842,
						1.7999999523162842
					]
				}
			},
			"name":"Small_Plaster_Bottom_Tiles",
			"normalTexture":{
				"index":8,
				"scale":0.5
			},
			"pbrMetallicRoughness":{
				"baseColorTexture":{
					"index":9
				},
				"metallicFactor":0,
				"metallicRoughnessTexture":{
					"index":10
				}
			}
		},
		{
			"doubleSided":true,
			"extensions":{
				"KHR_materials_specular":{
					"specularColorFactor":[
						1.7999999523162842,
						1.7999999523162842,
						1.7999999523162842
					]
				}
			},
			"name":"Big_Building ",
			"normalTexture":{
				"index":11,
				"scale":0.5
			},
			"pbrMetallicRoughness":{
				"baseColorTexture":{
					"index":12
				},
				"metallicFactor":0,
				"metallicRoughnessTexture":{
					"index":13
				}
			}
		},
		{
			"doubleSided":true,
			"extensions":{
				"KHR_materials_specular":{
					"specularColorFactor":[
						1.7999999523162842,
						1.7999999523162842,
						1.7999999523162842
					]
				}
			},
			"name":"Small_Building",
			"normalTexture":{
				"index":14,
				"scale":0.5
			},
			"pbrMetallicRoughness":{
				"baseColorTexture":{
					"index":15
				},
				"metallicFactor":0,
				"metallicRoughnessTexture":{
					"index":16
				}
			}
		},
		{
			"doubleSided":true,
			"name":"Grave_Border",
			"pbrMetallicRoughness":{
				"baseColorFactor":[
					0,
					0,
					0,
					1
				],
				"roughnessFactor":0.8070865869522095
			}
		},
		{
			"doubleSided":true,
			"name":"Grave_Texture",
			"normalTexture":{
				"index":17,
				"scale":0.5
			},
			"pbrMetallicRoughness":{
				"baseColorTexture":{
					"index":18
				},
				"metallicFactor":0,
				"metallicRoughnessTexture":{
					"index":19
				}
			}
		},
		{
			"doubleSided":true,
			"name":"Behind_Banner_Material",
			"pbrMetallicRoughness":{
				"baseColorFactor":[
					0.800000011920929,
					0.800000011920929,
					0.800000011920929,
					1
				],
				"metallicFactor":0,
				"roughnessFactor":0.5
			}
		},
		{
			"doubleSided":true,
			"name":"Front_Banner_Material",
			"pbrMetallicRoughness":{
				"baseColorTexture":{
					"index":20
				},
				"metallicFactor":0,
				"roughnessFactor":0.5
			}
		},
		{
			"doubleSided":true,
			"name":"Banner_Frame",
			"pbrMetallicRoughness":{
				"baseColorFactor":[
					0.800000011920929,
					0.800000011920929,
					0.800000011920929,
					1
				],
				"metallicFactor":0,
				"roughnessFactor":0.5
			}
		},
		{
			"doubleSided":true,
			"extensions":{
				"KHR_materials_specular":{
					"specularFactor":0
				}
			},
			"name":"Lamp_Material",
			"pbrMetallicRoughness":{
				"baseColorFactor":[
					0.5879999995231628,
					0.5879999995231628,
					0.5879999995231628,
					1
				],
				"roughnessFactor":0.858578622341156
			}
		},
		{
			"doubleSided":true,
			"name":"Signboard",
			"pbrMetallicRoughness":{
				"baseColorTexture":{
					"index":21
				},
				"metallicFactor":0,
				"roughnessFactor":0.5
			}
		}
	],
	"meshes":[
		{
			"name":"Platform_Bottom",
			"primitives":[
				{
					"attributes":{
						"POSITION":0,
						"NORMAL":1,
						"TEXCOORD_0":2
					},
					"indices":3,
					"material":0
				},
				{
					"attributes":{
						"POSITION":4,
						"NORMAL":5,
						"TEXCOORD_0":6
					},
					"indices":7,
					"material":1
				}
			]
		},
		{
			"name":"Floor_1",
			"primitives":[
				{
					"attributes":{
						"POSITION":8,
						"NORMAL":9,
						"TEXCOORD_0":10
					},
					"indices":11,
					"material":2
				},
				{
					"attributes":{
						"POSITION":12,
						"NORMAL":13,
						"TEXCOORD_0":14
					},
					"indices":15,
					"material":3
				},
				{
					"attributes":{
						"POSITION":16,
						"NORMAL":17,
						"TEXCOORD_0":18
					},
					"indices":19,
					"material":4
				}
			]
		},
		{
			"name":"Big_Plaster_Bottom_1",
			"primitives":[
				{
					"attributes":{
						"POSITION":20,
						"NORMAL":21,
						"TEXCOORD_0":22
					},
					"indices":23,
					"material":0
				},
				{
					"attributes":{
						"POSITION":24,
						"NORMAL":25,
						"TEXCOORD_0":26
					},
					"indices":27,
					"material":3
				},
				{
					"attributes":{
						"POSITION":28,
						"NORMAL":29,
						"TEXCOORD_0":30
					},
					"indices":31,
					"material":4
				}
			]
		},
		{
			"name":"Platform_Top",
			"primitives":[
				{
					"attributes":{
						"POSITION":32,
						"NORMAL":33,
						"TEXCOORD_0":34
					},
					"indices":35,
					"material":0
				}
			]
		},
		{
			"name":"Floor_2",
			"primitives":[
				{
					"attributes":{
						"POSITION":36,
						"NORMAL":37,
						"TEXCOORD_0":38
					},
					"indices":39,
					"material":3
				},
				{
					"attributes":{
						"POSITION":40,
						"NORMAL":41,
						"TEXCOORD_0":42
					},
					"indices":43,
					"material":4
				}
			]
		},
		{
			"name":"Big_Plaster_Bottom_2",
			"primitives":[
				{
					"attributes":{
						"POSITION":44,
						"NORMAL":45,
						"TEXCOORD_0":46
					},
					"indices":23,
					"material":0
				},
				{
					"attributes":{
						"POSITION":47,
						"NORMAL":48,
						"TEXCOORD_0":49
					},
					"indices":27,
					"material":3
				},
				{
					"attributes":{
						"POSITION":50,
						"NORMAL":51,
						"TEXCOORD_0":52
					},
					"indices":31,
					"material":4
				}
			]
		},
		{
			"name":"Smal_Plaster_Bottom_1",
			"primitives":[
				{
					"attributes":{
						"POSITION":53,
						"NORMAL":54,
						"TEXCOORD_0":55
					},
					"indices":56,
					"material":0
				},
				{
					"attributes":{
						"POSITION":57,
						"NORMAL":58,
						"TEXCOORD_0":59
					},
					"indices":60,
					"material":1
				},
				{
					"attributes":{
						"POSITION":61,
						"NORMAL":62,
						"TEXCOORD_0":63
					},
					"indices":64,
					"material":5
				}
			]
		},
		{
			"name":"Smal_Plaster_Bottom_2",
			"primitives":[
				{
					"attributes":{
						"POSITION":65,
						"NORMAL":66,
						"TEXCOORD_0":67
					},
					"indices":56,
					"material":0
				},
				{
					"attributes":{
						"POSITION":68,
						"NORMAL":69,
						"TEXCOORD_0":70
					},
					"indices":60,
					"material":1
				},
				{
					"attributes":{
						"POSITION":71,
						"NORMAL":72,
						"TEXCOORD_0":73
					},
					"indices":64,
					"material":5
				}
			]
		},
		{
			"name":"Big_Building",
			"primitives":[
				{
					"attributes":{
						"POSITION":74,
						"NORMAL":75,
						"TEXCOORD_0":76
					},
					"indices":77,
					"material":6
				}
			]
		},
		{
			"name":"Small_Building",
			"primitives":[
				{
					"attributes":{
						"POSITION":78,
						"NORMAL":79,
						"TEXCOORD_0":80
					},
					"indices":81,
					"material":7
				}
			]
		},
		{
			"name":"Grave_1",
			"primitives":[
				{
					"attributes":{
						"POSITION":82,
						"NORMAL":83,
						"TEXCOORD_0":84
					},
					"indices":85,
					"material":8
				},
				{
					"attributes":{
						"POSITION":86,
						"NORMAL":87,
						"TEXCOORD_0":88
					},
					"indices":89,
					"material":9
				}
			]
		},
		{
			"name":"Grave_2",
			"primitives":[
				{
					"attributes":{
						"POSITION":90,
						"NORMAL":91,
						"TEXCOORD_0":92
					},
					"indices":85,
					"material":8
				},
				{
					"attributes":{
						"POSITION":93,
						"NORMAL":94,
						"TEXCOORD_0":95
					},
					"indices":89,
					"material":9
				}
			]
		},
		{
			"name":"Grave_3",
			"primitives":[
				{
					"attributes":{
						"POSITION":96,
						"NORMAL":97,
						"TEXCOORD_0":98
					},
					"indices":85,
					"material":8
				},
				{
					"attributes":{
						"POSITION":99,
						"NORMAL":100,
						"TEXCOORD_0":101
					},
					"indices":89,
					"material":9
				}
			]
		},
		{
			"name":"Grave_4",
			"primitives":[
				{
					"attributes":{
						"POSITION":102,
						"NORMAL":103,
						"TEXCOORD_0":104
					},
					"indices":85,
					"material":8
				},
				{
					"attributes":{
						"POSITION":105,
						"NORMAL":106,
						"TEXCOORD_0":107
					},
					"indices":89,
					"material":9
				}
			]
		},
		{
			"name":"Grave_5",
			"primitives":[
				{
					"attributes":{
						"POSITION":108,
						"NORMAL":109,
						"TEXCOORD_0":110
					},
					"indices":85,
					"material":8
				},
				{
					"attributes":{
						"POSITION":111,
						"NORMAL":112,
						"TEXCOORD_0":113
					},
					"indices":89,
					"material":9
				}
			]
		},
		{
			"name":"Grave_6",
			"primitives":[
				{
					"attributes":{
						"POSITION":114,
						"NORMAL":115,
						"TEXCOORD_0":116
					},
					"indices":85,
					"material":8
				},
				{
					"attributes":{
						"POSITION":117,
						"NORMAL":118,
						"TEXCOORD_0":119
					},
					"indices":89,
					"material":9
				}
			]
		},
		{
			"name":"Grave_7",
			"primitives":[
				{
					"attributes":{
						"POSITION":120,
						"NORMAL":121,
						"TEXCOORD_0":122
					},
					"indices":85,
					"material":8
				},
				{
					"attributes":{
						"POSITION":123,
						"NORMAL":124,
						"TEXCOORD_0":125
					},
					"indices":89,
					"material":9
				}
			]
		},
		{
			"name":"Grave_8",
			"primitives":[
				{
					"attributes":{
						"POSITION":126,
						"NORMAL":127,
						"TEXCOORD_0":128
					},
					"indices":85,
					"material":8
				},
				{
					"attributes":{
						"POSITION":129,
						"NORMAL":130,
						"TEXCOORD_0":131
					},
					"indices":89,
					"material":9
				}
			]
		},
		{
			"name":"Grave_9",
			"primitives":[
				{
					"attributes":{
						"POSITION":132,
						"NORMAL":133,
						"TEXCOORD_0":134
					},
					"indices":85,
					"material":8
				},
				{
					"attributes":{
						"POSITION":135,
						"NORMAL":136,
						"TEXCOORD_0":137
					},
					"indices":89,
					"material":9
				}
			]
		},
		{
			"name":"Banner",
			"primitives":[
				{
					"attributes":{
						"POSITION":138,
						"NORMAL":139,
						"TEXCOORD_0":140
					},
					"indices":141,
					"material":10
				},
				{
					"attributes":{
						"POSITION":142,
						"NORMAL":143,
						"TEXCOORD_0":144
					},
					"indices":145,
					"material":11
				}
			]
		},
		{
			"name":"Banner_Frame",
			"primitives":[
				{
					"attributes":{
						"POSITION":146,
						"NORMAL":147,
						"TEXCOORD_0":148
					},
					"indices":149,
					"material":12
				}
			]
		},
		{
			"name":"Lamp",
			"primitives":[
				{
					"attributes":{
						"POSITION":150,
						"NORMAL":151,
						"TEXCOORD_0":152
					},
					"indices":153,
					"material":13
				}
			]
		},
		{
			"name":"Signboard",
			"primitives":[
				{
					"attributes":{
						"POSITION":154,
						"NORMAL":155,
						"TEXCOORD_0":156
					},
					"indices":157,
					"material":14
				}
			]
		}
	],
	"textures":[
		{
			"sampler":0,
			"source":0
		},
		{
			"sampler":0,
			"source":1
		},
		{
			"sampler":0,
			"source":2
		},
		{
			"sampler":0,
			"source":3
		},
		{
			"sampler":0,
			"source":4
		},
		{
			"sampler":0,
			"source":5
		},
		{
			"sampler":0,
			"source":6
		},
		{
			"sampler":0,
			"source":7
		},
		{
			"sampler":0,
			"source":8
		},
		{
			"sampler":0,
			"source":9
		},
		{
			"sampler":0,
			"source":10
		},
		{
			"sampler":0,
			"source":11
		},
		{
			"sampler":0,
			"source":12
		},
		{
			"sampler":0,
			"source":13
		},
		{
			"sampler":0,
			"source":14
		},
		{
			"sampler":0,
			"source":15
		},
		{
			"sampler":0,
			"source":16
		},
		{
			"sampler":0,
			"source":0
		},
		{
			"sampler":0,
			"source":17
		},
		{
			"sampler":0,
			"source":2
		},
		{
			"sampler":0,
			"source":18
		},
		{
			"sampler":0,
			"source":19
		}
	],
	"images":[
		{
			"mimeType":"image/jpeg",
			"name":"Marble_normal_xtm",
			"uri":"Marble_normal_xtm.jpg"
		},
		{
			"mimeType":"image/jpeg",
			"name":"Marble_diffuse_xtm",
			"uri":"Marble_diffuse_xtm.jpg"
		},
		{
			"mimeType":"image/png",
			"name":"Marble_roughness_xtm",
			"uri":"Marble_roughness_xtm.png"
		},
		{
			"mimeType":"image/png",
			"name":"floor tiles_roughness_xtm",
			"uri":"floor%20tiles_roughness_xtm.png"
		},
		{
			"mimeType":"image/jpeg",
			"name":"floor tiles_diffuse_xtm",
			"uri":"floor%20tiles_diffuse_xtm.jpg"
		},
		{
			"mimeType":"image/jpeg",
			"name":"big plaster and floor_normal_xtm",
			"uri":"big%20plaster%20and%20floor_normal_xtm.jpg"
		},
		{
			"mimeType":"image/png",
			"name":"big plaster and floor_diffuse_xtm",
			"uri":"big%20plaster%20and%20floor_diffuse_xtm.png"
		},
		{
			"mimeType":"image/png",
			"name":"big plaster and floor_roughness_xtm",
			"uri":"big%20plaster%20and%20floor_roughness_xtm.png"
		},
		{
			"mimeType":"image/jpeg",
			"name":"smal plaster bot Tiles_normal_xtm",
			"uri":"smal%20plaster%20bot%20Tiles_normal_xtm.jpg"
		},
		{
			"mimeType":"image/jpeg",
			"name":"smal plaster bot Tiles_diffuse_xtm",
			"uri":"smal%20plaster%20bot%20Tiles_diffuse_xtm.jpg"
		},
		{
			"mimeType":"image/png",
			"name":"smal plaster bot Tiles_roughness_xtm",
			"uri":"smal%20plaster%20bot%20Tiles_roughness_xtm.png"
		},
		{
			"mimeType":"image/png",
			"name":"big building_normal",
			"uri":"big%20building_normal.png"
		},
		{
			"mimeType":"image/png",
			"name":"big building_diffuse",
			"uri":"big%20building_diffuse.png"
		},
		{
			"mimeType":"image/png",
			"name":"big building_roughness",
			"uri":"big%20building_roughness.png"
		},
		{
			"mimeType":"image/png",
			"name":"small building _normal_xtm",
			"uri":"small%20building%20_normal_xtm.png"
		},
		{
			"mimeType":"image/png",
			"name":"small building _diffuse_xtm",
			"uri":"small%20building%20_diffuse_xtm.png"
		},
		{
			"mimeType":"image/png",
			"name":"small building _roughness",
			"uri":"small%20building%20_roughness.png"
		},
		{
			"mimeType":"image/png",
			"name":"Grave_Texture",
			"uri":"Grave_Texture.png"
		},
		{
			"mimeType":"image/png",
			"name":"Banner",
			"uri":"Banner.png"
		},
		{
			"mimeType":"image/jpeg",
			"name":"sang",
			"uri":"sang.jpg"
		}
	],
	"accessors":[
		{
			"bufferView":0,
			"componentType":5126,
			"count":967,
			"max":[
				3.035470962524414,
				0.6927083730697632,
				3.035471200942993
			],
			"min":[
				-3.035470962524414,
				0.5,
				-3.035470724105835
			],
			"type":"VEC3"
		},
		{
			"bufferView":1,
			"componentType":5126,
			"count":967,
			"type":"VEC3"
		},
		{
			"bufferView":2,
			"componentType":5126,
			"count":967,
			"type":"VEC2"
		},
		{
			"bufferView":3,
			"componentType":5123,
			"count":2493,
			"type":"SCALAR"
		},
		{
			"bufferView":4,
			"componentType":5126,
			"count":308,
			"max":[
				3.03250789642334,
				0.6873424053192139,
				3.000000238418579
			],
			"min":[
				-3.03250789642334,
				0.5,
				-3.0325076580047607
			],
			"type":"VEC3"
		},
		{
			"bufferView":5,
			"componentType":5126,
			"count":308,
			"type":"VEC3"
		},
		{
			"bufferView":6,
			"componentType":5126,
			"count":308,
			"type":"VEC2"
		},
		{
			"bufferView":7,
			"componentType":5123,
			"count":462,
			"type":"SCALAR"
		},
		{
			"bufferView":8,
			"componentType":5126,
			"count":810,
			"max":[
				11.449997901916504,
				0.5,
				11.449997901916504
			],
			"min":[
				-11.449997901916504,
				0,
				-11.449997901916504
			],
			"type":"VEC3"
		},
		{
			"bufferView":9,
			"componentType":5126,
			"count":810,
			"type":"VEC3"
		},
		{
			"bufferView":10,
			"componentType":5126,
			"count":810,
			"type":"VEC2"
		},
		{
			"bufferView":11,
			"componentType":5123,
			"count":1980,
			"type":"SCALAR"
		},
		{
			"bufferView":12,
			"componentType":5126,
			"count":2056,
			"max":[
				11.449997901916504,
				0.5000000596046448,
				11.449997901916504
			],
			"min":[
				-11.449997901916504,
				0,
				-11.449997901916504
			],
			"type":"VEC3"
		},
		{
			"bufferView":13,
			"componentType":5126,
			"count":2056,
			"type":"VEC3"
		},
		{
			"bufferView":14,
			"componentType":5126,
			"count":2056,
			"type":"VEC2"
		},
		{
			"bufferView":15,
			"componentType":5123,
			"count":3312,
			"type":"SCALAR"
		},
		{
			"bufferView":16,
			"componentType":5126,
			"count":684,
			"max":[
				11.448819160461426,
				0.4988485276699066,
				11.448819160461426
			],
			"min":[
				-11.448819160461426,
				0,
				-11.448819160461426
			],
			"type":"VEC3"
		},
		{
			"bufferView":17,
			"componentType":5126,
			"count":684,
			"type":"VEC3"
		},
		{
			"bufferView":18,
			"componentType":5126,
			"count":684,
			"type":"VEC2"
		},
		{
			"bufferView":19,
			"componentType":5123,
			"count":972,
			"type":"SCALAR"
		},
		{
			"bufferView":20,
			"componentType":5126,
			"count":432,
			"max":[
				1.5244426727294922,
				3.6287615299224854,
				9.533782958984375
			],
			"min":[
				-1.5308952331542969,
				3.4999992847442627,
				-9.533782958984375
			],
			"type":"VEC3"
		},
		{
			"bufferView":21,
			"componentType":5126,
			"count":432,
			"type":"VEC3"
		},
		{
			"bufferView":22,
			"componentType":5126,
			"count":432,
			"type":"VEC2"
		},
		{
			"bufferView":23,
			"componentType":5123,
			"count":720,
			"type":"SCALAR"
		},
		{
			"bufferView":24,
			"componentType":5126,
			"count":8032,
			"max":[
				1.4999998807907104,
				3.499999761581421,
				9.506453514099121
			],
			"min":[
				-1.5000007152557373,
				0.5,
				-9.506453514099121
			],
			"type":"VEC3"
		},
		{
			"bufferView":25,
			"componentType":5126,
			"count":8032,
			"type":"VEC3"
		},
		{
			"bufferView":26,
			"componentType":5126,
			"count":8032,
			"type":"VEC2"
		},
		{
			"bufferView":27,
			"componentType":5123,
			"count":12144,
			"type":"SCALAR"
		},
		{
			"bufferView":28,
			"componentType":5126,
			"count":5656,
			"max":[
				1.4999998807907104,
				3.499999761581421,
				9.506453514099121
			],
			"min":[
				-1.5000007152557373,
				0.5,
				-9.506453514099121
			],
			"type":"VEC3"
		},
		{
			"bufferView":29,
			"componentType":5126,
			"count":5656,
			"type":"VEC3"
		},
		{
			"bufferView":30,
			"componentType":5126,
			"count":5656,
			"type":"VEC2"
		},
		{
			"bufferView":31,
			"componentType":5123,
			"count":8448,
			"type":"SCALAR"
		},
		{
			"bufferView":32,
			"componentType":5126,
			"count":24,
			"max":[
				3.035470962524414,
				0.75,
				3.035471200942993
			],
			"min":[
				-3.035470962524414,
				0.6927083730697632,
				-3.035470724105835
			],
			"type":"VEC3"
		},
		{
			"bufferView":33,
			"componentType":5126,
			"count":24,
			"type":"VEC3"
		},
		{
			"bufferView":34,
			"componentType":5126,
			"count":24,
			"type":"VEC2"
		},
		{
			"bufferView":35,
			"componentType":5123,
			"count":54,
			"type":"SCALAR"
		},
		{
			"bufferView":36,
			"componentType":5126,
			"count":6928,
			"max":[
				11.54403305053711,
				0.5000016689300537,
				11.528815269470215
			],
			"min":[
				-11.54403305053711,
				0.1985299289226532,
				-11.528815269470215
			],
			"type":"VEC3"
		},
		{
			"bufferView":37,
			"componentType":5126,
			"count":6928,
			"type":"VEC3"
		},
		{
			"bufferView":38,
			"componentType":5126,
			"count":6928,
			"type":"VEC2"
		},
		{
			"bufferView":39,
			"componentType":5123,
			"count":10656,
			"type":"SCALAR"
		},
		{
			"bufferView":40,
			"componentType":5126,
			"count":2016,
			"max":[
				11.542702674865723,
				0.49885016679763794,
				11.527484893798828
			],
			"min":[
				-11.542702674865723,
				0.1985299289226532,
				-11.527484893798828
			],
			"type":"VEC3"
		},
		{
			"bufferView":41,
			"componentType":5126,
			"count":2016,
			"type":"VEC3"
		},
		{
			"bufferView":42,
			"componentType":5126,
			"count":2016,
			"type":"VEC2"
		},
		{
			"bufferView":43,
			"componentType":5123,
			"count":3024,
			"type":"SCALAR"
		},
		{
			"bufferView":44,
			"componentType":5126,
			"count":432,
			"max":[
				1.5244426727294922,
				3.6287615299224854,
				9.533782958984375
			],
			"min":[
				-1.5308952331542969,
				3.4999992847442627,
				-9.533782958984375
			],
			"type":"VEC3"
		},
		{
			"bufferView":45,
			"componentType":5126,
			"count":432,
			"type":"VEC3"
		},
		{
			"bufferView":46,
			"componentType":5126,
			"count":432,
			"type":"VEC2"
		},
		{
			"bufferView":47,
			"componentType":5126,
			"count":8032,
			"max":[
				1.4999998807907104,
				3.499999761581421,
				9.506453514099121
			],
			"min":[
				-1.5000007152557373,
				0.5,
				-9.506453514099121
			],
			"type":"VEC3"
		},
		{
			"bufferView":48,
			"componentType":5126,
			"count":8032,
			"type":"VEC3"
		},
		{
			"bufferView":49,
			"componentType":5126,
			"count":8032,
			"type":"VEC2"
		},
		{
			"bufferView":50,
			"componentType":5126,
			"count":5656,
			"max":[
				1.4999998807907104,
				3.499999761581421,
				9.506453514099121
			],
			"min":[
				-1.5000007152557373,
				0.5,
				-9.506453514099121
			],
			"type":"VEC3"
		},
		{
			"bufferView":51,
			"componentType":5126,
			"count":5656,
			"type":"VEC3"
		},
		{
			"bufferView":52,
			"componentType":5126,
			"count":5656,
			"type":"VEC2"
		},
		{
			"bufferView":53,
			"componentType":5126,
			"count":4258,
			"max":[
				2.0999999046325684,
				2.3000001907348633,
				5.099999904632568
			],
			"min":[
				-2.0999999046325684,
				0.5,
				-5.099999904632568
			],
			"type":"VEC3"
		},
		{
			"bufferView":54,
			"componentType":5126,
			"count":4258,
			"type":"VEC3"
		},
		{
			"bufferView":55,
			"componentType":5126,
			"count":4258,
			"type":"VEC2"
		},
		{
			"bufferView":56,
			"componentType":5123,
			"count":6576,
			"type":"SCALAR"
		},
		{
			"bufferView":57,
			"componentType":5126,
			"count":480,
			"max":[
				2.096611499786377,
				1.7330832481384277,
				5.096611499786377
			],
			"min":[
				-2.0966105461120605,
				1.0669167041778564,
				-5.096611499786377
			],
			"type":"VEC3"
		},
		{
			"bufferView":58,
			"componentType":5126,
			"count":480,
			"type":"VEC3"
		},
		{
			"bufferView":59,
			"componentType":5126,
			"count":480,
			"type":"VEC2"
		},
		{
			"bufferView":60,
			"componentType":5123,
			"count":720,
			"type":"SCALAR"
		},
		{
			"bufferView":61,
			"componentType":5126,
			"count":448,
			"max":[
				2.082322120666504,
				2.1986894607543945,
				5.082322120666504
			],
			"min":[
				-2.082322120666504,
				0.6013104319572449,
				-5.082322120666504
			],
			"type":"VEC3"
		},
		{
			"bufferView":62,
			"componentType":5126,
			"count":448,
			"type":"VEC3"
		},
		{
			"bufferView":63,
			"componentType":5126,
			"count":448,
			"type":"VEC2"
		},
		{
			"bufferView":64,
			"componentType":5123,
			"count":1008,
			"type":"SCALAR"
		},
		{
			"bufferView":65,
			"componentType":5126,
			"count":4258,
			"max":[
				2.0999999046325684,
				2.3000001907348633,
				5.099999904632568
			],
			"min":[
				-2.0999999046325684,
				0.5,
				-5.099999904632568
			],
			"type":"VEC3"
		},
		{
			"bufferView":66,
			"componentType":5126,
			"count":4258,
			"type":"VEC3"
		},
		{
			"bufferView":67,
			"componentType":5126,
			"count":4258,
			"type":"VEC2"
		},
		{
			"bufferView":68,
			"componentType":5126,
			"count":480,
			"max":[
				2.096611499786377,
				1.7330832481384277,
				5.096611499786377
			],
			"min":[
				-2.0966105461120605,
				1.0669167041778564,
				-5.096611499786377
			],
			"type":"VEC3"
		},
		{
			"bufferView":69,
			"componentType":5126,
			"count":480,
			"type":"VEC3"
		},
		{
			"bufferView":70,
			"componentType":5126,
			"count":480,
			"type":"VEC2"
		},
		{
			"bufferView":71,
			"componentType":5126,
			"count":448,
			"max":[
				2.082322120666504,
				2.1986894607543945,
				5.082322120666504
			],
			"min":[
				-2.082322120666504,
				0.6013104319572449,
				-5.082322120666504
			],
			"type":"VEC3"
		},
		{
			"bufferView":72,
			"componentType":5126,
			"count":448,
			"type":"VEC3"
		},
		{
			"bufferView":73,
			"componentType":5126,
			"count":448,
			"type":"VEC2"
		},
		{
			"bufferView":74,
			"componentType":5126,
			"count":1376,
			"max":[
				9.442127227783203,
				36.10000228881836,
				9.442133903503418
			],
			"min":[
				-9.442123413085938,
				0.4999961853027344,
				-9.442119598388672
			],
			"type":"VEC3"
		},
		{
			"bufferView":75,
			"componentType":5126,
			"count":1376,
			"type":"VEC3"
		},
		{
			"bufferView":76,
			"componentType":5126,
			"count":1376,
			"type":"VEC2"
		},
		{
			"bufferView":77,
			"componentType":5123,
			"count":3816,
			"type":"SCALAR"
		},
		{
			"bufferView":78,
			"componentType":5126,
			"count":1712,
			"max":[
				5,
				14.49998664855957,
				5.000000476837158
			],
			"min":[
				-5,
				0.5,
				-5.000000476837158
			],
			"type":"VEC3"
		},
		{
			"bufferView":79,
			"componentType":5126,
			"count":1712,
			"type":"VEC3"
		},
		{
			"bufferView":80,
			"componentType":5126,
			"count":1712,
			"type":"VEC2"
		},
		{
			"bufferView":81,
			"componentType":5123,
			"count":7248,
			"type":"SCALAR"
		},
		{
			"bufferView":82,
			"componentType":5126,
			"count":20,
			"max":[
				0.986426591873169,
				24.758447647094727,
				0.9846867322921753
			],
			"min":[
				-1.013573408126831,
				22.758447647094727,
				-1.0153142213821411
			],
			"type":"VEC3"
		},
		{
			"bufferView":83,
			"componentType":5126,
			"count":20,
			"type":"VEC3"
		},
		{
			"bufferView":84,
			"componentType":5126,
			"count":20,
			"type":"VEC2"
		},
		{
			"bufferView":85,
			"componentType":5123,
			"count":30,
			"type":"SCALAR"
		},
		{
			"bufferView":86,
			"componentType":5126,
			"count":4,
			"max":[
				0.986426591873169,
				24.758447647094727,
				0.9846867322921753
			],
			"min":[
				-1.013573408126831,
				24.758447647094727,
				-1.0153142213821411
			],
			"type":"VEC3"
		},
		{
			"bufferView":87,
			"componentType":5126,
			"count":4,
			"type":"VEC3"
		},
		{
			"bufferView":88,
			"componentType":5126,
			"count":4,
			"type":"VEC2"
		},
		{
			"bufferView":89,
			"componentType":5123,
			"count":6,
			"type":"SCALAR"
		},
		{
			"bufferView":90,
			"componentType":5126,
			"count":20,
			"max":[
				3.7963356971740723,
				24.760507583618164,
				3.616105794906616
			],
			"min":[
				1.7963367700576782,
				22.760507583618164,
				1.6161057949066162
			],
			"type":"VEC3"
		},
		{
			"bufferView":91,
			"componentType":5126,
			"count":20,
			"type":"VEC3"
		},
		{
			"bufferView":92,
			"componentType":5126,
			"count":20,
			"type":"VEC2"
		},
		{
			"bufferView":93,
			"componentType":5126,
			"count":4,
			"max":[
				3.7963356971740723,
				24.760507583618164,
				3.616105794906616
			],
			"min":[
				1.7963367700576782,
				24.760507583618164,
				1.6161057949066162
			],
			"type":"VEC3"
		},
		{
			"bufferView":94,
			"componentType":5126,
			"count":4,
			"type":"VEC3"
		},
		{
			"bufferView":95,
			"componentType":5126,
			"count":4,
			"type":"VEC2"
		},
		{
			"bufferView":96,
			"componentType":5126,
			"count":20,
			"max":[
				-1.7879951000213623,
				24.760509490966797,
				-1.5831812620162964
			],
			"min":[
				-3.7879953384399414,
				22.760509490966797,
				-3.5831804275512695
			],
			"type":"VEC3"
		},
		{
			"bufferView":97,
			"componentType":5126,
			"count":20,
			"type":"VEC3"
		},
		{
			"bufferView":98,
			"componentType":5126,
			"count":20,
			"type":"VEC2"
		},
		{
			"bufferView":99,
			"componentType":5126,
			"count":4,
			"max":[
				-1.7879951000213623,
				24.760509490966797,
				-1.5831812620162964
			],
			"min":[
				-3.7879953384399414,
				24.760509490966797,
				-3.5831804275512695
			],
			"type":"VEC3"
		},
		{
			"bufferView":100,
			"componentType":5126,
			"count":4,
			"type":"VEC3"
		},
		{
			"bufferView":101,
			"componentType":5126,
			"count":4,
			"type":"VEC2"
		},
		{
			"bufferView":102,
			"componentType":5126,
			"count":20,
			"max":[
				-1.7879974842071533,
				24.760507583618164,
				0.9584324359893799
			],
			"min":[
				-3.7879977226257324,
				22.760507583618164,
				-1.0415675640106201
			],
			"type":"VEC3"
		},
		{
			"bufferView":103,
			"componentType":5126,
			"count":20,
			"type":"VEC3"
		},
		{
			"bufferView":104,
			"componentType":5126,
			"count":20,
			"type":"VEC2"
		},
		{
			"bufferView":105,
			"componentType":5126,
			"count":4,
			"max":[
				-1.7879974842071533,
				24.760507583618164,
				0.9584324359893799
			],
			"min":[
				-3.7879977226257324,
				24.760507583618164,
				-1.0415675640106201
			],
			"type":"VEC3"
		},
		{
			"bufferView":106,
			"componentType":5126,
			"count":4,
			"type":"VEC3"
		},
		{
			"bufferView":107,
			"componentType":5126,
			"count":4,
			"type":"VEC2"
		},
		{
			"bufferView":108,
			"componentType":5126,
			"count":20,
			"max":[
				0.9942806959152222,
				24.760507583618164,
				-1.5831799507141113
			],
			"min":[
				-1.0057193040847778,
				22.760507583618164,
				-3.5831809043884277
			],
			"type":"VEC3"
		},
		{
			"bufferView":109,
			"componentType":5126,
			"count":20,
			"type":"VEC3"
		},
		{
			"bufferView":110,
			"componentType":5126,
			"count":20,
			"type":"VEC2"
		},
		{
			"bufferView":111,
			"componentType":5126,
			"count":4,
			"max":[
				0.9942806959152222,
				24.760507583618164,
				-1.5831799507141113
			],
			"min":[
				-1.0057193040847778,
				24.760507583618164,
				-3.5831809043884277
			],
			"type":"VEC3"
		},
		{
			"bufferView":112,
			"componentType":5126,
			"count":4,
			"type":"VEC3"
		},
		{
			"bufferView":113,
			"componentType":5126,
			"count":4,
			"type":"VEC2"
		},
		{
			"bufferView":114,
			"componentType":5126,
			"count":20,
			"max":[
				-1.7879955768585205,
				24.760507583618164,
				3.6161048412323
			],
			"min":[
				-3.7879958152770996,
				22.760507583618164,
				1.616105318069458
			],
			"type":"VEC3"
		},
		{
			"bufferView":115,
			"componentType":5126,
			"count":20,
			"type":"VEC3"
		},
		{
			"bufferView":116,
			"componentType":5126,
			"count":20,
			"type":"VEC2"
		},
		{
			"bufferView":117,
			"componentType":5126,
			"count":4,
			"max":[
				-1.7879955768585205,
				24.760507583618164,
				3.6161048412323
			],
			"min":[
				-3.7879958152770996,
				24.760507583618164,
				1.616105318069458
			],
			"type":"VEC3"
		},
		{
			"bufferView":118,
			"componentType":5126,
			"count":4,
			"type":"VEC3"
		},
		{
			"bufferView":119,
			"componentType":5126,
			"count":4,
			"type":"VEC2"
		},
		{
			"bufferView":120,
			"componentType":5126,
			"count":20,
			"max":[
				1.0121936798095703,
				24.760114669799805,
				3.796616792678833
			],
			"min":[
				-0.9878063201904297,
				22.760114669799805,
				1.7966177463531494
			],
			"type":"VEC3"
		},
		{
			"bufferView":121,
			"componentType":5126,
			"count":20,
			"type":"VEC3"
		},
		{
			"bufferView":122,
			"componentType":5126,
			"count":20,
			"type":"VEC2"
		},
		{
			"bufferView":123,
			"componentType":5126,
			"count":4,
			"max":[
				1.0121936798095703,
				24.760114669799805,
				3.796616792678833
			],
			"min":[
				-0.9878063201904297,
				24.760114669799805,
				1.7966177463531494
			],
			"type":"VEC3"
		},
		{
			"bufferView":124,
			"componentType":5126,
			"count":4,
			"type":"VEC3"
		},
		{
			"bufferView":125,
			"componentType":5126,
			"count":4,
			"type":"VEC2"
		},
		{
			"bufferView":126,
			"componentType":5126,
			"count":20,
			"max":[
				3.7963321208953857,
				24.76050567626953,
				-1.5831851959228516
			],
			"min":[
				1.7963330745697021,
				22.76050567626953,
				-3.5831851959228516
			],
			"type":"VEC3"
		},
		{
			"bufferView":127,
			"componentType":5126,
			"count":20,
			"type":"VEC3"
		},
		{
			"bufferView":128,
			"componentType":5126,
			"count":20,
			"type":"VEC2"
		},
		{
			"bufferView":129,
			"componentType":5126,
			"count":4,
			"max":[
				3.7963321208953857,
				24.76050567626953,
				-1.5831851959228516
			],
			"min":[
				1.7963330745697021,
				24.76050567626953,
				-3.5831851959228516
			],
			"type":"VEC3"
		},
		{
			"bufferView":130,
			"componentType":5126,
			"count":4,
			"type":"VEC3"
		},
		{
			"bufferView":131,
			"componentType":5126,
			"count":4,
			"type":"VEC2"
		},
		{
			"bufferView":132,
			"componentType":5126,
			"count":20,
			"max":[
				0.994276762008667,
				24.760507583618164,
				3.616105794906616
			],
			"min":[
				-1.005723237991333,
				22.760507583618164,
				1.6161062717437744
			],
			"type":"VEC3"
		},
		{
			"bufferView":133,
			"componentType":5126,
			"count":20,
			"type":"VEC3"
		},
		{
			"bufferView":134,
			"componentType":5126,
			"count":20,
			"type":"VEC2"
		},
		{
			"bufferView":135,
			"componentType":5126,
			"count":4,
			"max":[
				0.994276762008667,
				24.760507583618164,
				3.616105794906616
			],
			"min":[
				-1.005723237991333,
				24.760507583618164,
				1.6161062717437744
			],
			"type":"VEC3"
		},
		{
			"bufferView":136,
			"componentType":5126,
			"count":4,
			"type":"VEC3"
		},
		{
			"bufferView":137,
			"componentType":5126,
			"count":4,
			"type":"VEC2"
		},
		{
			"bufferView":138,
			"componentType":5126,
			"count":440,
			"max":[
				30.83963966369629,
				618.7174072265625,
				64.12381744384766
			],
			"min":[
				-30.829261779785156,
				292.7367248535156,
				-64.10250854492188
			],
			"type":"VEC3"
		},
		{
			"bufferView":139,
			"componentType":5126,
			"count":440,
			"type":"VEC3"
		},
		{
			"bufferView":140,
			"componentType":5126,
			"count":440,
			"type":"VEC2"
		},
		{
			"bufferView":141,
			"componentType":5123,
			"count":660,
			"type":"SCALAR"
		},
		{
			"bufferView":142,
			"componentType":5126,
			"count":88,
			"max":[
				30.827611923217773,
				618.7173461914062,
				64.0984878540039
			],
			"min":[
				-30.817241668701172,
				292.7367248535156,
				-64.07718658447266
			],
			"type":"VEC3"
		},
		{
			"bufferView":143,
			"componentType":5126,
			"count":88,
			"type":"VEC3"
		},
		{
			"bufferView":144,
			"componentType":5126,
			"count":88,
			"type":"VEC2"
		},
		{
			"bufferView":145,
			"componentType":5123,
			"count":132,
			"type":"SCALAR"
		},
		{
			"bufferView":146,
			"componentType":5126,
			"count":6116,
			"max":[
				49.53679656982422,
				6.200373649597168,
				50.060997009277344
			],
			"min":[
				-49.51788330078125,
				-6.584450602531433e-07,
				-50.04214096069336
			],
			"type":"VEC3"
		},
		{
			"bufferView":147,
			"componentType":5126,
			"count":6116,
			"type":"VEC3"
		},
		{
			"bufferView":148,
			"componentType":5126,
			"count":6116,
			"type":"VEC2"
		},
		{
			"bufferView":149,
			"componentType":5123,
			"count":13596,
			"type":"SCALAR"
		},
		{
			"bufferView":150,
			"componentType":5126,
			"count":3234,
			"max":[
				3701.1201171875,
				670.7510375976562,
				3758.9580078125
			],
			"min":[
				-3702.471923828125,
				3.216379991499707e-05,
				-3760.3095703125
			],
			"type":"VEC3"
		},
		{
			"bufferView":151,
			"componentType":5126,
			"count":3234,
			"type":"VEC3"
		},
		{
			"bufferView":152,
			"componentType":5126,
			"count":3234,
			"type":"VEC2"
		},
		{
			"bufferView":153,
			"componentType":5123,
			"count":11616,
			"type":"SCALAR"
		},
		{
			"bufferView":154,
			"componentType":5126,
			"count":24,
			"max":[
				-10.032773971557617,
				49.263431549072266,
				-2.5964975357055664
			],
			"min":[
				-12.032773971557617,
				47.263431549072266,
				-4.596497058868408
			],
			"type":"VEC3"
		},
		{
			"bufferView":155,
			"componentType":5126,
			"count":24,
			"type":"VEC3"
		},
		{
			"bufferView":156,
			"componentType":5126,
			"count":24,
			"type":"VEC2"
		},
		{
			"bufferView":157,
			"componentType":5123,
			"count":36,
			"type":"SCALAR"
		}
	],
	"bufferViews":[
		{
			"buffer":0,
			"byteLength":11604,
			"byteOffset":0,
			"target":34962
		},
		{
			"buffer":0,
			"byteLength":11604,
			"byteOffset":11604,
			"target":34962
		},
		{
			"buffer":0,
			"byteLength":7736,
			"byteOffset":23208,
			"target":34962
		},
		{
			"buffer":0,
			"byteLength":4986,
			"byteOffset":30944,
			"target":34963
		},
		{
			"buffer":0,
			"byteLength":3696,
			"byteOffset":35932,
			"target":34962
		},
		{
			"buffer":0,
			"byteLength":3696,
			"byteOffset":39628,
			"target":34962
		},
		{
			"buffer":0,
			"byteLength":2464,
			"byteOffset":43324,
			"target":34962
		},
		{
			"buffer":0,
			"byteLength":924,
			"byteOffset":45788,
			"target":34963
		},
		{
			"buffer":0,
			"byteLength":9720,
			"byteOffset":46712,
			"target":34962
		},
		{
			"buffer":0,
			"byteLength":9720,
			"byteOffset":56432,
			"target":34962
		},
		{
			"buffer":0,
			"byteLength":6480,
			"byteOffset":66152,
			"target":34962
		},
		{
			"buffer":0,
			"byteLength":3960,
			"byteOffset":72632,
			"target":34963
		},
		{
			"buffer":0,
			"byteLength":24672,
			"byteOffset":76592,
			"target":34962
		},
		{
			"buffer":0,
			"byteLength":24672,
			"byteOffset":101264,
			"target":34962
		},
		{
			"buffer":0,
			"byteLength":16448,
			"byteOffset":125936,
			"target":34962
		},
		{
			"buffer":0,
			"byteLength":6624,
			"byteOffset":142384,
			"target":34963
		},
		{
			"buffer":0,
			"byteLength":8208,
			"byteOffset":149008,
			"target":34962
		},
		{
			"buffer":0,
			"byteLength":8208,
			"byteOffset":157216,
			"target":34962
		},
		{
			"buffer":0,
			"byteLength":5472,
			"byteOffset":165424,
			"target":34962
		},
		{
			"buffer":0,
			"byteLength":1944,
			"byteOffset":170896,
			"target":34963
		},
		{
			"buffer":0,
			"byteLength":5184,
			"byteOffset":172840,
			"target":34962
		},
		{
			"buffer":0,
			"byteLength":5184,
			"byteOffset":178024,
			"target":34962
		},
		{
			"buffer":0,
			"byteLength":3456,
			"byteOffset":183208,
			"target":34962
		},
		{
			"buffer":0,
			"byteLength":1440,
			"byteOffset":186664,
			"target":34963
		},
		{
			"buffer":0,
			"byteLength":96384,
			"byteOffset":188104,
			"target":34962
		},
		{
			"buffer":0,
			"byteLength":96384,
			"byteOffset":284488,
			"target":34962
		},
		{
			"buffer":0,
			"byteLength":64256,
			"byteOffset":380872,
			"target":34962
		},
		{
			"buffer":0,
			"byteLength":24288,
			"byteOffset":445128,
			"target":34963
		},
		{
			"buffer":0,
			"byteLength":67872,
			"byteOffset":469416,
			"target":34962
		},
		{
			"buffer":0,
			"byteLength":67872,
			"byteOffset":537288,
			"target":34962
		},
		{
			"buffer":0,
			"byteLength":45248,
			"byteOffset":605160,
			"target":34962
		},
		{
			"buffer":0,
			"byteLength":16896,
			"byteOffset":650408,
			"target":34963
		},
		{
			"buffer":0,
			"byteLength":288,
			"byteOffset":667304,
			"target":34962
		},
		{
			"buffer":0,
			"byteLength":288,
			"byteOffset":667592,
			"target":34962
		},
		{
			"buffer":0,
			"byteLength":192,
			"byteOffset":667880,
			"target":34962
		},
		{
			"buffer":0,
			"byteLength":108,
			"byteOffset":668072,
			"target":34963
		},
		{
			"buffer":0,
			"byteLength":83136,
			"byteOffset":668180,
			"target":34962
		},
		{
			"buffer":0,
			"byteLength":83136,
			"byteOffset":751316,
			"target":34962
		},
		{
			"buffer":0,
			"byteLength":55424,
			"byteOffset":834452,
			"target":34962
		},
		{
			"buffer":0,
			"byteLength":21312,
			"byteOffset":889876,
			"target":34963
		},
		{
			"buffer":0,
			"byteLength":24192,
			"byteOffset":911188,
			"target":34962
		},
		{
			"buffer":0,
			"byteLength":24192,
			"byteOffset":935380,
			"target":34962
		},
		{
			"buffer":0,
			"byteLength":16128,
			"byteOffset":959572,
			"target":34962
		},
		{
			"buffer":0,
			"byteLength":6048,
			"byteOffset":975700,
			"target":34963
		},
		{
			"buffer":0,
			"byteLength":5184,
			"byteOffset":981748,
			"target":34962
		},
		{
			"buffer":0,
			"byteLength":5184,
			"byteOffset":986932,
			"target":34962
		},
		{
			"buffer":0,
			"byteLength":3456,
			"byteOffset":992116,
			"target":34962
		},
		{
			"buffer":0,
			"byteLength":96384,
			"byteOffset":995572,
			"target":34962
		},
		{
			"buffer":0,
			"byteLength":96384,
			"byteOffset":1091956,
			"target":34962
		},
		{
			"buffer":0,
			"byteLength":64256,
			"byteOffset":1188340,
			"target":34962
		},
		{
			"buffer":0,
			"byteLength":67872,
			"byteOffset":1252596,
			"target":34962
		},
		{
			"buffer":0,
			"byteLength":67872,
			"byteOffset":1320468,
			"target":34962
		},
		{
			"buffer":0,
			"byteLength":45248,
			"byteOffset":1388340,
			"target":34962
		},
		{
			"buffer":0,
			"byteLength":51096,
			"byteOffset":1433588,
			"target":34962
		},
		{
			"buffer":0,
			"byteLength":51096,
			"byteOffset":1484684,
			"target":34962
		},
		{
			"buffer":0,
			"byteLength":34064,
			"byteOffset":1535780,
			"target":34962
		},
		{
			"buffer":0,
			"byteLength":13152,
			"byteOffset":1569844,
			"target":34963
		},
		{
			"buffer":0,
			"byteLength":5760,
			"byteOffset":1582996,
			"target":34962
		},
		{
			"buffer":0,
			"byteLength":5760,
			"byteOffset":1588756,
			"target":34962
		},
		{
			"buffer":0,
			"byteLength":3840,
			"byteOffset":1594516,
			"target":34962
		},
		{
			"buffer":0,
			"byteLength":1440,
			"byteOffset":1598356,
			"target":34963
		},
		{
			"buffer":0,
			"byteLength":5376,
			"byteOffset":1599796,
			"target":34962
		},
		{
			"buffer":0,
			"byteLength":5376,
			"byteOffset":1605172,
			"target":34962
		},
		{
			"buffer":0,
			"byteLength":3584,
			"byteOffset":1610548,
			"target":34962
		},
		{
			"buffer":0,
			"byteLength":2016,
			"byteOffset":1614132,
			"target":34963
		},
		{
			"buffer":0,
			"byteLength":51096,
			"byteOffset":1616148,
			"target":34962
		},
		{
			"buffer":0,
			"byteLength":51096,
			"byteOffset":1667244,
			"target":34962
		},
		{
			"buffer":0,
			"byteLength":34064,
			"byteOffset":1718340,
			"target":34962
		},
		{
			"buffer":0,
			"byteLength":5760,
			"byteOffset":1752404,
			"target":34962
		},
		{
			"buffer":0,
			"byteLength":5760,
			"byteOffset":1758164,
			"target":34962
		},
		{
			"buffer":0,
			"byteLength":3840,
			"byteOffset":1763924,
			"target":34962
		},
		{
			"buffer":0,
			"byteLength":5376,
			"byteOffset":1767764,
			"target":34962
		},
		{
			"buffer":0,
			"byteLength":5376,
			"byteOffset":1773140,
			"target":34962
		},
		{
			"buffer":0,
			"byteLength":3584,
			"byteOffset":1778516,
			"target":34962
		},
		{
			"buffer":0,
			"byteLength":16512,
			"byteOffset":1782100,
			"target":34962
		},
		{
			"buffer":0,
			"byteLength":16512,
			"byteOffset":1798612,
			"target":34962
		},
		{
			"buffer":0,
			"byteLength":11008,
			"byteOffset":1815124,
			"target":34962
		},
		{
			"buffer":0,
			"byteLength":7632,
			"byteOffset":1826132,
			"target":34963
		},
		{
			"buffer":0,
			"byteLength":20544,
			"byteOffset":1833764,
			"target":34962
		},
		{
			"buffer":0,
			"byteLength":20544,
			"byteOffset":1854308,
			"target":34962
		},
		{
			"buffer":0,
			"byteLength":13696,
			"byteOffset":1874852,
			"target":34962
		},
		{
			"buffer":0,
			"byteLength":14496,
			"byteOffset":1888548,
			"target":34963
		},
		{
			"buffer":0,
			"byteLength":240,
			"byteOffset":1903044,
			"target":34962
		},
		{
			"buffer":0,
			"byteLength":240,
			"byteOffset":1903284,
			"target":34962
		},
		{
			"buffer":0,
			"byteLength":160,
			"byteOffset":1903524,
			"target":34962
		},
		{
			"buffer":0,
			"byteLength":60,
			"byteOffset":1903684,
			"target":34963
		},
		{
			"buffer":0,
			"byteLength":48,
			"byteOffset":1903744,
			"target":34962
		},
		{
			"buffer":0,
			"byteLength":48,
			"byteOffset":1903792,
			"target":34962
		},
		{
			"buffer":0,
			"byteLength":32,
			"byteOffset":1903840,
			"target":34962
		},
		{
			"buffer":0,
			"byteLength":12,
			"byteOffset":1903872,
			"target":34963
		},
		{
			"buffer":0,
			"byteLength":240,
			"byteOffset":1903884,
			"target":34962
		},
		{
			"buffer":0,
			"byteLength":240,
			"byteOffset":1904124,
			"target":34962
		},
		{
			"buffer":0,
			"byteLength":160,
			"byteOffset":1904364,
			"target":34962
		},
		{
			"buffer":0,
			"byteLength":48,
			"byteOffset":1904524,
			"target":34962
		},
		{
			"buffer":0,
			"byteLength":48,
			"byteOffset":1904572,
			"target":34962
		},
		{
			"buffer":0,
			"byteLength":32,
			"byteOffset":1904620,
			"target":34962
		},
		{
			"buffer":0,
			"byteLength":240,
			"byteOffset":1904652,
			"target":34962
		},
		{
			"buffer":0,
			"byteLength":240,
			"byteOffset":1904892,
			"target":34962
		},
		{
			"buffer":0,
			"byteLength":160,
			"byteOffset":1905132,
			"target":34962
		},
		{
			"buffer":0,
			"byteLength":48,
			"byteOffset":1905292,
			"target":34962
		},
		{
			"buffer":0,
			"byteLength":48,
			"byteOffset":1905340,
			"target":34962
		},
		{
			"buffer":0,
			"byteLength":32,
			"byteOffset":1905388,
			"target":34962
		},
		{
			"buffer":0,
			"byteLength":240,
			"byteOffset":1905420,
			"target":34962
		},
		{
			"buffer":0,
			"byteLength":240,
			"byteOffset":1905660,
			"target":34962
		},
		{
			"buffer":0,
			"byteLength":160,
			"byteOffset":1905900,
			"target":34962
		},
		{
			"buffer":0,
			"byteLength":48,
			"byteOffset":1906060,
			"target":34962
		},
		{
			"buffer":0,
			"byteLength":48,
			"byteOffset":1906108,
			"target":34962
		},
		{
			"buffer":0,
			"byteLength":32,
			"byteOffset":1906156,
			"target":34962
		},
		{
			"buffer":0,
			"byteLength":240,
			"byteOffset":1906188,
			"target":34962
		},
		{
			"buffer":0,
			"byteLength":240,
			"byteOffset":1906428,
			"target":34962
		},
		{
			"buffer":0,
			"byteLength":160,
			"byteOffset":1906668,
			"target":34962
		},
		{
			"buffer":0,
			"byteLength":48,
			"byteOffset":1906828,
			"target":34962
		},
		{
			"buffer":0,
			"byteLength":48,
			"byteOffset":1906876,
			"target":34962
		},
		{
			"buffer":0,
			"byteLength":32,
			"byteOffset":1906924,
			"target":34962
		},
		{
			"buffer":0,
			"byteLength":240,
			"byteOffset":1906956,
			"target":34962
		},
		{
			"buffer":0,
			"byteLength":240,
			"byteOffset":1907196,
			"target":34962
		},
		{
			"buffer":0,
			"byteLength":160,
			"byteOffset":1907436,
			"target":34962
		},
		{
			"buffer":0,
			"byteLength":48,
			"byteOffset":1907596,
			"target":34962
		},
		{
			"buffer":0,
			"byteLength":48,
			"byteOffset":1907644,
			"target":34962
		},
		{
			"buffer":0,
			"byteLength":32,
			"byteOffset":1907692,
			"target":34962
		},
		{
			"buffer":0,
			"byteLength":240,
			"byteOffset":1907724,
			"target":34962
		},
		{
			"buffer":0,
			"byteLength":240,
			"byteOffset":1907964,
			"target":34962
		},
		{
			"buffer":0,
			"byteLength":160,
			"byteOffset":1908204,
			"target":34962
		},
		{
			"buffer":0,
			"byteLength":48,
			"byteOffset":1908364,
			"target":34962
		},
		{
			"buffer":0,
			"byteLength":48,
			"byteOffset":1908412,
			"target":34962
		},
		{
			"buffer":0,
			"byteLength":32,
			"byteOffset":1908460,
			"target":34962
		},
		{
			"buffer":0,
			"byteLength":240,
			"byteOffset":1908492,
			"target":34962
		},
		{
			"buffer":0,
			"byteLength":240,
			"byteOffset":1908732,
			"target":34962
		},
		{
			"buffer":0,
			"byteLength":160,
			"byteOffset":1908972,
			"target":34962
		},
		{
			"buffer":0,
			"byteLength":48,
			"byteOffset":1909132,
			"target":34962
		},
		{
			"buffer":0,
			"byteLength":48,
			"byteOffset":1909180,
			"target":34962
		},
		{
			"buffer":0,
			"byteLength":32,
			"byteOffset":1909228,
			"target":34962
		},
		{
			"buffer":0,
			"byteLength":240,
			"byteOffset":1909260,
			"target":34962
		},
		{
			"buffer":0,
			"byteLength":240,
			"byteOffset":1909500,
			"target":34962
		},
		{
			"buffer":0,
			"byteLength":160,
			"byteOffset":1909740,
			"target":34962
		},
		{
			"buffer":0,
			"byteLength":48,
			"byteOffset":1909900,
			"target":34962
		},
		{
			"buffer":0,
			"byteLength":48,
			"byteOffset":1909948,
			"target":34962
		},
		{
			"buffer":0,
			"byteLength":32,
			"byteOffset":1909996,
			"target":34962
		},
		{
			"buffer":0,
			"byteLength":5280,
			"byteOffset":1910028,
			"target":34962
		},
		{
			"buffer":0,
			"byteLength":5280,
			"byteOffset":1915308,
			"target":34962
		},
		{
			"buffer":0,
			"byteLength":3520,
			"byteOffset":1920588,
			"target":34962
		},
		{
			"buffer":0,
			"byteLength":1320,
			"byteOffset":1924108,
			"target":34963
		},
		{
			"buffer":0,
			"byteLength":1056,
			"byteOffset":1925428,
			"target":34962
		},
		{
			"buffer":0,
			"byteLength":1056,
			"byteOffset":1926484,
			"target":34962
		},
		{
			"buffer":0,
			"byteLength":704,
			"byteOffset":1927540,
			"target":34962
		},
		{
			"buffer":0,
			"byteLength":264,
			"byteOffset":1928244,
			"target":34963
		},
		{
			"buffer":0,
			"byteLength":73392,
			"byteOffset":1928508,
			"target":34962
		},
		{
			"buffer":0,
			"byteLength":73392,
			"byteOffset":2001900,
			"target":34962
		},
		{
			"buffer":0,
			"byteLength":48928,
			"byteOffset":2075292,
			"target":34962
		},
		{
			"buffer":0,
			"byteLength":27192,
			"byteOffset":2124220,
			"target":34963
		},
		{
			"buffer":0,
			"byteLength":38808,
			"byteOffset":2151412,
			"target":34962
		},
		{
			"buffer":0,
			"byteLength":38808,
			"byteOffset":2190220,
			"target":34962
		},
		{
			"buffer":0,
			"byteLength":25872,
			"byteOffset":2229028,
			"target":34962
		},
		{
			"buffer":0,
			"byteLength":23232,
			"byteOffset":2254900,
			"target":34963
		},
		{
			"buffer":0,
			"byteLength":288,
			"byteOffset":2278132,
			"target":34962
		},
		{
			"buffer":0,
			"byteLength":288,
			"byteOffset":2278420,
			"target":34962
		},
		{
			"buffer":0,
			"byteLength":192,
			"byteOffset":2278708,
			"target":34962
		},
		{
			"buffer":0,
			"byteLength":72,
			"byteOffset":2278900,
			"target":34963
		}
	],
	"samplers":[
		{
			"magFilter":9729,
			"minFilter":9987
		}
	],
	"buffers":[
		{
			"byteLength":2278972,
			"uri":"Mazar.bin"
		}
	]
}
