{
	"asset":{
		"generator":"Khronos glTF Blender I/O v4.2.57",
		"version":"2.0"
	},
	"extensionsUsed":[
		"KHR_materials_transmission",
		"KHR_materials_ior",
		"KHR_texture_transform"
	],
	"extensionsRequired":[
		"KHR_texture_transform"
	],
	"scene":0,
	"scenes":[
		{
			"name":"Scene",
			"nodes":[
				0,
				1,
				2,
				3,
				4,
				5,
				6,
				7,
				8,
				9,
				10,
				11,
				12,
				13,
				14,
				15,
				16,
				17,
				18,
				19,
				20,
				21,
				22,
				26,
				27,
				28,
				29,
				30,
				31,
				32
			]
		}
	],
	"nodes":[
		{
			"mesh":0,
			"name":"West Roof",
			"translation":[
				-41.58283233642578,
				8.458757400512695,
				0
			]
		},
		{
			"mesh":1,
			"name":"East Roof",
			"rotation":[
				0,
				0.7071068286895752,
				0,
				0.7071068286895752
			],
			"translation":[
				19.589996337890625,
				8.458757400512695,
				21.51927947998047
			]
		},
		{
			"mesh":2,
			"name":"Roof Wall",
			"translation":[
				0,
				8.916666984558105,
				0
			]
		},
		{
			"mesh":3,
			"name":"Flat Roof",
			"translation":[
				0,
				11.010001182556152,
				0
			]
		},
		{
			"mesh":4,
			"name":"Roof Border",
			"translation":[
				-2.0388870239257812,
				5.75,
				11.577778816223145
			]
		},
		{
			"mesh":5,
			"name":"Door Frame_01",
			"translation":[
				6.294696807861328,
				0,
				29.57442855834961
			]
		},
		{
			"mesh":6,
			"name":"Door Frame_02",
			"translation":[
				6.294696807861328,
				0,
				29.57442855834961
			]
		},
		{
			"mesh":7,
			"name":"Door Frame_03",
			"translation":[
				19.590003967285156,
				0,
				43.61530303955078
			]
		},
		{
			"mesh":8,
			"name":"Door Frame_04",
			"translation":[
				19.590003967285156,
				0,
				43.61530303955078
			]
		},
		{
			"mesh":9,
			"name":"Door Glass_01",
			"translation":[
				19.590003967285156,
				0,
				43.61530303955078
			]
		},
		{
			"mesh":10,
			"name":"Door Glass_02",
			"translation":[
				19.590003967285156,
				0,
				43.61530303955078
			]
		},
		{
			"mesh":11,
			"name":"Door Glass_03",
			"translation":[
				6.294696807861328,
				0,
				29.57442855834961
			]
		},
		{
			"mesh":12,
			"name":"Door Glass_04",
			"translation":[
				6.294696807861328,
				0,
				29.57442855834961
			]
		},
		{
			"mesh":13,
			"name":"Ground",
			"translation":[
				-29.8699951171875,
				0,
				29.479999542236328
			]
		},
		{
			"mesh":14,
			"name":"Glass Door",
			"translation":[
				0,
				3.375,
				14.164320945739746
			]
		},
		{
			"mesh":15,
			"name":"Glass Door Top",
			"translation":[
				0,
				7.875,
				14.164319038391113
			]
		},
		{
			"mesh":16,
			"name":"Door Glass_05",
			"translation":[
				0,
				0,
				14.1881685256958
			]
		},
		{
			"mesh":17,
			"name":"Door Frame_05",
			"translation":[
				0,
				0,
				14.1881685256958
			]
		},
		{
			"mesh":18,
			"name":"Door Frame_06",
			"translation":[
				0,
				0,
				14.1881685256958
			]
		},
		{
			"mesh":19,
			"name":"Door Frame_07",
			"translation":[
				0,
				0,
				14.1881685256958
			]
		},
		{
			"mesh":20,
			"name":"Main Wall",
			"translation":[
				-29.8699951171875,
				0,
				29.479999542236328
			]
		},
		{
			"mesh":21,
			"name":"Door Frame_08",
			"translation":[
				-64.6634521484375,
				0,
				0
			]
		},
		{
			"mesh":22,
			"name":"Door Frame_09",
			"translation":[
				-64.6634521484375,
				0,
				0
			]
		},
		{
			"mesh":23,
			"name":"Door Frame_11",
			"translation":[
				0,
				0,
				4.881088898400776e-06
			]
		},
		{
			"mesh":24,
			"name":"door glass 4.002",
			"translation":[
				-4.232952960592229e-06,
				0,
				4.881089353148127e-06
			]
		},
		{
			"mesh":25,
			"name":"door glass 5.002",
			"translation":[
				-4.232952960592229e-06,
				0,
				4.881089353148127e-06
			]
		},
		{
			"children":[
				23,
				24,
				25
			],
			"mesh":26,
			"name":"Door Frame_10",
			"rotation":[
				0,
				0.7071067094802856,
				0,
				0.7071068286895752
			],
			"translation":[
				-56.06716537475586,
				0,
				14.124786376953125
			]
		},
		{
			"mesh":27,
			"name":"Door Frame_12",
			"rotation":[
				0,
				0.7071067094802856,
				0,
				0.7071068286895752
			],
			"translation":[
				-14.160938262939453,
				0,
				14.124786376953125
			]
		},
		{
			"mesh":28,
			"name":"Door Glass_06",
			"rotation":[
				0,
				0.7071067094802856,
				0,
				0.7071068286895752
			],
			"translation":[
				-14.160938262939453,
				0,
				14.124786376953125
			]
		},
		{
			"mesh":29,
			"name":"Door Glass_07",
			"rotation":[
				0,
				0.7071067094802856,
				0,
				0.7071068286895752
			],
			"translation":[
				-14.160938262939453,
				0,
				14.124786376953125
			]
		},
		{
			"mesh":30,
			"name":"Door Frame_13",
			"rotation":[
				0,
				0.7071067094802856,
				0,
				0.7071068286895752
			],
			"translation":[
				-14.160940170288086,
				0,
				14.124786376953125
			]
		},
		{
			"mesh":31,
			"name":"Door Glass_09",
			"translation":[
				-64.6634521484375,
				0,
				0
			]
		},
		{
			"mesh":32,
			"name":"Door Glass_08",
			"translation":[
				-64.6634521484375,
				0,
				0
			]
		}
	],
	"materials":[
		{
			"doubleSided":true,
			"name":"Roof",
			"normalTexture":{
				"extensions":{
					"KHR_texture_transform":{
						"offset":[
							-9.99999999999999,
							1.0000004371139
						],
						"rotation":1.5707963705062866,
						"scale":[
							10,
							10
						]
					}
				},
				"index":0
			},
			"pbrMetallicRoughness":{
				"baseColorTexture":{
					"extensions":{
						"KHR_texture_transform":{
							"offset":[
								-9.99999999999999,
								1.0000004371139
							],
							"rotation":1.5707963705062866,
							"scale":[
								10,
								10
							]
						}
					},
					"index":1
				},
				"metallicFactor":0,
				"metallicRoughnessTexture":{
					"extensions":{
						"KHR_texture_transform":{
							"offset":[
								-9.99999999999999,
								1.0000004371139
							],
							"rotation":1.5707963705062866,
							"scale":[
								10,
								10
							]
						}
					},
					"index":2
				}
			}
		},
		{
			"doubleSided":true,
			"name":"Roof Wall",
			"normalTexture":{
				"extensions":{
					"KHR_texture_transform":{
						"offset":[
							0,
							-2
						],
						"scale":[
							5,
							3
						]
					}
				},
				"index":3
			},
			"pbrMetallicRoughness":{
				"baseColorTexture":{
					"extensions":{
						"KHR_texture_transform":{
							"offset":[
								0,
								-2
							],
							"scale":[
								5,
								3
							]
						}
					},
					"index":4
				},
				"metallicFactor":0,
				"metallicRoughnessTexture":{
					"extensions":{
						"KHR_texture_transform":{
							"offset":[
								0,
								-2
							],
							"scale":[
								5,
								3
							]
						}
					},
					"index":5
				}
			}
		},
		{
			"doubleSided":true,
			"name":"Roof Border",
			"pbrMetallicRoughness":{
				"roughnessFactor":0.5
			}
		},
		{
			"doubleSided":true,
			"name":"Door Frame",
			"pbrMetallicRoughness":{
				"baseColorFactor":[
					0.01631178893148899,
					0.01631178893148899,
					0.01631178893148899,
					1
				],
				"metallicFactor":0,
				"roughnessFactor":0.05678302049636841
			}
		},
		{
			"doubleSided":true,
			"extensions":{
				"KHR_materials_transmission":{
					"transmissionFactor":1
				},
				"KHR_materials_ior":{
					"ior":1.100000023841858
				}
			},
			"name":"Glass Door",
			"pbrMetallicRoughness":{
				"metallicFactor":0,
				"roughnessFactor":0
			}
		},
		{
			"doubleSided":true,
			"name":"Floor",
			"normalTexture":{
				"extensions":{
					"KHR_texture_transform":{
						"offset":[
							0,
							-6
						],
						"scale":[
							7,
							7
						]
					}
				},
				"index":6,
				"scale":0.5
			},
			"pbrMetallicRoughness":{
				"baseColorTexture":{
					"extensions":{
						"KHR_texture_transform":{
							"offset":[
								0,
								-6
							],
							"scale":[
								7,
								7
							]
						}
					},
					"index":7
				},
				"metallicFactor":0,
				"metallicRoughnessTexture":{
					"extensions":{
						"KHR_texture_transform":{
							"offset":[
								0,
								-6
							],
							"scale":[
								7,
								7
							]
						}
					},
					"index":8
				}
			}
		},
		{
			"doubleSided":true,
			"extensions":{
				"KHR_materials_transmission":{
					"transmissionFactor":1
				},
				"KHR_materials_ior":{
					"ior":1.100000023841858
				}
			},
			"name":"Glass Wall",
			"pbrMetallicRoughness":{
				"baseColorFactor":[
					0.34742823243141174,
					0.34742823243141174,
					0.34742823243141174,
					1
				],
				"metallicFactor":0,
				"roughnessFactor":0
			}
		},
		{
			"doubleSided":true,
			"name":"Wall",
			"normalTexture":{
				"extensions":{
					"KHR_texture_transform":{
						"offset":[
							0,
							-2
						],
						"scale":[
							5,
							3
						]
					}
				},
				"index":9
			},
			"pbrMetallicRoughness":{
				"baseColorTexture":{
					"extensions":{
						"KHR_texture_transform":{
							"offset":[
								0,
								-2
							],
							"scale":[
								5,
								3
							]
						}
					},
					"index":10
				},
				"metallicFactor":0,
				"metallicRoughnessTexture":{
					"extensions":{
						"KHR_texture_transform":{
							"offset":[
								0,
								-2
							],
							"scale":[
								5,
								3
							]
						}
					},
					"index":11
				}
			}
		}
	],
	"meshes":[
		{
			"name":"West Roof",
			"primitives":[
				{
					"attributes":{
						"POSITION":0,
						"NORMAL":1,
						"TEXCOORD_0":2
					},
					"indices":3,
					"material":0
				}
			]
		},
		{
			"name":"East Roof",
			"primitives":[
				{
					"attributes":{
						"POSITION":4,
						"NORMAL":5,
						"TEXCOORD_0":6
					},
					"indices":7,
					"material":0
				}
			]
		},
		{
			"name":"Roof Wall",
			"primitives":[
				{
					"attributes":{
						"POSITION":8,
						"NORMAL":9,
						"TEXCOORD_0":10
					},
					"indices":11,
					"material":1
				}
			]
		},
		{
			"name":"Flat Roof",
			"primitives":[
				{
					"attributes":{
						"POSITION":12,
						"NORMAL":13,
						"TEXCOORD_0":14
					},
					"indices":15
				}
			]
		},
		{
			"name":"Roof Border",
			"primitives":[
				{
					"attributes":{
						"POSITION":16,
						"NORMAL":17,
						"TEXCOORD_0":18
					},
					"indices":19,
					"material":2
				}
			]
		},
		{
			"name":"Door Frame_01",
			"primitives":[
				{
					"attributes":{
						"POSITION":20,
						"NORMAL":21,
						"TEXCOORD_0":22
					},
					"indices":23,
					"material":3
				}
			]
		},
		{
			"name":"Door Frame_02",
			"primitives":[
				{
					"attributes":{
						"POSITION":24,
						"NORMAL":25,
						"TEXCOORD_0":26
					},
					"indices":27,
					"material":3
				}
			]
		},
		{
			"name":"Door Frame_03",
			"primitives":[
				{
					"attributes":{
						"POSITION":28,
						"NORMAL":29,
						"TEXCOORD_0":30
					},
					"indices":31,
					"material":3
				}
			]
		},
		{
			"name":"Door Frame_04",
			"primitives":[
				{
					"attributes":{
						"POSITION":32,
						"NORMAL":33,
						"TEXCOORD_0":34
					},
					"indices":35,
					"material":3
				}
			]
		},
		{
			"name":"Door Glass_01",
			"primitives":[
				{
					"attributes":{
						"POSITION":36,
						"NORMAL":37,
						"TEXCOORD_0":38
					},
					"indices":39,
					"material":4
				}
			]
		},
		{
			"name":"Door Glass_02",
			"primitives":[
				{
					"attributes":{
						"POSITION":40,
						"NORMAL":41,
						"TEXCOORD_0":42
					},
					"indices":43,
					"material":4
				}
			]
		},
		{
			"name":"Door Glass_03",
			"primitives":[
				{
					"attributes":{
						"POSITION":44,
						"NORMAL":45,
						"TEXCOORD_0":46
					},
					"indices":47,
					"material":4
				}
			]
		},
		{
			"name":"Door Glass_04",
			"primitives":[
				{
					"attributes":{
						"POSITION":48,
						"NORMAL":49,
						"TEXCOORD_0":50
					},
					"indices":51,
					"material":4
				}
			]
		},
		{
			"name":"Ground",
			"primitives":[
				{
					"attributes":{
						"POSITION":52,
						"NORMAL":53,
						"TEXCOORD_0":54
					},
					"indices":55,
					"material":5
				}
			]
		},
		{
			"name":"Glass Door",
			"primitives":[
				{
					"attributes":{
						"POSITION":56,
						"NORMAL":57,
						"TEXCOORD_0":58
					},
					"indices":59,
					"material":6
				}
			]
		},
		{
			"name":"Glass Door Top",
			"primitives":[
				{
					"attributes":{
						"POSITION":60,
						"NORMAL":61,
						"TEXCOORD_0":62
					},
					"indices":63,
					"material":6
				}
			]
		},
		{
			"name":"Door Glass_05",
			"primitives":[
				{
					"attributes":{
						"POSITION":64,
						"NORMAL":65,
						"TEXCOORD_0":66
					},
					"indices":67,
					"material":4
				}
			]
		},
		{
			"name":"Door Frame_05",
			"primitives":[
				{
					"attributes":{
						"POSITION":68,
						"NORMAL":69,
						"TEXCOORD_0":70
					},
					"indices":71,
					"material":3
				}
			]
		},
		{
			"name":"Door Frame_06",
			"primitives":[
				{
					"attributes":{
						"POSITION":72,
						"NORMAL":73,
						"TEXCOORD_0":74
					},
					"indices":75,
					"material":3
				}
			]
		},
		{
			"name":"Door Frame_07",
			"primitives":[
				{
					"attributes":{
						"POSITION":76,
						"NORMAL":77,
						"TEXCOORD_0":78
					},
					"indices":79,
					"material":3
				}
			]
		},
		{
			"name":"Main Wall",
			"primitives":[
				{
					"attributes":{
						"POSITION":80,
						"NORMAL":81,
						"TEXCOORD_0":82
					},
					"indices":83,
					"material":7
				}
			]
		},
		{
			"name":"Door Frame_08",
			"primitives":[
				{
					"attributes":{
						"POSITION":84,
						"NORMAL":85,
						"TEXCOORD_0":86
					},
					"indices":23,
					"material":3
				}
			]
		},
		{
			"name":"Door Frame_09",
			"primitives":[
				{
					"attributes":{
						"POSITION":87,
						"NORMAL":88,
						"TEXCOORD_0":89
					},
					"indices":27,
					"material":3
				}
			]
		},
		{
			"name":"door glass 1.002",
			"primitives":[
				{
					"attributes":{
						"POSITION":90,
						"NORMAL":91,
						"TEXCOORD_0":92
					},
					"indices":27,
					"material":3
				}
			]
		},
		{
			"name":"Plane.035",
			"primitives":[
				{
					"attributes":{
						"POSITION":93,
						"NORMAL":94,
						"TEXCOORD_0":95
					},
					"indices":47,
					"material":4
				}
			]
		},
		{
			"name":"Plane.034",
			"primitives":[
				{
					"attributes":{
						"POSITION":96,
						"NORMAL":97,
						"TEXCOORD_0":98
					},
					"indices":51,
					"material":4
				}
			]
		},
		{
			"name":"Door Frame_10",
			"primitives":[
				{
					"attributes":{
						"POSITION":99,
						"NORMAL":100,
						"TEXCOORD_0":101
					},
					"indices":23,
					"material":3
				}
			]
		},
		{
			"name":"Door Frame_12",
			"primitives":[
				{
					"attributes":{
						"POSITION":102,
						"NORMAL":103,
						"TEXCOORD_0":104
					},
					"indices":23,
					"material":3
				}
			]
		},
		{
			"name":"Door Glass_06",
			"primitives":[
				{
					"attributes":{
						"POSITION":105,
						"NORMAL":106,
						"TEXCOORD_0":107
					},
					"indices":51,
					"material":4
				}
			]
		},
		{
			"name":"Door Glass_07",
			"primitives":[
				{
					"attributes":{
						"POSITION":108,
						"NORMAL":109,
						"TEXCOORD_0":110
					},
					"indices":47,
					"material":4
				}
			]
		},
		{
			"name":"Door Frame_13",
			"primitives":[
				{
					"attributes":{
						"POSITION":111,
						"NORMAL":112,
						"TEXCOORD_0":113
					},
					"indices":27,
					"material":3
				}
			]
		},
		{
			"name":"Door Glass_09",
			"primitives":[
				{
					"attributes":{
						"POSITION":114,
						"NORMAL":115,
						"TEXCOORD_0":116
					},
					"indices":47,
					"material":4
				}
			]
		},
		{
			"name":"Door Glass_08",
			"primitives":[
				{
					"attributes":{
						"POSITION":117,
						"NORMAL":118,
						"TEXCOORD_0":119
					},
					"indices":51,
					"material":4
				}
			]
		}
	],
	"textures":[
		{
			"sampler":0,
			"source":0
		},
		{
			"sampler":0,
			"source":1
		},
		{
			"sampler":0,
			"source":2
		},
		{
			"sampler":0,
			"source":3
		},
		{
			"sampler":0,
			"source":4
		},
		{
			"sampler":0,
			"source":5
		},
		{
			"sampler":0,
			"source":6
		},
		{
			"sampler":0,
			"source":7
		},
		{
			"sampler":0,
			"source":8
		},
		{
			"sampler":0,
			"source":9
		},
		{
			"sampler":0,
			"source":10
		},
		{
			"sampler":0,
			"source":11
		}
	],
	"images":[
		{
			"mimeType":"image/jpeg",
			"name":"CorrugatedSteel008A_2K_NormalGL",
			"uri":"CorrugatedSteel008A_2K_NormalGL.jpg"
		},
		{
			"mimeType":"image/jpeg",
			"name":"CorrugatedSteel008A_2K_Color",
			"uri":"CorrugatedSteel008A_2K_Color.jpg"
		},
		{
			"mimeType":"image/png",
			"name":"CorrugatedSteel008A_2K_Roughness",
			"uri":"CorrugatedSteel008A_2K_Roughness.png"
		},
		{
			"mimeType":"image/jpeg",
			"name":"Plaster001_2K_NormalGL",
			"uri":"Plaster001_2K_NormalGL.jpg"
		},
		{
			"mimeType":"image/jpeg",
			"name":"Plaster001_2K_Color",
			"uri":"Plaster001_2K_Color.jpg"
		},
		{
			"mimeType":"image/png",
			"name":"Plaster001_2K_Roughness",
			"uri":"Plaster001_2K_Roughness.png"
		},
		{
			"mimeType":"image/jpeg",
			"name":"Tiles107_4K_NormalGL",
			"uri":"Tiles107_4K_NormalGL.jpg"
		},
		{
			"mimeType":"image/jpeg",
			"name":"Tiles107_4K_AmbientOcclusion",
			"uri":"Tiles107_4K_AmbientOcclusion.jpg"
		},
		{
			"mimeType":"image/png",
			"name":"Tiles107_4K_Roughness",
			"uri":"Tiles107_4K_Roughness.png"
		},
		{
			"mimeType":"image/jpeg",
			"name":"Plaster001_2K_NormalGL",
			"uri":"Plaster001_2K_NormalGL-1.jpg"
		},
		{
			"mimeType":"image/jpeg",
			"name":"Plaster001_2K_Color",
			"uri":"Plaster001_2K_Color-1.jpg"
		},
		{
			"mimeType":"image/png",
			"name":"Plaster001_2K_Roughness",
			"uri":"Plaster001_2K_Roughness-1.png"
		}
	],
	"accessors":[
		{
			"bufferView":0,
			"componentType":5126,
			"count":274,
			"max":[
				36.312835693359375,
				1.5412425994873047,
				14.319998741149902
			],
			"min":[
				-23.722108840942383,
				-1.9587574005126953,
				-14.320000648498535
			],
			"type":"VEC3"
		},
		{
			"bufferView":1,
			"componentType":5126,
			"count":274,
			"type":"VEC3"
		},
		{
			"bufferView":2,
			"componentType":5126,
			"count":274,
			"type":"VEC2"
		},
		{
			"bufferView":3,
			"componentType":5123,
			"count":1149,
			"type":"SCALAR"
		},
		{
			"bufferView":4,
			"componentType":5126,
			"count":289,
			"max":[
				35.83927917480469,
				1.5412425994873047,
				14.320005416870117
			],
			"min":[
				-23.415660858154297,
				-1.9587574005126953,
				-14.31999397277832
			],
			"type":"VEC3"
		},
		{
			"bufferView":5,
			"componentType":5126,
			"count":289,
			"type":"VEC3"
		},
		{
			"bufferView":6,
			"componentType":5126,
			"count":289,
			"type":"VEC2"
		},
		{
			"bufferView":7,
			"componentType":5123,
			"count":1188,
			"type":"SCALAR"
		},
		{
			"bufferView":8,
			"componentType":5126,
			"count":36,
			"max":[
				5.269999980926514,
				2.0833330154418945,
				14.319999694824219
			],
			"min":[
				-5.269999980926514,
				-2.4166669845581055,
				-14.319999694824219
			],
			"type":"VEC3"
		},
		{
			"bufferView":9,
			"componentType":5126,
			"count":36,
			"type":"VEC3"
		},
		{
			"bufferView":10,
			"componentType":5126,
			"count":36,
			"type":"VEC2"
		},
		{
			"bufferView":11,
			"componentType":5123,
			"count":90,
			"type":"SCALAR"
		},
		{
			"bufferView":12,
			"componentType":5126,
			"count":8,
			"max":[
				5.270000457763672,
				-9.5367431640625e-07,
				14.319999694824219
			],
			"min":[
				-5.270000457763672,
				-9.5367431640625e-07,
				-14.319999694824219
			],
			"type":"VEC3"
		},
		{
			"bufferView":13,
			"componentType":5126,
			"count":8,
			"type":"VEC3"
		},
		{
			"bufferView":14,
			"componentType":5126,
			"count":8,
			"type":"VEC2"
		},
		{
			"bufferView":15,
			"componentType":5123,
			"count":18,
			"type":"SCALAR"
		},
		{
			"bufferView":16,
			"componentType":5126,
			"count":100,
			"max":[
				37.148887634277344,
				0.75,
				34.26222229003906
			],
			"min":[
				-64.17111206054688,
				-0.75,
				-27.0977783203125
			],
			"type":"VEC3"
		},
		{
			"bufferView":17,
			"componentType":5126,
			"count":100,
			"type":"VEC3"
		},
		{
			"bufferView":18,
			"componentType":5126,
			"count":100,
			"type":"VEC2"
		},
		{
			"bufferView":19,
			"componentType":5123,
			"count":204,
			"type":"SCALAR"
		},
		{
			"bufferView":20,
			"componentType":5126,
			"count":100,
			"max":[
				0.024692535400390625,
				2.5,
				1.5
			],
			"min":[
				-0.024692535400390625,
				0,
				-1.5
			],
			"type":"VEC3"
		},
		{
			"bufferView":21,
			"componentType":5126,
			"count":100,
			"type":"VEC3"
		},
		{
			"bufferView":22,
			"componentType":5126,
			"count":100,
			"type":"VEC2"
		},
		{
			"bufferView":23,
			"componentType":5123,
			"count":198,
			"type":"SCALAR"
		},
		{
			"bufferView":24,
			"componentType":5126,
			"count":48,
			"max":[
				0.024692535400390625,
				2.5,
				0.5
			],
			"min":[
				-0.024692535400390625,
				0,
				-0.5
			],
			"type":"VEC3"
		},
		{
			"bufferView":25,
			"componentType":5126,
			"count":48,
			"type":"VEC3"
		},
		{
			"bufferView":26,
			"componentType":5126,
			"count":48,
			"type":"VEC2"
		},
		{
			"bufferView":27,
			"componentType":5123,
			"count":96,
			"type":"SCALAR"
		},
		{
			"bufferView":28,
			"componentType":5126,
			"count":96,
			"max":[
				1.5,
				2.5,
				0.02469635009765625
			],
			"min":[
				-1.5,
				0,
				-0.024688720703125
			],
			"type":"VEC3"
		},
		{
			"bufferView":29,
			"componentType":5126,
			"count":96,
			"type":"VEC3"
		},
		{
			"bufferView":30,
			"componentType":5126,
			"count":96,
			"type":"VEC2"
		},
		{
			"bufferView":31,
			"componentType":5123,
			"count":192,
			"type":"SCALAR"
		},
		{
			"bufferView":32,
			"componentType":5126,
			"count":52,
			"max":[
				0.5,
				2.5,
				0.02469635009765625
			],
			"min":[
				-0.5,
				0,
				-0.024688720703125
			],
			"type":"VEC3"
		},
		{
			"bufferView":33,
			"componentType":5126,
			"count":52,
			"type":"VEC3"
		},
		{
			"bufferView":34,
			"componentType":5126,
			"count":52,
			"type":"VEC2"
		},
		{
			"bufferView":35,
			"componentType":5123,
			"count":96,
			"type":"SCALAR"
		},
		{
			"bufferView":36,
			"componentType":5126,
			"count":8,
			"max":[
				1.3878440856933594,
				2.387843370437622,
				-0.024688720703125
			],
			"min":[
				-1.3878440856933594,
				0.11215658485889435,
				-0.024688720703125
			],
			"type":"VEC3"
		},
		{
			"bufferView":37,
			"componentType":5126,
			"count":8,
			"type":"VEC3"
		},
		{
			"bufferView":38,
			"componentType":5126,
			"count":8,
			"type":"VEC2"
		},
		{
			"bufferView":39,
			"componentType":5123,
			"count":12,
			"type":"SCALAR"
		},
		{
			"bufferView":40,
			"componentType":5126,
			"count":4,
			"max":[
				0.3878440856933594,
				2.387843370437622,
				-0.024688720703125
			],
			"min":[
				-0.3878440856933594,
				0.11215658485889435,
				-0.024688720703125
			],
			"type":"VEC3"
		},
		{
			"bufferView":41,
			"componentType":5126,
			"count":4,
			"type":"VEC3"
		},
		{
			"bufferView":42,
			"componentType":5126,
			"count":4,
			"type":"VEC2"
		},
		{
			"bufferView":43,
			"componentType":5123,
			"count":6,
			"type":"SCALAR"
		},
		{
			"bufferView":44,
			"componentType":5126,
			"count":8,
			"max":[
				0.024692535400390625,
				2.387843370437622,
				1.3878440856933594
			],
			"min":[
				0.024692535400390625,
				0.11215658485889435,
				-1.3878440856933594
			],
			"type":"VEC3"
		},
		{
			"bufferView":45,
			"componentType":5126,
			"count":8,
			"type":"VEC3"
		},
		{
			"bufferView":46,
			"componentType":5126,
			"count":8,
			"type":"VEC2"
		},
		{
			"bufferView":47,
			"componentType":5123,
			"count":12,
			"type":"SCALAR"
		},
		{
			"bufferView":48,
			"componentType":5126,
			"count":4,
			"max":[
				0.024692535400390625,
				2.387843370437622,
				0.3878440856933594
			],
			"min":[
				0.024692535400390625,
				0.11215658485889435,
				-0.3878440856933594
			],
			"type":"VEC3"
		},
		{
			"bufferView":49,
			"componentType":5126,
			"count":4,
			"type":"VEC3"
		},
		{
			"bufferView":50,
			"componentType":5126,
			"count":4,
			"type":"VEC2"
		},
		{
			"bufferView":51,
			"componentType":5123,
			"count":6,
			"type":"SCALAR"
		},
		{
			"bufferView":52,
			"componentType":5126,
			"count":40,
			"max":[
				63.779998779296875,
				0.013458007015287876,
				15.15999984741211
			],
			"min":[
				-35.14000701904297,
				0,
				-43.79999923706055
			],
			"type":"VEC3"
		},
		{
			"bufferView":53,
			"componentType":5126,
			"count":40,
			"type":"VEC3"
		},
		{
			"bufferView":54,
			"componentType":5126,
			"count":40,
			"type":"VEC2"
		},
		{
			"bufferView":55,
			"componentType":5123,
			"count":84,
			"type":"SCALAR"
		},
		{
			"bufferView":56,
			"componentType":5126,
			"count":18,
			"max":[
				4.069999694824219,
				3.125,
				-1.9073486328125e-06
			],
			"min":[
				-4.069999694824219,
				-3.375,
				-1.9073486328125e-06
			],
			"type":"VEC3"
		},
		{
			"bufferView":57,
			"componentType":5126,
			"count":18,
			"type":"VEC3"
		},
		{
			"bufferView":58,
			"componentType":5126,
			"count":18,
			"type":"VEC2"
		},
		{
			"bufferView":59,
			"componentType":5123,
			"count":42,
			"type":"SCALAR"
		},
		{
			"bufferView":60,
			"componentType":5126,
			"count":4,
			"max":[
				4.069999694824219,
				1.375,
				0
			],
			"min":[
				-4.069999694824219,
				-1.375,
				0
			],
			"type":"VEC3"
		},
		{
			"bufferView":61,
			"componentType":5126,
			"count":4,
			"type":"VEC3"
		},
		{
			"bufferView":62,
			"componentType":5126,
			"count":4,
			"type":"VEC2"
		},
		{
			"bufferView":63,
			"componentType":5123,
			"count":6,
			"type":"SCALAR"
		},
		{
			"bufferView":64,
			"componentType":5126,
			"count":12,
			"max":[
				1.4186248779296875,
				2.418623208999634,
				-0.0238494873046875
			],
			"min":[
				-1.4186248779296875,
				0.081376813352108,
				-0.0238494873046875
			],
			"type":"VEC3"
		},
		{
			"bufferView":65,
			"componentType":5126,
			"count":12,
			"type":"VEC3"
		},
		{
			"bufferView":66,
			"componentType":5126,
			"count":12,
			"type":"VEC2"
		},
		{
			"bufferView":67,
			"componentType":5123,
			"count":18,
			"type":"SCALAR"
		},
		{
			"bufferView":68,
			"componentType":5126,
			"count":48,
			"max":[
				-0.5,
				2.5,
				0.0238494873046875
			],
			"min":[
				-1.5,
				0,
				-0.0238494873046875
			],
			"type":"VEC3"
		},
		{
			"bufferView":69,
			"componentType":5126,
			"count":48,
			"type":"VEC3"
		},
		{
			"bufferView":70,
			"componentType":5126,
			"count":48,
			"type":"VEC2"
		},
		{
			"bufferView":71,
			"componentType":5123,
			"count":96,
			"type":"SCALAR"
		},
		{
			"bufferView":72,
			"componentType":5126,
			"count":48,
			"max":[
				1.5,
				2.5,
				0.0238494873046875
			],
			"min":[
				0.5,
				0,
				-0.0238494873046875
			],
			"type":"VEC3"
		},
		{
			"bufferView":73,
			"componentType":5126,
			"count":48,
			"type":"VEC3"
		},
		{
			"bufferView":74,
			"componentType":5126,
			"count":48,
			"type":"VEC2"
		},
		{
			"bufferView":75,
			"componentType":5123,
			"count":96,
			"type":"SCALAR"
		},
		{
			"bufferView":76,
			"componentType":5126,
			"count":48,
			"max":[
				0.5,
				2.5,
				0.0238494873046875
			],
			"min":[
				-0.5,
				0,
				-0.0238494873046875
			],
			"type":"VEC3"
		},
		{
			"bufferView":77,
			"componentType":5126,
			"count":48,
			"type":"VEC3"
		},
		{
			"bufferView":78,
			"componentType":5126,
			"count":48,
			"type":"VEC2"
		},
		{
			"bufferView":79,
			"componentType":5123,
			"count":96,
			"type":"SCALAR"
		},
		{
			"bufferView":80,
			"componentType":5126,
			"count":706,
			"max":[
				63.779998779296875,
				6.5,
				15.15999984741211
			],
			"min":[
				-35.1400032043457,
				0,
				-43.79999923706055
			],
			"type":"VEC3"
		},
		{
			"bufferView":81,
			"componentType":5126,
			"count":706,
			"type":"VEC3"
		},
		{
			"bufferView":82,
			"componentType":5126,
			"count":706,
			"type":"VEC2"
		},
		{
			"bufferView":83,
			"componentType":5123,
			"count":2088,
			"type":"SCALAR"
		},
		{
			"bufferView":84,
			"componentType":5126,
			"count":100,
			"max":[
				0.02469635009765625,
				2.5,
				1.5
			],
			"min":[
				-0.024688720703125,
				0,
				-1.5
			],
			"type":"VEC3"
		},
		{
			"bufferView":85,
			"componentType":5126,
			"count":100,
			"type":"VEC3"
		},
		{
			"bufferView":86,
			"componentType":5126,
			"count":100,
			"type":"VEC2"
		},
		{
			"bufferView":87,
			"componentType":5126,
			"count":48,
			"max":[
				0.02469635009765625,
				2.5,
				0.5
			],
			"min":[
				-0.024688720703125,
				0,
				-0.5
			],
			"type":"VEC3"
		},
		{
			"bufferView":88,
			"componentType":5126,
			"count":48,
			"type":"VEC3"
		},
		{
			"bufferView":89,
			"componentType":5126,
			"count":48,
			"type":"VEC2"
		},
		{
			"bufferView":90,
			"componentType":5126,
			"count":48,
			"max":[
				0.024692535400390625,
				2.5,
				0.5
			],
			"min":[
				-0.024692535400390625,
				0,
				-0.5
			],
			"type":"VEC3"
		},
		{
			"bufferView":91,
			"componentType":5126,
			"count":48,
			"type":"VEC3"
		},
		{
			"bufferView":92,
			"componentType":5126,
			"count":48,
			"type":"VEC2"
		},
		{
			"bufferView":93,
			"componentType":5126,
			"count":8,
			"max":[
				0.024688720703125,
				2.387843370437622,
				1.3878555297851562
			],
			"min":[
				0.024688720703125,
				0.11215658485889435,
				-1.3878326416015625
			],
			"type":"VEC3"
		},
		{
			"bufferView":94,
			"componentType":5126,
			"count":8,
			"type":"VEC3"
		},
		{
			"bufferView":95,
			"componentType":5126,
			"count":8,
			"type":"VEC2"
		},
		{
			"bufferView":96,
			"componentType":5126,
			"count":4,
			"max":[
				0.024688720703125,
				2.387843370437622,
				0.38785552978515625
			],
			"min":[
				0.024688720703125,
				0.11215658485889435,
				-0.3878326416015625
			],
			"type":"VEC3"
		},
		{
			"bufferView":97,
			"componentType":5126,
			"count":4,
			"type":"VEC3"
		},
		{
			"bufferView":98,
			"componentType":5126,
			"count":4,
			"type":"VEC2"
		},
		{
			"bufferView":99,
			"componentType":5126,
			"count":100,
			"max":[
				0.024688720703125,
				2.5,
				1.5000114440917969
			],
			"min":[
				-0.02469635009765625,
				0,
				-1.4999885559082031
			],
			"type":"VEC3"
		},
		{
			"bufferView":100,
			"componentType":5126,
			"count":100,
			"type":"VEC3"
		},
		{
			"bufferView":101,
			"componentType":5126,
			"count":100,
			"type":"VEC2"
		},
		{
			"bufferView":102,
			"componentType":5126,
			"count":100,
			"max":[
				0.024688720703125,
				2.5,
				1.5000038146972656
			],
			"min":[
				-0.02469635009765625,
				0,
				-1.4999961853027344
			],
			"type":"VEC3"
		},
		{
			"bufferView":103,
			"componentType":5126,
			"count":100,
			"type":"VEC3"
		},
		{
			"bufferView":104,
			"componentType":5126,
			"count":100,
			"type":"VEC2"
		},
		{
			"bufferView":105,
			"componentType":5126,
			"count":4,
			"max":[
				0.024688720703125,
				2.387843370437622,
				0.387847900390625
			],
			"min":[
				0.024688720703125,
				0.11215658485889435,
				-0.38784027099609375
			],
			"type":"VEC3"
		},
		{
			"bufferView":106,
			"componentType":5126,
			"count":4,
			"type":"VEC3"
		},
		{
			"bufferView":107,
			"componentType":5126,
			"count":4,
			"type":"VEC2"
		},
		{
			"bufferView":108,
			"componentType":5126,
			"count":8,
			"max":[
				0.024688720703125,
				2.387843370437622,
				1.387847900390625
			],
			"min":[
				0.024688720703125,
				0.11215658485889435,
				-1.3878402709960938
			],
			"type":"VEC3"
		},
		{
			"bufferView":109,
			"componentType":5126,
			"count":8,
			"type":"VEC3"
		},
		{
			"bufferView":110,
			"componentType":5126,
			"count":8,
			"type":"VEC2"
		},
		{
			"bufferView":111,
			"componentType":5126,
			"count":48,
			"max":[
				0.024692535400390625,
				2.5,
				0.5
			],
			"min":[
				-0.024692535400390625,
				0,
				-0.5
			],
			"type":"VEC3"
		},
		{
			"bufferView":112,
			"componentType":5126,
			"count":48,
			"type":"VEC3"
		},
		{
			"bufferView":113,
			"componentType":5126,
			"count":48,
			"type":"VEC2"
		},
		{
			"bufferView":114,
			"componentType":5126,
			"count":8,
			"max":[
				0.02469635009765625,
				2.387843370437622,
				1.3878440856933594
			],
			"min":[
				0.02469635009765625,
				0.11215662956237793,
				-1.3878440856933594
			],
			"type":"VEC3"
		},
		{
			"bufferView":115,
			"componentType":5126,
			"count":8,
			"type":"VEC3"
		},
		{
			"bufferView":116,
			"componentType":5126,
			"count":8,
			"type":"VEC2"
		},
		{
			"bufferView":117,
			"componentType":5126,
			"count":4,
			"max":[
				0.02469635009765625,
				2.387843370437622,
				0.3878440856933594
			],
			"min":[
				0.02469635009765625,
				0.11215662956237793,
				-0.3878440856933594
			],
			"type":"VEC3"
		},
		{
			"bufferView":118,
			"componentType":5126,
			"count":4,
			"type":"VEC3"
		},
		{
			"bufferView":119,
			"componentType":5126,
			"count":4,
			"type":"VEC2"
		}
	],
	"bufferViews":[
		{
			"buffer":0,
			"byteLength":3288,
			"byteOffset":0,
			"target":34962
		},
		{
			"buffer":0,
			"byteLength":3288,
			"byteOffset":3288,
			"target":34962
		},
		{
			"buffer":0,
			"byteLength":2192,
			"byteOffset":6576,
			"target":34962
		},
		{
			"buffer":0,
			"byteLength":2298,
			"byteOffset":8768,
			"target":34963
		},
		{
			"buffer":0,
			"byteLength":3468,
			"byteOffset":11068,
			"target":34962
		},
		{
			"buffer":0,
			"byteLength":3468,
			"byteOffset":14536,
			"target":34962
		},
		{
			"buffer":0,
			"byteLength":2312,
			"byteOffset":18004,
			"target":34962
		},
		{
			"buffer":0,
			"byteLength":2376,
			"byteOffset":20316,
			"target":34963
		},
		{
			"buffer":0,
			"byteLength":432,
			"byteOffset":22692,
			"target":34962
		},
		{
			"buffer":0,
			"byteLength":432,
			"byteOffset":23124,
			"target":34962
		},
		{
			"buffer":0,
			"byteLength":288,
			"byteOffset":23556,
			"target":34962
		},
		{
			"buffer":0,
			"byteLength":180,
			"byteOffset":23844,
			"target":34963
		},
		{
			"buffer":0,
			"byteLength":96,
			"byteOffset":24024,
			"target":34962
		},
		{
			"buffer":0,
			"byteLength":96,
			"byteOffset":24120,
			"target":34962
		},
		{
			"buffer":0,
			"byteLength":64,
			"byteOffset":24216,
			"target":34962
		},
		{
			"buffer":0,
			"byteLength":36,
			"byteOffset":24280,
			"target":34963
		},
		{
			"buffer":0,
			"byteLength":1200,
			"byteOffset":24316,
			"target":34962
		},
		{
			"buffer":0,
			"byteLength":1200,
			"byteOffset":25516,
			"target":34962
		},
		{
			"buffer":0,
			"byteLength":800,
			"byteOffset":26716,
			"target":34962
		},
		{
			"buffer":0,
			"byteLength":408,
			"byteOffset":27516,
			"target":34963
		},
		{
			"buffer":0,
			"byteLength":1200,
			"byteOffset":27924,
			"target":34962
		},
		{
			"buffer":0,
			"byteLength":1200,
			"byteOffset":29124,
			"target":34962
		},
		{
			"buffer":0,
			"byteLength":800,
			"byteOffset":30324,
			"target":34962
		},
		{
			"buffer":0,
			"byteLength":396,
			"byteOffset":31124,
			"target":34963
		},
		{
			"buffer":0,
			"byteLength":576,
			"byteOffset":31520,
			"target":34962
		},
		{
			"buffer":0,
			"byteLength":576,
			"byteOffset":32096,
			"target":34962
		},
		{
			"buffer":0,
			"byteLength":384,
			"byteOffset":32672,
			"target":34962
		},
		{
			"buffer":0,
			"byteLength":192,
			"byteOffset":33056,
			"target":34963
		},
		{
			"buffer":0,
			"byteLength":1152,
			"byteOffset":33248,
			"target":34962
		},
		{
			"buffer":0,
			"byteLength":1152,
			"byteOffset":34400,
			"target":34962
		},
		{
			"buffer":0,
			"byteLength":768,
			"byteOffset":35552,
			"target":34962
		},
		{
			"buffer":0,
			"byteLength":384,
			"byteOffset":36320,
			"target":34963
		},
		{
			"buffer":0,
			"byteLength":624,
			"byteOffset":36704,
			"target":34962
		},
		{
			"buffer":0,
			"byteLength":624,
			"byteOffset":37328,
			"target":34962
		},
		{
			"buffer":0,
			"byteLength":416,
			"byteOffset":37952,
			"target":34962
		},
		{
			"buffer":0,
			"byteLength":192,
			"byteOffset":38368,
			"target":34963
		},
		{
			"buffer":0,
			"byteLength":96,
			"byteOffset":38560,
			"target":34962
		},
		{
			"buffer":0,
			"byteLength":96,
			"byteOffset":38656,
			"target":34962
		},
		{
			"buffer":0,
			"byteLength":64,
			"byteOffset":38752,
			"target":34962
		},
		{
			"buffer":0,
			"byteLength":24,
			"byteOffset":38816,
			"target":34963
		},
		{
			"buffer":0,
			"byteLength":48,
			"byteOffset":38840,
			"target":34962
		},
		{
			"buffer":0,
			"byteLength":48,
			"byteOffset":38888,
			"target":34962
		},
		{
			"buffer":0,
			"byteLength":32,
			"byteOffset":38936,
			"target":34962
		},
		{
			"buffer":0,
			"byteLength":12,
			"byteOffset":38968,
			"target":34963
		},
		{
			"buffer":0,
			"byteLength":96,
			"byteOffset":38980,
			"target":34962
		},
		{
			"buffer":0,
			"byteLength":96,
			"byteOffset":39076,
			"target":34962
		},
		{
			"buffer":0,
			"byteLength":64,
			"byteOffset":39172,
			"target":34962
		},
		{
			"buffer":0,
			"byteLength":24,
			"byteOffset":39236,
			"target":34963
		},
		{
			"buffer":0,
			"byteLength":48,
			"byteOffset":39260,
			"target":34962
		},
		{
			"buffer":0,
			"byteLength":48,
			"byteOffset":39308,
			"target":34962
		},
		{
			"buffer":0,
			"byteLength":32,
			"byteOffset":39356,
			"target":34962
		},
		{
			"buffer":0,
			"byteLength":12,
			"byteOffset":39388,
			"target":34963
		},
		{
			"buffer":0,
			"byteLength":480,
			"byteOffset":39400,
			"target":34962
		},
		{
			"buffer":0,
			"byteLength":480,
			"byteOffset":39880,
			"target":34962
		},
		{
			"buffer":0,
			"byteLength":320,
			"byteOffset":40360,
			"target":34962
		},
		{
			"buffer":0,
			"byteLength":168,
			"byteOffset":40680,
			"target":34963
		},
		{
			"buffer":0,
			"byteLength":216,
			"byteOffset":40848,
			"target":34962
		},
		{
			"buffer":0,
			"byteLength":216,
			"byteOffset":41064,
			"target":34962
		},
		{
			"buffer":0,
			"byteLength":144,
			"byteOffset":41280,
			"target":34962
		},
		{
			"buffer":0,
			"byteLength":84,
			"byteOffset":41424,
			"target":34963
		},
		{
			"buffer":0,
			"byteLength":48,
			"byteOffset":41508,
			"target":34962
		},
		{
			"buffer":0,
			"byteLength":48,
			"byteOffset":41556,
			"target":34962
		},
		{
			"buffer":0,
			"byteLength":32,
			"byteOffset":41604,
			"target":34962
		},
		{
			"buffer":0,
			"byteLength":12,
			"byteOffset":41636,
			"target":34963
		},
		{
			"buffer":0,
			"byteLength":144,
			"byteOffset":41648,
			"target":34962
		},
		{
			"buffer":0,
			"byteLength":144,
			"byteOffset":41792,
			"target":34962
		},
		{
			"buffer":0,
			"byteLength":96,
			"byteOffset":41936,
			"target":34962
		},
		{
			"buffer":0,
			"byteLength":36,
			"byteOffset":42032,
			"target":34963
		},
		{
			"buffer":0,
			"byteLength":576,
			"byteOffset":42068,
			"target":34962
		},
		{
			"buffer":0,
			"byteLength":576,
			"byteOffset":42644,
			"target":34962
		},
		{
			"buffer":0,
			"byteLength":384,
			"byteOffset":43220,
			"target":34962
		},
		{
			"buffer":0,
			"byteLength":192,
			"byteOffset":43604,
			"target":34963
		},
		{
			"buffer":0,
			"byteLength":576,
			"byteOffset":43796,
			"target":34962
		},
		{
			"buffer":0,
			"byteLength":576,
			"byteOffset":44372,
			"target":34962
		},
		{
			"buffer":0,
			"byteLength":384,
			"byteOffset":44948,
			"target":34962
		},
		{
			"buffer":0,
			"byteLength":192,
			"byteOffset":45332,
			"target":34963
		},
		{
			"buffer":0,
			"byteLength":576,
			"byteOffset":45524,
			"target":34962
		},
		{
			"buffer":0,
			"byteLength":576,
			"byteOffset":46100,
			"target":34962
		},
		{
			"buffer":0,
			"byteLength":384,
			"byteOffset":46676,
			"target":34962
		},
		{
			"buffer":0,
			"byteLength":192,
			"byteOffset":47060,
			"target":34963
		},
		{
			"buffer":0,
			"byteLength":8472,
			"byteOffset":47252,
			"target":34962
		},
		{
			"buffer":0,
			"byteLength":8472,
			"byteOffset":55724,
			"target":34962
		},
		{
			"buffer":0,
			"byteLength":5648,
			"byteOffset":64196,
			"target":34962
		},
		{
			"buffer":0,
			"byteLength":4176,
			"byteOffset":69844,
			"target":34963
		},
		{
			"buffer":0,
			"byteLength":1200,
			"byteOffset":74020,
			"target":34962
		},
		{
			"buffer":0,
			"byteLength":1200,
			"byteOffset":75220,
			"target":34962
		},
		{
			"buffer":0,
			"byteLength":800,
			"byteOffset":76420,
			"target":34962
		},
		{
			"buffer":0,
			"byteLength":576,
			"byteOffset":77220,
			"target":34962
		},
		{
			"buffer":0,
			"byteLength":576,
			"byteOffset":77796,
			"target":34962
		},
		{
			"buffer":0,
			"byteLength":384,
			"byteOffset":78372,
			"target":34962
		},
		{
			"buffer":0,
			"byteLength":576,
			"byteOffset":78756,
			"target":34962
		},
		{
			"buffer":0,
			"byteLength":576,
			"byteOffset":79332,
			"target":34962
		},
		{
			"buffer":0,
			"byteLength":384,
			"byteOffset":79908,
			"target":34962
		},
		{
			"buffer":0,
			"byteLength":96,
			"byteOffset":80292,
			"target":34962
		},
		{
			"buffer":0,
			"byteLength":96,
			"byteOffset":80388,
			"target":34962
		},
		{
			"buffer":0,
			"byteLength":64,
			"byteOffset":80484,
			"target":34962
		},
		{
			"buffer":0,
			"byteLength":48,
			"byteOffset":80548,
			"target":34962
		},
		{
			"buffer":0,
			"byteLength":48,
			"byteOffset":80596,
			"target":34962
		},
		{
			"buffer":0,
			"byteLength":32,
			"byteOffset":80644,
			"target":34962
		},
		{
			"buffer":0,
			"byteLength":1200,
			"byteOffset":80676,
			"target":34962
		},
		{
			"buffer":0,
			"byteLength":1200,
			"byteOffset":81876,
			"target":34962
		},
		{
			"buffer":0,
			"byteLength":800,
			"byteOffset":83076,
			"target":34962
		},
		{
			"buffer":0,
			"byteLength":1200,
			"byteOffset":83876,
			"target":34962
		},
		{
			"buffer":0,
			"byteLength":1200,
			"byteOffset":85076,
			"target":34962
		},
		{
			"buffer":0,
			"byteLength":800,
			"byteOffset":86276,
			"target":34962
		},
		{
			"buffer":0,
			"byteLength":48,
			"byteOffset":87076,
			"target":34962
		},
		{
			"buffer":0,
			"byteLength":48,
			"byteOffset":87124,
			"target":34962
		},
		{
			"buffer":0,
			"byteLength":32,
			"byteOffset":87172,
			"target":34962
		},
		{
			"buffer":0,
			"byteLength":96,
			"byteOffset":87204,
			"target":34962
		},
		{
			"buffer":0,
			"byteLength":96,
			"byteOffset":87300,
			"target":34962
		},
		{
			"buffer":0,
			"byteLength":64,
			"byteOffset":87396,
			"target":34962
		},
		{
			"buffer":0,
			"byteLength":576,
			"byteOffset":87460,
			"target":34962
		},
		{
			"buffer":0,
			"byteLength":576,
			"byteOffset":88036,
			"target":34962
		},
		{
			"buffer":0,
			"byteLength":384,
			"byteOffset":88612,
			"target":34962
		},
		{
			"buffer":0,
			"byteLength":96,
			"byteOffset":88996,
			"target":34962
		},
		{
			"buffer":0,
			"byteLength":96,
			"byteOffset":89092,
			"target":34962
		},
		{
			"buffer":0,
			"byteLength":64,
			"byteOffset":89188,
			"target":34962
		},
		{
			"buffer":0,
			"byteLength":48,
			"byteOffset":89252,
			"target":34962
		},
		{
			"buffer":0,
			"byteLength":48,
			"byteOffset":89300,
			"target":34962
		},
		{
			"buffer":0,
			"byteLength":32,
			"byteOffset":89348,
			"target":34962
		}
	],
	"samplers":[
		{
			"magFilter":9729,
			"minFilter":9987
		}
	],
	"buffers":[
		{
			"byteLength":89380,
			"uri":"Namayeshgah.bin"
		}
	]
}
